<mxfile host="app.diagrams.net" modified="2024-04-18T04:34:51.640Z" agent="Mozilla/5.0 (Windows NT 10.0; Win64; x64) AppleWebKit/537.36 (KHTML, like Gecko) Chrome/123.0.0.0 Safari/537.36" etag="8dCp683BsSFwn1IH6Wka" version="24.2.5" type="device">
  <diagram name="페이지-1" id="AJIElN23J4D6J6hnC2Oh">
    <mxGraphModel dx="3141" dy="1098" grid="1" gridSize="10" guides="1" tooltips="1" connect="1" arrows="1" fold="1" page="1" pageScale="1" pageWidth="827" pageHeight="1169" math="0" shadow="0">
      <root>
        <mxCell id="0" />
        <mxCell id="1" parent="0" />
        <mxCell id="zKL_dNV_AtEYKqo2xS6K-1" value="&lt;b&gt;Petfins DB&lt;/b&gt;" style="shape=cylinder3;whiteSpace=wrap;html=1;boundedLbl=1;backgroundOutline=1;size=15;" vertex="1" parent="1">
          <mxGeometry x="840" y="253.75" width="120" height="100" as="geometry" />
        </mxCell>
        <mxCell id="zKL_dNV_AtEYKqo2xS6K-7" value="" style="group" vertex="1" connectable="0" parent="1">
          <mxGeometry x="-380" y="120" width="1240" height="1020" as="geometry" />
        </mxCell>
        <mxCell id="zKL_dNV_AtEYKqo2xS6K-45" value="" style="rounded=0;whiteSpace=wrap;html=1;fillColor=none;" vertex="1" parent="zKL_dNV_AtEYKqo2xS6K-7">
          <mxGeometry x="280" y="83.28796951551442" width="880" height="462.7109417528579" as="geometry" />
        </mxCell>
        <mxCell id="zKL_dNV_AtEYKqo2xS6K-56" value="&lt;b&gt;&lt;font style=&quot;font-size: 18px;&quot;&gt;모델 학습&lt;/font&gt;&lt;/b&gt;" style="text;html=1;align=center;verticalAlign=middle;resizable=0;points=[];autosize=1;strokeColor=none;fillColor=none;" vertex="1" parent="zKL_dNV_AtEYKqo2xS6K-7">
          <mxGeometry x="265" y="50.89820359281437" width="100" height="40" as="geometry" />
        </mxCell>
        <mxCell id="zKL_dNV_AtEYKqo2xS6K-47" value="" style="shape=image;verticalLabelPosition=bottom;labelBackgroundColor=default;verticalAlign=top;aspect=fixed;imageAspect=0;image=data:image/png,iVBORw0KGgoAAAANSUhEUgAAAXMAAACICAMAAAAiRvvOAAAAwFBMVEX///8BlOIzMzNDye0AkOEAj+EgICAAkuLg4OAYGBi6uroAjeAjIyMsLCzc8fvMzMyqqqoPDw9vb2+JyPDr6+s+Pj7FxcXa7fq/4viioqIKl+MqKirs+P3m9Pz0/P4xxuzC3fXF5fil1fNkZGS46fdNqujQ6fkAiN95wO5xcXFz1fGq1/RftesAg9729vZPr+kvoOWLi4uXl5d9fX2J2vOw3PVHR0eAwu6f4fVaz+9SUlLF7fk4pOYAAACYzvJVs+qQSNMsAAAOq0lEQVR4nO1dDVfiRhQNmpjFALqLKxhCFFjQFSq4irqV4v//V+VDyH0zbyaTrhCKc097Tk8zxOHm5X3Pw3H+B4ibtdYclTjvnXwKxK3pMAzWCN+m9by3tOdoVguB5xcAvnfdyntX+4zKwPcKEsIo733tMaa+KzNe8Id572t/0QsDhvFCwavmvbO9RTvwWcoLgVXnG8KUF/K5Os97a/sKNeVWnW8IdcZdWanzad6b2080lYzP1Hkz793tJ94YH9F3Pc+b/WvV+UbQk5S574XDarvfH4+f+3nvbj8xEr1Ed9S3GmWjaAti7odTm07cMEYC5aNa3jvae9QDgXKrVjaOAU3djip5b2j/EYdUzG12ZfMYE9Xi3uS9n8+AZxIPWWW+DQxRnbvPeW/nM0BQ59ZN3AJI3O93897Op0AfOXdtGW4buCEmtKddW0NsaX//B9ydAe7S15PAf6TPs1zDG/H2QfvdB3wpf1/j4Dh1eUzUub4M14S1QfujNrwH+FI8WOMonXNiQl19GQ4TM75eC30uZOS8jYVQVx/3Y/Rke7sAGTl/w4go1Ke3Jslaf/JR+90HZOScREQpJhRUi03LILJxTk3oQLsWVb939VH73Qdk45yYUE/vixDVb91zQDbOqxgReXoTirUN24CByMZ5l9SI9CYUVL/tpyPIxjmaUL+rNaERqnPbT4fIxHlETKjeF8GIKMWR/2zIxDlpDU0xoVNU/baahNBxHtUqFKRG5N9URNRA26DqH233O+06dJx3PV8AWtCCeNH3A2hW9PHpbPc77To0nDdpGc4EiSdTQxNq+0YJNJzXMlMOyYA+qH6bVKTQcN5THNJSApMBWE+yERGFhnPNARYeeEoR6km2Ui1Aw/k0K+dBokNi+KytVAvQcH6TVbeEiTpvAeeeHbpAoeG8m5FzLEyQd8R27lKoOY+lIywpwEa6oY2I1FBz3gxdhBAQFVzfFXANOgTFX1/a+ITQ+ec0sK/TEGksR/7JRyvgKe5PRHR3fPHwrdP5eX/8hV9wcvprvuDh/vRE1ypknuOKSbJFX1Sum0dErz9eHm9vbx8fX37sTm/AOeCdvbvjTvGo1CjP0CgVv99LtJ/8bBRLiwWNRuno6OeJ8u7mnNdIa4s+hUKa1NVp9vjH7eUMh3Ms/uPxVZOTj1t1gCJV2ZujNntFmzPwS5qtxZJasqQ+Hs/+acbj+V9vjh3nKEHjbL7i7lf5qHwAaBQ7hPXzpyK5flAudlSsm3NOQiRX7/8ZtVm83r7TDbi8fFTmfWtuMvYruOatRDtwE0Nzzb44ceitlwSLAlY8eJsU3oat2vW8tvL8l+MAd9/nnB8flA5ElIsX63uedQTGlwsezthNmnP+bN4dGsNS1bGAyq1E+Ip1hY6JsFeSL/dFxNcK2E32ufayq3msXBvN5WNUkDj/VZQInaP48/3TJ40Gu6D0xCp+c87J19H3ZfXQhF5xK+JHnvEl6y/8bSeYH2YTClUSOvNVFfgeiUu15HzYrTn16rXI+T1P+YzTzuLD518V1w/K3znSzTknJlSfQsE2C5+LiF4P1ZTPSL/ltToGaazKqlDXik06jNkuync5H1edQUXkXEn5jLH72cdOlJTPSWfUizHnFS/t2yRIa7N40TF+ePjD4LZspEWb4/layYQT83fOQ2fkhI6gz0+P1JQefD13znTXDxodeQvGnI9JLfRKszK1zUKjV2ZC/luZKiDdNYx26xUouLdR0Sy84LwZOjc3U4HzNDgd2XoiijKpxpyTjJfe527CUqbNQk/5o9pbHCPngfxoBuJYmVC+V5cV8yXnUej0/oqycV7+W0/5QflJCo+MOZ+Ym9A6ui1Sm4WkWIjHqNIrc7T0nLek/FAgbbOl6Ilfcj7zWK4cFeezUGge8kj/O/mv8mxBqSyuODoVN2HMOXlp9X1ZqAN88Wv/oJRfHt6+VCqvl4xeqYtNjkR3yCMF5Tyo7CxC7o18iWjxt5a37HGclw4698fHx/cdxlNfMl56+nlxfHz68HeJOo7lv8VNmHKOGZQ0E4rvr2jqKoLyXgb80eVSr+DKajARVAMpigdiVDaWR+FJJ2p6hkc/REIb3y9W/sfZ6XfOGT/qrFIsdycP9LEURX/RlPM26Q4dqxc65JUQcwTxbyLjK02y5Bz1SrMbFALx0WKIIHIeT+TUsxSPDRRiLkIU8m/o8Z11ZNKPLvDjp2RB6UK4uynnxA3Tm9CeJqmImgUCzhnnl78x6B+HC3YEnY3aQwx4xOlJi30KCQJMGWkHcgiUP9CrdxLpos4+xwVl4ePGnBNlqT9ggW0WLmUtQimHaDO6JHolvgnYtwRP1gjXYmF60pJXwVk0FXPKeVlysb9opXyOC1QvoudiyjnpyNWbUBK60Evgs5AAP7pEvVKbrOWRmlF82QQZ5gebUmexgnGstm2Vci7H74RSxko6d0/4nvw3zkmvS8o0C2yzoE8nRsWCFyJ8HeLC+o8JwoxGhd5a0XNGnUV4ZClig4w27uXrVNAlIznDr4b6uiHnfRL5ays/OGRUOEEK2vy3Rj2BzNJAAB10mnB5Xu/PH4IGIs4ibixlvFKKmDsORkLlJ2bBF8gIHAmJdEPOaSJXW8hHYoQ2i9tEzF91t0iMB/VOeqqESw3/JHRhY9NqBjFHzllGnXsQ45IU9MxwBrc4OqfXDDknXdD6Xjhss/CImIIFvdXeIokWqdau4INHzpOof8YmxJqoBTEjkVJyIZyLXscCp6DQRTFe4A7eBJFXM84jeqhFu9+hMqmYqBa9mKOgExeJVC1A7YB36racGp9SSdRP+vkm4Fzyrhc4B9VRZOvNnT/lvEeiUH0tFJOK1LdIkls6bT5H4mz7xHNBjxXc0OQxz/9iM3kyIB4ROi1pnWXIOac5nBPg/Ct7i29/yjlJ5PraKBQ7qIWIaK3OqdPCIFo/Y6rQ8R3y1vYRKrWLaA0i0sRZrGYQ853gnGSufe3poCt4PDTHlHiKl7rs4WLpmjaaC8aEcnI8NeHYXbxYECCsp7HH+AVSGyh3gfOuuQnFuMUlV6JEnaee6VrTRhVZlfOJsKi80ETgZK2fOvifBr3ZO8B5FhOqbrNIOD9M7R5a00ZNQh3l/F3FQdT//oBA1wQrPYhWJr1PeAc4p1GoNpGLj0dYWUk4T53dXeU559Jn4JuGTXG7K2cRYjqTIwg7wDkpiukP2OLjEdKtWThfE0k5RwP9LtTwkFfnPKD8v/o4SoJBO/wOcE5roVpljG0Wws+JVP5ct5DwfXkF3O7R6raJfnsXaqhnGI3v2QHOJ+YmVNNmATY0lfPEhpJ8GhYmlh4fRJeJizMUnUUodpiI+Q5wjn5WmnOLSUVhvh/4iilhqNJXJPXMhcBC1J+ErOA7LUrV9YxivgOc11DM9TMqKpqVSV1O1Ry3RrRWGEKpGV+jecIFKj8QgPUFZxHeDrPDTflz3ie1UO2mSUQkGtvHJJOru4dDXG5atSCz7BwMHFCAwZDPncVWVjHfAc5J4cfVJnKRk0C8mFSJLlOOda2p9IUyYBvNRYxsoiyA4zK3BxDRpVTPV8ifc9KRq6+F6tos0HHRJ1wSjSG2HJK+oYrsoCwB+ceZd9PLLOb5c05GnutPZOFSOf0IjRZ6QVfVLKhp8WrgAtKoYYgqZ5hZzPPnnMxa0JtQEhHJ3w86FXUaHagcCV4lKfy1QJypNwWOywizjqbHJnPnvG1uQjHdxDRxVhRlf4cwCy1j0rtCWirQWacdNzgkCd8M0yN8uXNO24m0SgGtrcdcTzLopK2/ilJKzgJLMS9/OFsMBUg3aXYxz59zEoXqtz0Sw0QB772gNIEed/FAFlLuyRWpAc+50E7Kj54x1eb5c57BhOLZEl7xLwSdtsn1Cj7ctReiNyjnCG44CXbFXUVsV5f5Ifi8OSfumT6Ri9MspL7ZBeYaXWy/xSdZxXasgHlsVXbAiaTwhszrkOFAdt6ck3YivQlFQq55P/7H5SEmW6Kul7w90dQlrUucdhozZDJFcUYFZRDz3Dknb7OrzQiaTLN4wTu0ll7FjPOoNR0GRIZ99jBHj9EtoZxdrsrLsswdyJtz83Yi1PxG8/0STeIFgSeIJt/exvz8N6fv6pKcZxHzvDlvmnfkorcQpEtVc8L20q5uwAdfsbySy0bIjovBhhLkzHmGWuhYHxEJqBdYt+8dynhXOk7B/pKJ3KebaXJPzpwTE8qfoF9B3WbBLdYJue8rh/GKHomYeVxCOumSSczz5px05AbapCLG4inF9ZpWr7ihus4tOuiKxmzRcck2oCpnzs3biZrqNgsJ/VA9SNB3BxrvSPBIVNlZwY/PJuY5c57BhPa4JisV4ucCmxMp+N5E28zRph9TlZT7VM4zjjLNl3NiQvWJXGw8l08gS2g+h6J7OKPQnaQ8LXraWanD6Nn/jGKeM+f0jL3WhMJxe99IrqL+JPS81UA73/f8cJA6zrhCOHdV60m7X+aJvaUVGo0iz/k/6yWlf9hbdIrJApFz+PBXhvMbYxMaj8I1Cqbz/Zqt6ttk8cHRZDDtGUxBi10vGS8YKJVdPApgCmHWXxg8PT29uLj4Ncc9O1Xr7BTA3uIcFohnuH5dJGBuPzKPQnHuX6YRcnFUaUap7XQrVAHP6iigjcuy7CZ3ROaJXIsPAjFF+zOdcqeB/STM+A6LDYCEc14mLW3xH0HG69kfAd0GamhC7Y+AbgXkx7RSfnjL4mPQtSZ026BJC2ZynsWHg3Zw2Z+82QJoCs/+5M0WINS39ElFiw8BnZNjf35lC5hSyj2rWjYOsRPKoPJj8UeoiDOWbR53w+gNQrFAHNifdN4EatV6JarVpzdduSTPdN9bfACGgR+GBd9zmZ42G4NuBLHm55/5Bn6LPwUzP3xNudUsmwF/OspSvkGww6yX9tO6iRtCS9W0GVjKNwX+QFrBLxgfqrTICv6AcdC1sdDGUGPE3A9GVsg3iOm1eGYkCNLaki3+DHF7svwxVM/3PS8IwkHfapVtIG42e+2bm2k99dDbfuNf1xJSFECjejUAAAAASUVORK5CYII=;" vertex="1" parent="zKL_dNV_AtEYKqo2xS6K-7">
          <mxGeometry x="430" y="421.770277626565" width="61.194113126317255" height="22.43529172493606" as="geometry" />
        </mxCell>
        <mxCell id="zKL_dNV_AtEYKqo2xS6K-57" value="&lt;b&gt;ExperimentTracking&lt;/b&gt;" style="swimlane;fontStyle=0;childLayout=stackLayout;horizontal=1;startSize=30;horizontalStack=0;resizeParent=1;resizeParentMax=0;resizeLast=0;collapsible=1;marginBottom=0;whiteSpace=wrap;html=1;" vertex="1" parent="zKL_dNV_AtEYKqo2xS6K-7">
          <mxGeometry x="476.13" y="444.20250408274353" width="180" height="85.52531301034294" as="geometry">
            <mxRectangle x="80" y="410" width="80" height="30" as="alternateBounds" />
          </mxGeometry>
        </mxCell>
        <mxCell id="zKL_dNV_AtEYKqo2xS6K-58" value="실험 정보 관리" style="text;strokeColor=none;fillColor=none;align=left;verticalAlign=middle;spacingLeft=4;spacingRight=4;overflow=hidden;points=[[0,0.5],[1,0.5]];portConstraint=eastwest;rotatable=0;whiteSpace=wrap;html=1;" vertex="1" parent="zKL_dNV_AtEYKqo2xS6K-57">
          <mxGeometry y="30" width="180" height="27.76265650517147" as="geometry" />
        </mxCell>
        <mxCell id="zKL_dNV_AtEYKqo2xS6K-59" value="(모델 정보, 전처리 파이프라인, 데이터 정보, 모델 학습 결과)" style="text;strokeColor=none;fillColor=none;align=left;verticalAlign=middle;spacingLeft=4;spacingRight=4;overflow=hidden;points=[[0,0.5],[1,0.5]];portConstraint=eastwest;rotatable=0;whiteSpace=wrap;html=1;" vertex="1" parent="zKL_dNV_AtEYKqo2xS6K-57">
          <mxGeometry y="57.76265650517147" width="180" height="27.76265650517147" as="geometry" />
        </mxCell>
        <mxCell id="zKL_dNV_AtEYKqo2xS6K-87" value="&lt;b&gt;&lt;font style=&quot;font-size: 18px;&quot;&gt;모델 추론&lt;/font&gt;&lt;/b&gt;" style="text;html=1;align=left;verticalAlign=middle;resizable=0;points=[];autosize=1;strokeColor=none;fillColor=none;" vertex="1" parent="zKL_dNV_AtEYKqo2xS6K-7">
          <mxGeometry x="280" y="592.2700054436581" width="100" height="40" as="geometry" />
        </mxCell>
        <mxCell id="zKL_dNV_AtEYKqo2xS6K-98" style="edgeStyle=orthogonalEdgeStyle;rounded=0;orthogonalLoop=1;jettySize=auto;html=1;entryX=0.5;entryY=0;entryDx=0;entryDy=0;" edge="1" parent="zKL_dNV_AtEYKqo2xS6K-7" source="zKL_dNV_AtEYKqo2xS6K-60" target="zKL_dNV_AtEYKqo2xS6K-75">
          <mxGeometry relative="1" as="geometry" />
        </mxCell>
        <mxCell id="zKL_dNV_AtEYKqo2xS6K-60" value="&lt;b&gt;DataPreprocessPipeline&lt;/b&gt;" style="swimlane;fontStyle=0;childLayout=stackLayout;horizontal=1;startSize=30;horizontalStack=0;resizeParent=1;resizeParentMax=0;resizeLast=0;collapsible=1;marginBottom=0;whiteSpace=wrap;html=1;" vertex="1" parent="zKL_dNV_AtEYKqo2xS6K-7">
          <mxGeometry x="710" y="647.7953184540011" width="180" height="85.52531301034294" as="geometry">
            <mxRectangle x="80" y="258.75" width="180" height="30" as="alternateBounds" />
          </mxGeometry>
        </mxCell>
        <mxCell id="zKL_dNV_AtEYKqo2xS6K-61" value="데이터 전처리&lt;font style=&quot;font-size: 8px;&quot;&gt;(실험 필요)&lt;/font&gt;" style="text;strokeColor=none;fillColor=none;align=center;verticalAlign=middle;spacingLeft=4;spacingRight=4;overflow=hidden;points=[[0,0.5],[1,0.5]];portConstraint=eastwest;rotatable=0;whiteSpace=wrap;html=1;" vertex="1" parent="zKL_dNV_AtEYKqo2xS6K-60">
          <mxGeometry y="30" width="180" height="27.76265650517147" as="geometry" />
        </mxCell>
        <mxCell id="zKL_dNV_AtEYKqo2xS6K-62" value="데이터 검증 &lt;font style=&quot;font-size: 8px;&quot;&gt;(미구현)&lt;/font&gt;" style="text;strokeColor=none;fillColor=none;align=center;verticalAlign=middle;spacingLeft=4;spacingRight=4;overflow=hidden;points=[[0,0.5],[1,0.5]];portConstraint=eastwest;rotatable=0;whiteSpace=wrap;html=1;" vertex="1" parent="zKL_dNV_AtEYKqo2xS6K-60">
          <mxGeometry y="57.76265650517147" width="180" height="27.76265650517147" as="geometry" />
        </mxCell>
        <mxCell id="zKL_dNV_AtEYKqo2xS6K-83" value="" style="shape=image;verticalLabelPosition=bottom;labelBackgroundColor=default;verticalAlign=top;aspect=fixed;imageAspect=0;image=data:image/png,iVBORw0KGgoAAAANSUhEUgAAAmwAAAEKCAYAAACv0An/AAAAAXNSR0IArs4c6QAAAARnQU1BAACxjwv8YQUAAAAJcEhZcwAADsMAAA7DAcdvqGQAAP+lSURBVHhe7J0FfBXH2oefuLsnxCA4wd3dirbFSlvq3t666627u1CFQktboLhbcElCEuJC3PWcHP9mTw4QF0govd8+986vZHfPysj7/t/Z2RkzgwAZGRkZGRkZGZkrFnPTf2VkZGRkZGRkZK5QZMEmIyMjIyMjI3OFIws2GRkZGRkZGZkrHFmwycjIyMjIyMhc4ciCTUZGRkZGRkbmCkcWbDIyMjIyMjIyVziyYJORkZGRkZGRucKRBZuMjIyMjIyMzBWOLNhkZGRkZGRkZK5wZMEmIyMjIyMjI3OFIws2GRkZGRkZGZkrHFmwycjIyMjIyMhc4ciCTUZGRkZGRkbmCkcWbDIyMjIyMjIyVziyYJORkZGRkZGRucKRBZuMjIyMjIyMzBWOLNhkZGRkZGRkZK5wZMEmIyMjIyMjI3OFIws2GRkZGRkZGZkrHFmw/QsxmP575XCZ7ujKe3AZGRkZGZnLgplBYPr3lYmqnJLMWE5lqnEOHUyfAHtsLEz7/p9QkRpBzNkqtB496RIcgJ+jmWnPlYOhIpuMtGTiS21xCuzJiBBH055LQFdAcmQSZysd8OkcSvdOTv/OCEOnRJmfwsH4QvDtw/AubthbXZ4nUVfmkRUTQ3q1O50HhePvaIGlaZ+MjIyMzL+HjhdsBg3VZcUUlFZSrdaiF5czCLdrYW2Lg7M77q6O2DYjwAzF8UT++TbPrCum640f8uyMTnjaX6xg0VFdWUZFRSUKpRqNTodWJzLBdDqDmXBmFlbY2Nnj6OqCi731Py8QRH4l/XwTb/yVRuWQR7hl0Symhv6Td6VFU1VM1tkSqm29CApwNYoPffJGfvt5OZ+c9ibs6kdZviTUdPwloDnMD898we9JwUy4ZRkPzQrl8khVLRXZGRRWqqjWm2Pe0kWlOm1uhbmDN10CnGhQnZXZ5Oz9gVs/OYJhytN8vaw/nVysTDs7EgOlKbv5+823WJ3Xnxvef4EZIbZcgXpfRkZGRqYFOlCwGdCpqihJjyXq0G42HYwms6AcpUZsN7PGwTuI7oPHM27kcAZ3dsPRXjg80y9rYyhJ4vSGj3llUwldFr/Oo5P9cbdro8fRq1FWVqIsOEtU9BFORcWQkpFPUbmSimr9BcFm7YijrQcBYV3pM3QIg/r0JMjdFnsHm9b3SkjXUiioUpthZeeIi11L3YE6VOVlKDR6LOycsbe1xrJ2RojiSVl9Lx9uzKBywL1cP38aE4LbT7AZtNUoFNWotXrpUkb1am5pjbWdXeO9QIZiCqPW8fpz60gMu5FXnp5OX09bDKnb+Ou3FXwd50nnWffxyTXBph80griQXlVBmVIIeL1BXLLx8rSpPsWvn/zG9kw/hsydzdIZXbCq1pr21kYIJoMZFpY22Dk7YHPJgqSUQ+8+wc+HMkiuFnnRXHaLezfT69Db++I0/E6+eGAQTvUVXnUueREruf/rExjGP8yHS/rg79yUYNOKAEcENyKS0EnnNm1tHmPBiTywEM/vhK0ot5pbNlCWtp8tH37EXwXhLHr1CSYH2eBwyfkjIyMjI3O56TjBZsjixG+r+HN9BHEaa2wsGnoJg06NxqYTwUNmc/8dEwm2Nu2oxSULNkM11ZlHWfPlN2xLVVOtF4JEONTmzyAEgE6DztoTr/CruPP2WfRygUYeoSGFh/jrl1/5/JQtfeffz1tzApq5lhAuulz2vv4UP0YWEnjNSyyZOYgezqbdEh0p2PSV5J/cwh9r93AypYBytagQNi64h/Rj6FVzuHqQP45W9e7eUELR6Y28+8pGkjsv4blHJ9PHo22CzaCpomjnWzyzKpniKq0QqM1k7DnRIvKh6YqqR6uyw6fbGBY9eytjLvltbBlHP32R345lktqSYJPQqtG7dMJ7xkO8NzcQi0sSbMlsfPIjNiVkkWtj1cpAQcoZc3TaYOa/+BgzernjWpNpsmCTkZGR+R+hnTx/ffI5vPx71vy9n1iNC97dJnL9E6/z6Wdf8uWXX/H1F5/y3n/vY/Horvipkkg9tp4PvzlGaQvS0czSGqs2dZ9UUBy/nc9f+pItyQoqrYMZPONG7nryNd58/zO++OIrcT/SPdWkrz77iE/feYXn77uBOUO64W/IJ+fEn3z03HvszNVQbTprS5y/w1bealuPbw/06kKSVr3Iy1+sZfeZHIqUKlRaFdWKIvIT9rH921d57NN9pAtB1f4I8aXXoFaJazaT1Dqp58z0C71O6KLGjzuX1MZX7jXHXxrODLj1VV78ZDnLv75QP+qnb3/4iTcfmM2EwEosrOwY1D2ooViTsBGir063aXPo0anVLeZNnaTWoDU992WsQjIyMjIyl5EO6WErP/opX67cy/68EAZMmsnSqwcT6GiPrWUtd2LQoalMI3L7Bv5csZ1kt+4MuukJ7hnsgYP1heOMPWybPuXldXnYe/jj7WhlfGWo01RjGzqUIVMXMKtr4/0Q2vxojq37gI+2q7AadB33z+1HZ39xflsbbGrfSx0MQsxUU11dQXbcIXau/JZteR64T7+P568OJ8CphbFHhYdYu2KVqYftPt6c3XIP2743njb1sL3I4hmXoYdNVUTe8ZW89e1+khSBjLtaiI5+wfg4GFAUnCH6wDZWbUnH4OZF8JyHeHxONzzPP7YKZeJaXn12LYkX2cMm1BfaynxyS9VopVeips3nMTPHytaMnE0f8uv+dBLyDAQOncyEuVczzrOaKrXedOAFpFeiVjaOuPq449BBYUhDKkna+gu/fLmH7C7TWfb8Unx3Pc/KY1rKqs2FeBOHSD2EUk9yVTGZJVq0Yx9qoYdNRXlOIRUqDZoWX4lKr6/1KAuTOPzjN2zK7Mzs5x+Ve9hkZGRk/gdpZ9cmab8CYvYkkJauo9OA4YydPJqurg51xZqEmQVWTl0YNGocV03pjr40m6jNJ8ms1hjP0gDh5BVZsURHnuDY8eMcP3aEU/GpZJY3dN7nKCvIJjGyGL19MKOnjiW8WwDujrbNiDUJ4QSt7bB39ias/xAmTh2Gq0FJ4bEEsqtU6ExH/XsxUFWUwpF1hzlb6sSQBdcza9JIBnQLxj8gRDzzRCZOv5brR7kL7VBI2s5f+OrDD/ns00/4+JNP+fTjT/ns18PkWZiJM12k5xeCzNLJl06BQYQEBxNcPwV1wjojghOJheSb2eNgZ4E6LZ4zUWcodApseLxIISFBBPhdTrEmKD5JfEI0p238cO4zjL52GqrOnuTUyeOijp7gxAmRjh3j2KkYTqeXtvzxghEbnP0CCAgJaTxv6qQgAqUyC+2El81Fl4aMjIyMzL+A9hds1akkZCoo1XemV+8ehAc1P+jezDuEnqMH0lmvR5McRWqFGqVp33kMwhmZW+I5bCFLb76Du++6i7vuuZ9b5k9mZKemRvlIr4sUlBRbYG3pRudQx4Zf77WEjT3+oYGYG4SIyyumRKNDbdr1r8VQREnaaXYmazDvMoqrJvajq3vtPLTGpUs/xk8fQrCFNVb5pzm0exNr165l3dq/+GvdFrYdTKSsdeqjjYjySjvOttVf8/1Pv7Ex2Zkuo+Zz07K5DPOrJnnDt3zz7WrW7U0gq6rdO4bbiJr0Q1FEHivEqlNnBo/thqOFJX6jbufGW+8SdfQO7rhDpLvv4Z5bFrNkXGd0HXLLhjqvRGVkZGRk/jdpX8EmOQ1lBeV6LWqXINxdXXCv2dMMDli6BdHHVY+5rpjSSh2a+s5Hemtrbo77oLlcu+ga5l99NdcuXMzcCUPp62NuvGxDbLCxscPFVYNGW0JKUjka055WoyglPSaRKjMDOjdnnCzN//1zWJXmU5QSQ6q1E879x9LDsbGeGRtsu45iqI8BK/HMfn3GMX7G1cyfN495c6YxZURXXNplsJj0WryYvLOJxEQeYs/mdfy1agU//LyJKPNwhkyew4KrZjN1prj24nlM7u+FPmoN3/6wkt/XbWRXxHFOx6eTWViB4jIrFkPeXvYfPElchR+9+gxjUoiUiyKo6Def2XOvZcG113DNNSLNF3m2aD7zRwQbv4iVkZGRkZG5GNr/BZJx3I1wXtJrR/HvljEXWswGe+O4LXOENmry1Y5epUChbOj0mjre2cOPLn1coSqd/Rt3cSo+m8JyJapmnbs0hk2JoiyTuBOH2bo9CrW5HV4jexPkaEsLI9hqIXLBvKU+PTPMLSxa+aqsfVBXlFGQl4GNlRWdg3yluzTtqY24J8tAevS2xsJMjc+IRVx//93cc++93Hv/vdyzeBg+OknotV2A6DQKSrJSSU9JIiHqKId3b2Ldr9/w8Xvv8+7nf7IzWYffoPFMXXwPD946iZ6eUhW1wb33VK677z5uvmo4/TwKiN3yI5998AEff/0zv23cwd6jJ4k+k0ByWgaZJep2+vigCZS5HFn3N4fTS7AaOpLBYwbhadrVKBoVKk3HvkzvyMeVkZGRkfnn6QDBZmH8Us68qgp1taoVrxCrUSvzOZsp/mluidARzeg8IS9aJQJrsPINocfYqwkXYtAQ8zPvvfEx36zeycHoNDLzpQl0q6isrDyfqsqKKM1JJ+nEFtZ8+QEffrKafeUeuHj04dqpffBo6YOD2hi06KorRB4o6lzjQqqiSlFBeVkFSu3lc7jVKiVlpVVYWtnRydte6rhsFDNRjp5eHlhZWJKfl0NhkekODUI0V2toeuRgcxioLoxjzydP8uhjT/DUf9/j4182sic6l2pLL7oPmco1dz3Nf1/4D9cP88Te9Kvz2AcTfvVD/Pe/z/PA0smM6OKCeXECJ7b9xo8fvMFLTz3OE0+/yId7C43z/bU/kpgvJGHtp6yIyCXLdTrTx45heqhUJ8X1RJmrRNlW1S5npWgD5RVUKJsYm9kOSBOeqFWmP5pDCqYuY3AgIyMjI9N+tK9gk7yBSxAhLna4VJ0mLTOL1JbmwqguoSo1gWMGKwxe4YS52zR01Odos7NxwbPXNB5+/k6mdbHHQZ3GqR2/8NU7z/LEQ/dw1113cOedd55Pd9zzAPc++gwvfbyaTSfSKbH2wnfAfB54+WEm+lphazpri1jaYF2aSvYfL3LLrbfXucaFdAd33H4Xd9/zPD+cUVGhNW/dPG+XhJ7qqnKKC+2xtOiEj7uoAE1e0wxLW2fMhKKTRHL73JoZDt5dmXT9HEIcXfH17k7/cXNZev9zvPn+e7z97K3MHeCNnenoJrH1pvfk23j41Y94/+2XePKuhcwY0YNQj0DcXMewYLI/NrW+NG4vDEKsZWz4mI+2JJGuGcA1i6YybYSvaa8GjfIUv91zN/fffge3nyvn227h5gee49mfjgvx2xEFrEKrLqL4rDRxrmlTE3R49ZKRkZGR6TDauYdNcgmh9O7vjLt3BScjjhFxMLOZLyvVFMYfZ8Ov+1Fbm+M+Ihx/W6uGHwcI0WDQasn862WeeeQ+7r//fu698zYefWc5a+JamCfMzBbbgGFc/fj7vPviw9x29Rj6B3oKKadDV11uXKbqXG9IhVo4ZXMP/LuNYMrSB3jq+Rd4/d6p9HRt5aS5tTHoja9wz/e0NJkUVIsM6qjelysOCyccu1/Ns++/w6uvPcZ9N8xmYv9QvJ1rZk1udQ+QdKCoF7YeQfQYOo1rb3uUZ99+mbdeW8QAB2k0WfuiL4thz5ev8fq6BM6quzH/jkVMGRIs6lEtDLqGPWxSqpJ6JS92PjtpqpXTbHnlDu677z6+O1xCUYPeNKn2SIItEG93q3orPQjBba4Tt5bEutcf5rH77hft5z5j+3nk9S9Yefpf/xmNjIyMzP8L2v+VqCBo0nyGhPrhnhfB7j+/59NVezlTUs9hVWcTs20Fv/z0B/tKbLEKnsnNk4NxbXJhUT2qorOkpyaTlJQkUgIpmXkUKVrxcs7cGjtndzzC+jNq2kKW3fcIj7/0Mi+//jZvvfXWhfTqS/z3xUd44PbFzJs4lPAwX5zsrdvu/HUaNM6B+Mx8hPferXeN2untN3nj9cdYGGaFo4UQeP8vVJsZZpZ2uLi74erqjJODHTZWFpfQ+2OOhZUtdo7OuLi54uZq34Zxhq1Ak8uZnT/y3uuf8uvhs+RZDWLJvTczc2gIXnVW5rDC0q43s19/g5fffou3z5XxO+/y3suP8fi1fY1zzl0MBq2KqqJc8nJzKVOKQKPJ04h7EJFF43mpoSQrhbQUqe1IbSiRlLM5FFRd3MttGRkZGZnLS4cINpwHMOnahcwc4o1t1hF2/f07P3/1CZ9/8RVfffUVX3/5BZ989i0/rdnCviQlhs7jWLh4OgM8hThqzNuYpvXwGX8b9zz0BE8/9SRPPfM8D904h4mhbZBTZlZCuHng0ymIkLCudO3Wgx49utO9e03q0S2MsC7BBPp74eZg0/ZpQM5h0GOwcsDWrwedw7qdP3+DJK7fs1cPAh3Njc/d8XpNWjlAWmVAymTpY4+arU1i6u4y/qal923N0vFP1u4oznJm71pWfvkV363ayMGEUhiwmPvvXMD0YUKsNXg/LoSSuSPeoly79RD16lwZdw2jS3hPega6Xnw2iHIwt7TCysrKOD60bhMRJ5V6c6V/6mrEXIPLGNuPBeHzH+TeR54S7ecJY/t5+JZrmS6CBRkZGRmZK58OXPxdS3HCEY4dOMix+GTikjMprqhGozcI52KBjZMHvsFCIHUfQP8BAxk/NKjRsUu11xLteuMHPDPNvfExToYqso4dIL5Yg1InxEhjwq+9MAjHaOmGq383hvXxqtujc4WvdFAcs4kN337J1qqBXPvc88wMgPrLhUoYNEoKt7/CcyvP4DDtRe6eF06Yg7RHSVWCafH3Nqx0YCjPJD0lnujMaiyNSwB0LHqdI6GDBxDq69jymLhzGDRoi+I5cDyDopwznD5yiFM55jgEhTNi5BB6DxnNuM5NjrBsmuoccvf+yG2fHcUw6Um+urEfAS6tFUoGqnJPsu3dV1mdac3wuz9hyVCPWoKxgpKkHXz19GpOusziodfmMdDrXC+jtNJBBFs/eps/852Y+PhP3NhXmmlPRkZGRubfRocJNumkRh2gKSU7+gj7IpPIK6k0TqmhN7PC1t2XkF5DGdo/DL9mPKqhOJGo9e/z4t/FhC19hyenBeDRYPF3qdcom+3P3sd3URXkqyyxaqR7TOqlMK71qNOi1emEcGzYW2EwsxCCQvrSVXL64jhpCpD6l9OpqLbvRa9JN/HmA0NwMm02coULNkXqPnateJufkoMZd/+H3NLXHJtG8kpaoD39j8d4/e88HIcsY9KgLgQ769FryyhJP8qfvx4nO3RxqwWbPmUL61Yt570thdjbdvxsdurqYK555RmuHRWET9MFUBe9ElX6Tj5+93uOFDrg4uuHb0gfBo2YyLRhfq0Xfg2oQhG3h883J0Gf2dw8Ogh3u9b237Yg2PTFFEYJAf3SBlK63cgrT0yhl7utqc7VFWxjH/iSxf3tcZUVm4yMjMy/jg7sYWsfDOXpJO7+mc/3lRM082FuGeGNi219DywJtiKOf/MeG5KVlGiE6GqgaXQoiwsoU2qwcPTAydEBOwvxO9PeGsww11ZRUlZBucocOwdn3F1tMK+fQ9LC5bYhhAyczl3X9qz7VesVLtj0ucc59OdnvHfQirDFr/DCVE/sGtFPuuo8Ij5+mB+jtBRXqoTA1aKT3ruZSa9SLbET+WcIWszzj05qnWDLPsKBnRtZdaQMW+uLftncajRqH8bfdiPjwn1wb61gM6Iie/Pn/JEZTJcR4xjX212Urw5VWSGFlbrWfxRRGynPLKyws7HEYG2PsxCs5q0+UQuCzVBOaeIeln++l/ROM7n3tpGEudjIgk1GRkbmf4zLL9ik8TZ6KdWMi2p4ceFqxP/NjcJAShfjIRujlMPvPsnywxl4zHqKJVePoY+jaVdtCvfy47er+TnShREzl/LM9b3a9grpSl/8XZFG4o5feXZFPBYj7uSjO4bg2eBDDyXV+RF89dh3HNOYY7CyqPWVrCgzqedRb46mDYLt34xBCKbDf3/Nq3/nYWt1kXkv6r003Ytm7KN8en04AU0u/l6fll6J1kKrE9eQ7u9cYcmCTUZGRuZ/hUvw/BeDnsrsExxYt5zP3vwvTzz8H+696zZul9ZcNKV7HnmcR194m/d/Ws+euDwq2mWCeEkWas9/XWfQ66S3oo0jnJ70MZ80i7903MVOxiCdQfpQonmklQ4sL8P8a7Ww98Gta19Gm5XD0XXsytSiqK+alVUUHtwuxJqOyt5LePSVD/l++bd89fV3LP/ybd58eBpBWumFckO5LdMYUl2wwMpSelVf/zV8O2IpCe/LWZlkZGRkZC4Xl6mHTYMiZS+//bKJU3nllFVUolBIy/VIr9n0UifSecykpZosrLCxtcfBzh5nnzC6jZzFdVd1x9V0TGuQTlnXdVVx/P1H+eZgGh5znuP6BSPpYWPaVZuyA/z81a/8eNKFkbNu5MXrupl2tBKph23Vn3yz8yxuHh54OloZexIbRbpBgw5lSRElIk/6LHqeBdM7uIdNoC9LIXb9J/z3r3xsQ8ew4MarmRLuVTMxsCqduN3r+W7lQdIrnBn98ItcN8wHz/Pas4ySmA28/d8NJLfho4O6SCo8lS0vfM++kgoqLMwvIXLQo6l2JHTIBGbeMJmeHfHRozRmsaqCUoWWtqy0YURavUOZQ86J9by0KhbD+If5cEkf/Duih60Bcg+bjIyMzP8KHS/YtEXkRW/nu592k5hxlnybYPoPGUX/3kF08nDEzlIaz1PrFjRqqsoLyUmP5OTRSE6nK4WoGED4qAXct7AHTq31l5WpxB05wK/70kxjpjSUpieRU1aNlWcIPt6euFjV9Kadx8wcC1UhZ7Pzya2wxMXTl5AAJywMZmg9x3LdtQPp7HpufFATFOznt59W89nGeBxtzNE0PWmWiZopG/SqSgYue52ls4fRu/ZsrB0g2KTeRkX2cbZ9+yE/RJrjHhhcUxZCQ2iVpRTnnCU130DgzP/w4IIhhLjWmifNUELR6Y28+8rGSxRsp/n5uldYny+uZ2lxcVOoGMyxsheCWONGr7FzWPzg1QxsbzEiNY+LGrhWGyXVh7/jhg8OQZsFm6A8jo2vPsPPGTaMfmg5Nw21bXo1kDroKU07yDZZsMnIyMj86+lwwaZI28fuld/x7TEVngNmMHlkd3p37UYnX1ea9Fl6NZXF2WRnnCEyIoJ9e06T5zmYRf/5DzO6Sh8LmI5rjuLj7F7zM099f9I4+a0kjCxsbLCykFZNUKGReveEEKvji0VWGMwtsbayEscZ0Gp1aPTm2NvZoApcystPT2egj33zgk2ZQ3JCMqczyrBu+OVDk+i1Gjy7D6driDfutR1qhwg2CTUVZ3awbc8R9h08TUpuGQqNHjN7d7y79Gb4iJEMGzuBwb6W9fKoPQSbVOVKSNx5gnSlCpU0VrFmRxsQ5WldSuLW/Zw8XYXHpHksuW8u/TtCjFRkkRF3hB1xFVi2dUyluRCjmgoqsuPYFVOMbuxDDQWbtlK0k6OsOSgtqFsb6ZW5HlV5PunHjpBQaY5v34n08LXHwaruRMu1e/70om579RJB0dBuuGQeYOMHsmCTkZGR+bfTwYKtjJS9f7Ly47XEuQ1l2n8eZGlvuzY5Z23mQTZ/+w0/xVXhNv81/js7BG/7VpxBkUXK6ZNsPp6NzcV8lSh99KCtoiovkf1xRWgDF/LsI5Pp5928YJMys40uvR71ztBhgq0GXX4MR47FkppXLgSbAXN7Vzw792LwwF74N/barV0EW3tRwpGPPuDXv1OxmH4NSztIsBlyjnNw7ee8uDYXW3MtKiFsW99opA9rpNf8ljg42KMe/zhf3lBvHjZlLoX7vuK6t/eJY2sFEVLTFL+zlIYH2NthbS6CCJUCtbaWWBMHG/R6sV2J1jghspDiiip6X/MYN942j/6lB1j3vizYZGRkZP7tdLBgyyR64x9889FJFF3n8OjH85FGhLVJ0FTnUbB/Ofd8G4N2zH/49Pr++Du3PI9XPdlzkVShOLycm94/iD5ICLZHp7Qo2NqdDhZsbeaKEmxZ7Hvvc9ZsycBqWgcKtrxTHN34LW9sLsbWK5huog5IHw+0remIY80t0YUv4L5JIXjY16rDmlIqzuziw7Uxpg0mxPnNrGywdnDEwbKxL6oFkmDT6aiuKKVaW1MzdWolnYbOZfyUofjlHWCD3MMmIyMj86+ngwVbLnFb/+T7jw9QGDSV29++gSH2Zm0br1SWQvyW5Tz7ZyqWkx7n/cW98HVsWbC1C9X5FBxewb2fH5UF2zn+vwq2v7/i9Z0a7Kc/yXc3dKGx71WuPPSUpR2UPzqQkZGR+R+ggz2/O+6evoT5l1NVdYCN61MpqtYaewpaUok1+4vJjDvC+r+jsbSypmeoHzZWl0msycg0QNRKrYrq6naZa+YycFlDCxkZGRmZDqSDBZs1Pl37MnLGMGwrC0na8ApPvfgBP26OJqFAgdp0VH3UZXkkH1vLz++/xeuf/MExnTtWnRdw/TB3XP4dXRsy/6tYWGF9GVZqkJGRkZGRqU3HT+shzZNVmk5sxCZ+W7WV6AobnNw8cHW2w866Zm3POv0A0mS1GjVKRSmlRSVUmfkSPOoali0ZS7i3LZe1f01+JdqQ/89j2DYVYevmQydXG+PXohfTcKTJmD3H386iUWEEOnd0TZLnYZORkZH5X+EyeH5zrFxD6Tvuam5+8AkeuW0GI8McMSvPJy0+luiTxzh+4gQnTCkyIYWkYjVWPgMYO/9O7n3kIe5ZMEoIpcss1iSkZbQ01VRUVlKhUKOtM2nb5UOnrqKqsoLKag0aaT3PfxRpaSoVCpEnlSJPdOf0vrS+qlLkU6WCKvXluklp0lxxvfJKFNWifDqqePRa49eZFeVlVGaeIerUyTp1tk3p+DFisiqo0pjO3cEYxL2rFaLuiPKqFhnU0eGZjIyMjEzHcBl62OqhLSInLZPM3BJKKqpQqSWnf6GnwdzGDisHV7y9/AkMCMDb+R/sTdJWociOYfPxHAwuPRk9LBQfhzZMeNpOlMZu4khyBRqfQfTp3plgl39ybFI1yvwkDh9IpsS1F6OHh+IlrR5fmkp8XAyniuxwDRvMtB61Z//tKCo4e/gEZ1LKMO/cgz6Du+HTEW8rq/LITookIrmq7fOw1UcEAQ7dRjO4izdurVqt4NJQlWWScvQg8VU2BA2ZQS8fKxosHSsjIyMjc8Vz+QWbzCUjFdg/KdkaIFWhOrPrXiYaZERH5EzH5XaHl2OHX0BGRkZG5nIhCzYZGRkZGRkZmSucf/B9o4yMjIyMjIyMTGuQBZuMjIyMjIyMzBWOLNhkZGRkZGRkZK5wZMEmIyMjIyMjI3OF8+8TbPU/kZC/mZC5opHrZ3tQNxebWAj/X478TDIyjVG/vf//rVX//Fei0tUbTD3Q6EYTWgpjDxKTrMUqqCf9+vniYNrT/qhQFaVwJCIZQ48xDApx4R+Yhu1/DDWa0jSO7ItH2200A0PdcGpy5v3m6kHraZ+zXAKqUgqTT3Ew1YZe44YR7Gh++SeBvlg0SirSj7I3rhTvvhPpFeCIw2W7+VolV57M4RPxVDl1pWevrvjZ1Wz+n0JTTmlGHHviSvDoPYahQQ78+1dBq6AoJZ6TscVougxheg+3Ns0A9I+3XZkOwIA6P4nTyRkUlChRa/VgaYWdszd+QWF0CXKhwRSVqgIyE+M4mW2g25BxdHczbf9/xj8g2LSUpcaRUWmPs58/QZ52jTZIQ1UuWZkFFOndCO7eCdfzfYEKIr97lm//UOI4dRn3PzAcP9OedsdQSsnptbz89J/ob3iPJ64Kxc+hafNRnX+GjDxhdFUWWLTFyogi0Nn6ERrihZdjy+sGqSvyyUtLI09cp03GT6/DwtEDD/9Qglzao3NVSXFmJrnFFSjVOgxm1tg4eeAV4I+vQxPnN1RQmbiBlx9bgWLhWzw2uztBzSzRpCpM5GxuCcVKkadtuWWDHq1LEGEBnnjY/7Nez1CSQNSfH/Lceldu+uhFpneywr4t9eOS0KCtzCfpTC6GgJ509rbHpg3ZYagqJGPTKzz4YwJD7vmam8YG4G9v2tkaRDlQkUlkSiEaYZjNWlFhpXpq7eCGd0hXfM9dK20NL7y9kuygBdx86yJGepq2N8LFtg9pWTydrRsuPkF0977ERYv1CkpzcsgtqUCh0iEtkmJuaY29qydevn54NDZpclUaiVuXc/8PZ+hz6wc8P80XZ+u2PICKivx88otLqVZrUWn04ro1ksfcwgJLG1tsHdzx9PbC3e4yVUBDBqfXr+Ddb2OpmvcMK5d1My5H2DjiXjVFpMRloHAMxN9f3OdlmFxa5vKhV5WRG3uEE8eOsPNoFMlZZVRLy/dY2uDs3ZlufUcwYvgg+vXtSqCj6UcSJafY/dv3vLdfx6JnPua67v8/hfw/INjKOfr+I3wRF8qABUu5e0owjfkPXfzv/PDDVvaohnP3K7cw/HxEreT0L6/y83olDhOXcMcdg/Ex7amPQaNEUV4kBJR5s4UrORE7N2EcbYRhq32goYzSuE288/Lf6Be9wn+mBuPTjKfNWv84X6w7xeEsG2zMRba21lvotSj8FvHYw7OY1suzhYpooPD0JtZ+8B5/5NljboxBW0LqUhZnFfnh2HsKE5c+xB0DL21BSYOqlOKUE2xZv4Hdp5LJKVehN3fFPXQgw2ZOZ87wbgS42DQsW0MlVSlbefu531HOf4n7p4fRyanpJ87d8hxf/x7Bngx77Npwy2YGLZWD7+a5GyYxoUv79cEaNAoqK6tQqrQ1S5WZmWNhZYOdvSOO9laNjjEwlCYTs+ELXt3swtI3nmCSv4gmW1k1LhkRdJTF/c0rT/6O9ob3eWxGCP6Obbh4dQlZ297myZXJDBAi4rqRfvi2pXdLp4SoH7j+ja0UlldjZdmyWtSoFHj3GMmcB1/m2s6mjRnreePjNeR2mst1189nqIdpewMMFJzewF/vvceaPAesWinyJStoplOhChzBoLl38vpV/qY9bUWIJEUReYmn2LdjB7sjk8kqqUarFT7JwRX/3kMYOXEmU8ID8HKzq9s+FBmk7FrBEysT6XXDGzw+2QuH1ohrvZrqyiJy0hM4fTCC/afiKCitpKhSg864nJ6oo9Y22Ht44dOpH0NGjWS4CIL9fFxEm2reNuqqS6kQ5aY2d8bN057GXzDo0akVlBeKwE0IQl9na2FHTWc1ZBK3+Xc+/TkexVWP8PXiLk0LNkncl+7gnYe+JKnPbSxdPI0xnS5XQ5HpeBRkHd/In99+z9ZCT3y8XHC0saypD6LsdepKyopLqNR7M3DZY9w5IRg34ZONlEazf+1KPjukY/4jb3JtmGivNXtaxKCpRqFUoqxWodHpz4+iMjO3MAZRtnYOOAjnYtnGPgxtVRHlVdUoNWZtCwwFBvG8UueGk4NdmwJoixcFpn+3KwadcGhaDRqN1mg0jJljfCg1eSf3ElPmQUCvPgwIdWncyZUkEncmk1zzIAaN60vA+dcwWvKj9xGVoMU6NJxBg/ypLcRrU332CHuWP8aL3+xg65ZNbNrUMG3c8Dfbdu2hqstsenpb1HsFoaK6MImIvQkY+kxkeBdXHK2aLpmq1H1Ep5ZTanDF1dURB3tRERxak+yx8erD8CFhhHg03uNYG2VRGimRUaTqxXWcxXUaPWf9ZIewzdh5d6Fz+BD6+7ahltRHXULRiV94+f0/OZldjcHGESdHJyFYLDGrzCAt8iiHsr3o07cTrg0cghpNSTIRu2LR9pzAsDB3o1BuCmXWSRKzpDx1wdmpsedqLIlnFS3I0Gkwo8JDCHar62YMOjVqjUbUT51wNVJjE/fYUqYLtMoKsqN2snbVj/zy6+/8sXY9G7fsJiIqnXytPV6+PjiK523QuypET0HiMfYl2dJ38mg6O1nQTDVqHdL6pqJtaXSiEVs053RVorjSOBKRgkXfyaIOCyPZSK/NhTyR2m1NkpaM0yiEME8+xJ7YUvwGTic8UJRzW4YFGMQNivLeE1MohK2tqCct11c7Wxs8AjrTY/BIup5b4awsgf1H4qh07kF4354ENNPLpyrJ5OyZeHLMXIVBbPwaDZKjCAikfHQJJKDnQMZ3acqqtEBlJkl7f+SVj9cTnV+NzsLWeH5HRwfsRb6rC1OJO7qfbWmO9OsvOSSLC2WnKaMkLZrtp4tw7zWaIf7Wop7ojWUsVdDzIqge2swItvz6LR99v5WonDKUOnFOSzvszz+fPfYiTy1FGSuL04g/tovN+3Ox7NSZAF8n7JpxVOUnvueXj39kTZQb/SZ0pvEF55QUJ+3gx4ff4xtNH6b39sDmvPcrpzAplqNRRWi6CRHex73J5xCVRRTeWY7vjaHSdwDhvTsT2Eww1xFIa+/qRDuQ/JaxHehqekcxN68bzDdACA7pd8LnnW8/JrFs3vwPRRMRv5Hasul3WklUiO1m4prN/lK0LW3texX2TCd+KHVANJ3HNUjPWee30nO2xhZKwsro1889p7im0NmtuWZVwm72/vUjf2T60qn/bJbdcys3LZzNjKlTmTptGlMGiSDGooTUlGxSo9OwE+0/yMVS2HLx4+p8MuJPczTTQM+RU+jlLq5Zc9qmEfdqUBRwNuYIuzb9yW+rV/P7n3/x98bNbNq4kS279nNI2O7sSgshnlzwEIatxTyvRf7ut/j2qy/5bOV2tm1tXF80ldb/9TtpFl3xCQ3Cpw29yB3Uw6YlL2I1azbtZl+8Dr+e41n02A0MM9rACk589gzL44PpO28ht0wIbLyHLXEtK1fu5IB6CLc8ez1Dzj9U63vYlGkR7F7xKl8eb2IsiFTBxOPb2Dsy7oEvWRxuVdcZtbGHLWfzU3y6Wo/ThCXceEN/fEWFlmxtazBIUbBwGC20bYGBohhR4N+uZpfHMl59bDQ+0u/EczRZkGYWWGqi2fDFz2xL9yD8poe4td/F9rApKU+PYOUrX7O3zIEus2/h2qkD6Okjou/qPNKObGXV9+s4pban85LXeHCCP16186yNPWzS87a+hkoGRyuOP8Pvd7zFX8ELuW3pRCaEXvDuBq2K0n3v8tKqePKq3OgzfQFzZowiXBiA5qjOj+PIrx/z/dEyqo1G6lykJq4pCs3MzAY7tx5MefBBrgkTUVMtJ9gRPWyGpHX8+msUJ8xH8+DT4wkwbW+AqMPlCVt4+8W16Ba9xgNTgvCt91rfoKmieM97vPBbCiVV2lo9INJ/xUPqdUYDPezOj1g8wrdtPWwSkmMRnkTq5bUwGkQDepF/xg7K85eqcWxmkkMwBXh1emKyNvDmh7+RE9BSD5u4nGSohQPSSWVj2tY8on1Y5nLs2+9YFaHCZtE9vDLV17SvLRSTfnAj37y/jiQ7P/rOuoHZ43sT5maDjZlBiN88Uk/sYNNv6zhYao/r1Md5YV53/J1N0agig9Q9q3j022Mi6repEf7aaqq6zWXh/Fks6teIXFKcZMPy31m1TTi4rkOYeu08hnb3wMNWBC3nglyRyWYiP7SKMvJzzhC9Zz1/7D9LkeMEbrlzDjMG+DY5prL02Nf8uuIY8a6Lefj5CQSattdFQVHCTlY89xuHpj/B50u643xuwdq29rCV7eHjp5eT0vNGFl4ziRH+rSvB9kFHSdxGtq7bzf7YXAp15lg7+dCp5zhmL5rCEG/bpoe6VMax8/e/2HYsgcxSEcRaOOMe2o8RU2YzZ1Rgk+OsDboysg6tEcHfEaJyhW00mGPv3pVeIyYxa9ZIujcVNxiqqc46zrpVa9kTl0t5tbB7Nh4E9ZvAlGkTGNvdrVG/akRTTl7MTv5Yt5XjSRVUi+e0cvSj55iZTJsyjH4+TQ8HqMw8waENf7LheAaFStGGrZzw6T6aqVdNZVRvT5o25SUkblnFym9PkDtkCc8+MgEfcWyD/KzMEm3oF15cHo3ngld5ZEogvtIbgYvoYas4vYIfft3HseQSEbZK1UvyJbX8pNQuJLsjncjag+D+k1l6+zzCWxmr5W59iR/+PsaBs3bYtiGIlWybTlVF+LVPcvVVIwl3Ne1oBR0yfFgZ9QMrNx0iIjafygprHCoUqOs5XYOZJZbWogGY/q6Pha2ILkVp1vtZm7DtNJBxd3/DAOmVaP3SNbfCSiEi8WPrefOvxJpt9S9mZiei/ZrXXMKUtBJRASyskOSQmaV4xpqNHYO5iD6sxXOY/mwWMyss2zQIrHEMZTmcPbqBA5VWeM36DzfN6E5nT1MDt/UhZMQMbnAT5umtlUT9uYnIPgsYFezCxY4RLzr0NWt3RXEy1xabVj2oVIhqyiuFo7OwaKT3VjRYVSVlZUKMV1Vyav2vxp4H2yUT6NrE+Q2FcZzZ9g3fHSpCYduTacvmM6arD652lkIoV1GRfZpjO7fz595otn38I8HP3MggoWo6bPhN6THWbdrHxiNqAkY0rLZtxyAMSAWlpaUUV2rqLnBvfOUr2sGlVGQpYJB+XxDBLys3ccIQzpTZ1zK984XSUUf+xEd/HEbT63qumd4Pl5Q/+ebrPeSJQjdG75pK8vLK6BTapBs6j7GXwFK0Q9PfrUOyN62PrhtDn5dEcuR+Uhz8GXHzEywd6ImriADP3bG1kz/dR83FLSAQpw8/Y/vuvUSN9sfV2Y06HYbCqUjiqkIjhKdaSUWFEqWm8VJWJ54kOTULxwFTmLtsKRM6SXndyLOLtmBh7UWAswtenXoT6PgCn205SlzaEMLDfQnpUEP1b0BD7qZ3+HpbHDHZtngH92CAUBQVmSnE7vud/IQjpNz1KHN6uOBYJ680kpHii7d/5XhaPlrfroQNcMOyOIuMM7tZn5PGqdOLePzWgXhY1q1duooMEtZ/wqe7sikUwWPn3v1wtyjibGoiEX+kkp1wiqm33cO0Bm/nS8mN3M63n/9NQlk1Np37Eu5tTkVSEpkRv/FNSirR4+dx7zwhjk2/OI8qnZjd6/lqxWEKtQa8uotg26Gc7LgUTv/9OQmpKYybcTU3DHY2/eACeYf/YMufQpRmiYDLtTPhPV3Q55zkTNQGfow9TeqChcye1Z9OpuProC+mpLiITBtnHLqG4d9U43R0xyt8IAMNpziQWyDqvRQ4ta1zwSCCweoTX/LJqqOcSFLg3G0Ak8aMZVi3YDxEcGQhgicJcxGElpWmEHdwG/sPRBN/aCvflaq45clF9BIOqyVL4zX6Ae4cqGKZVhJ+po3NIR0k7q3q+Ld88Ptx1FLXZBtpm01rESkjlCQdjyUlSUXA0AXc9fIrPHnfbMJrWyQhluyqojn05ye89tabvP7663XSG2++xWtfbWZvgkIo14u/RTNLW+zd/PD19cHHp17ycsc9wBc/NztTT4lQr9ZFnF79HV++9F9eef0N3nj9Td76dg/ZwoEZJDVec1izGESEZBzTZPq7zbTa+4r7MbdpvSgQx1oLQ27W+u6qRikvyiTmYC5qu6FcNaUnQefE2jmsPPHvNpLZU4OgMoLIxDKKpfDmItFW5lGQnUxS4hlio09z+nRLKUakZLIkQVZ9bgzPBcwsrHEaehtPPv8aL14/lB4uecQmJhGdbjqgAeVkxh9nx858lD4TuOPx25gzui/dgn3x9vbE0yeY0P6TmLbwJu5f1A1d7mF+359Bfvml5XNT6LN2seaHNWw5lk65QTjnJkP+1iO9PnMbfifPPP8yb4r299prrxnT62+8yavPP84D0/yMvSKX3BlfXUpedgapOYUUK+v2PesUBWRlqKioNmBhI8R2SRZJp2OJi4sjLjaW0yki+FNqWny9dPHURN7mwpibmQx6W6kuL6Qktworx8GMGulnfMXSwOhbOuMd1JexwwOxVGRTUKam2rRLQuodNLOxJ/CqR3j2xVd54+13+eDuq5jeRFeLRlGJSqXF2sUTn0ARKLYgVM3NrbF1cje2WzuzSpQqNarWvga4bIgyEDbU9nJ9mSMCNk3iBpZvieZ4aQ8mLrmV+x64nWVLb+Wue+7liRv6YJ2bwI7vNnAip9zYW3MOdflZDvy8iiMJRXhMvo1b7ribO2+4kVvveZB771zIRLdUEg//yg+H8ylXm34kocon6+RGvt1xlhzrMSx78F7uuOVGbrjpfh77zw0sm+hD8cljbPp+O4lqEVCZfiZRKuzRntXriCu3pceSx3no9mUsu24Zdz/2BHfOH0g39SEi9q9j5Zn6hreSjCP72bzqMEWWoUy+7wXuv2Up1y+9nYeeeZBFo4NxSNjEwe3r2J9v+sk5Mraxd/dGNue54j36Np5+9A5uvO46brr3OZ5aNpIw+2x2b9jLtj15jb9VMhdBn50dzspq9IWlaE2bG6JHV3iWNFEH3J0cRRDVcoBWFx266jPs+OMYp8+6MPjaO7n77lu5dsJg+nTzx9/X+7wG8OrUibDew5i04D7uuP0G5veqIi3hAKsj8tA0ESDVxsLeDVdP38b1RWPJW1zb15cAD7uazqiLMDMdMIYth1NrdhJZ4E/4jKuYM76bEEVO2J63Impyju/jTFoaiRlnSUlIIjU9jTTx97mUkpJMel65MN52+AR1oc/I8AZj2CLj9dh1H8zoAd5c9PdcqlJK06PZGplP5xFz6O8nBNsvv7Fp1yFOZGaQnnaWzPxKzOztcO09kRFdpGk9mjYilUm7OZWcw9miYnLyk4k9cZJTp061Ip3k6JFSzL3dcHOxbbFXTlmYQtKxo8SXKijNSyYmsrFz1k5RnD5xQkR6SZTY+hEYPowBFzWGrYLCpBPs2p5K2YCruWVSJxwaCy2EIHe1L+DogdPkOPenb6g/3udfw7VtDJsibR8nYg1Yd5nM/GWzmDB0GCNGjGghDWf4sGEMHxBOeKAbTrXfT4r7tbBzw9PLi06eKrJTUogsFIYkpDcjghqRvyIijT20l01nDPSZfTuLR/rjXC9SFooHGxcfYQysKDp5gKhsd7qHBxLkZlsj8ttjDJsyh8jta9m4dRtbj6RTVK0VztcDr8DuDB4VQsN4+BzS1DQiv3fHY+gziWGNjWGTetHsRWQrGZRaBsbb2wsf/0C8SiPYcLII34sZw1aHQpJOnqFQ70to34GEe12ogyWxfxNxWoNTj0H07dsFP2dPQsKF8Bk/nnETJjCtpx25efloPHrRJ7xHs2PYLo5iUo4cI77QCp+hYxjeqe1WpbogljPi+dK1I5g+s4txvFejxawzYF5ynK0nVQSK+tzNz6nmq2FpDFtqNNtjSuk0/kYWjgrG10c4BHeR56IOS/a9/vmsNWc5HZtOTGo5Wq09Di4uuDjZUL+KnkNTkU3K0W1s3CPsQY4PPUcNZ2B3r6bHAWef4HRULiWOA5kwNrBuT+B5rDBTpBG1NZqMsNHMCve8hDFs6RzdHUtmUQmF2amkn4nkxMnGbFr9JGytOC4Vf3zdHLBrKgMaQVudQ+wfP/BnlJ6waddxzYwhdPVyxNHRCWd3fwL8xfMUnuDo6VTUwf0JCfDAVTLS2mJKYnbw3Z8nyA+ewtLFsxjT1RMnB/FbZ1d8QrzxtCkhcf9pEkoD6DsgAG/7GuuuOHucg3+tY0+uB6Ouu41rxoTgLQSKo6Mzzl6hdHI1UJ15nOOJhViHj6Snu3XNBzTVKUTv3sJvh8T2gXO5Y8l4uns54+jghJOrB51CnbEozSD+WCbZuhBGDvO70HlQcIi9WzazPcOOkKlLuXlmbwKcTdd086ezjzlV2UmcTCil0q0fo7s6msR/GTF//87mPfnouk1i/g2zGBbgbByPKl3TKzQEu/J4UmNjKDK4EDSoO7WatgknzCszRV04SmSOgnIrV7x8vXCpbYvUeaSLurl2XQQn8+0YOncuAztJY0vFvtaOYdMr0aTv45u/omHg1Vw7dwJDhM2yta41VrQ2wnZb2TriHtQJT9tqCuNOE1foy9ARwbg29RsjjbXG1mGRc4htxzOwCB5BeI+2jWHrAMGWS6zI8BhdZ3qN7sdAkVm13KVACLZjOzlV6IRHr5FMmjCUvr37EB4unKsp9es/kD7+wghUq1A7BNN3dH3BFkFcaoEwseIv81KyhOhLSSkWgsfXaNhq6korMtRSiIez0Ww8kWcUbH38hCM1WOMSHEY3cQ8DwrsR5mdNWXYZdq0QbBVntnAsPoHIM2nEnzxJpNTjEx1NdNRpYhMSSRCVITo6isjIKKLFvmhpnzFFcvwwdBrRi7DARuagqYciP4m4/SIPM7OIPRVZ6zxNpUgh1tLIEpGNmU9ngnsPZ5B41rZTTG7ccfZGluI1YxHTQmwbH3NnJhySjZLkjSeItwtjYO8AOrmc8/JtE2xVqbs4EmmJ26CruWnOYLp26UKX1qSwrnTzdzWJtSbqgnUFGZHxnM61xq1HP8Z1bsRtFcQTeTSCE1WujJ4zl/Am5/8R57cRxjJlM8dinAge2ZMgb8eazvxLEmx61GWpnPz9d9b8vZadImrsOqIvIVZaVHlm2Af3ZMilCja9hmrhQPYfF4IjIdkYMCUni/+mppEUK+pXjNierSDgUgWbeRHJh6PIVnvTqZ8k2C5YhsJTa4iIs8WzzxAG9PLCtkrkWWGlaN/iXoWDt1TkEJN4FoN3744RbIYczhw6RmK5I4FDxjDAp+3tQ1+aRmrcKU6XuxE2bhDBTb3J0ZeRvHszexMd6D5hGN39HGuc6vmPDorxHjCNsZ0bDhlpUG2EszWvLiZLCJuoqDNklZQKoZNJRno6aak15ZgslWeisD8xQvwcO8i+bRvYnWpPpyEzmTq+L11dbZrslavOPkXcmQSSyi0wt6sgR9ha4znPp1TSMmKJiRJ1JKWQ0s4jL02wCUFyYFskieI38fHRnBK2Uuo5b9yu1U7CpkZFk+c7liFh3rjZtraBVVNdfJqNP+0i1awPM6+fTl9/27ov4YS48LdNJeJUPBl0o2dIJwJdLDCUZJBy8Df+jNcTOPl2Fg3yrCsUzWyxc3Gk4sQ+4tIUeA0eSKA0rQ6lZMZEsHXDGaq8h7Po1nEECv924ZdmWNta46hNYn/0WYqcBjKqq5vR9xjSD3Bg/w4OKUMYMH0ps7vWCyysPbDWiTyPPEFaiTnBY4aKexdNT+wqOLmZPQdOkOUxiDHz5jGkni0zd3USTiyfxONpFOg9GDg2zGhXzKpPsWXtAQ7l+9N3wiSuGeJddxiOmQPeZnnkiGAjqtwOOyFE+ns1zH97B+EvRDtLPnWYQ7FFKBWijWefJT0tldTkeGKO7mP3rj3sjdcQPPpq5k3qjZ+IZIxtoLWCTatEm3KEnw+nEzb9RiZ0lz4UNO1rFhvjuFGzxJ0cS/Kh74zeeEtfsJr2NsRMiO5jwr+LYCFW3L/JZjabUlJIThK+O0bU19RCnLqOonf3f1ywlZCwRQgqnR9dBopouFMjgu3Ido6VhzFgjlD5V4nC7d+/burXlwGBakrShcNQ+YmKU/8r0UMknE0kNjWeE7v3sP/gUY4cycdr/Dg6i9Cnxh+Zoa8upyQ7geTMIgoLCygoqJVEBFeSmUpKYhzHU8oJHTGb3h72+HTtTs9BAxnYv58QjiL5VnBsexwGIdiGtfCVqLo0k2KNI/aeoXQWUUdIcDDBIcGEhATgYlCgsfYmoHM3evXqSkhQEMHSfmMKISioFwNGdCVQ3EPz9UsaQKxAUa4EHyFMOnemc6uSuB8RRQR37UPPXr0Ibfxzr+apLiQr7oQQHgr6TZpPX2/RyJvIDoOVipzt+4kzD6Vv31BCz0+o1FbBto+TZ4ootRBRZIAFVTl5dcuxyZRPXm4ZaksbrO1tGu+1NBSSejSKuAJbPPoMYmxoI0ODxb3GRp0grsyZXiMn0quZCRulL6NLY/4mItmf7qLOdvF2aAfBpqAs5wTr39tMVnBvug6cypJlY/DPO0tmVCn6zr0ZdomCzSCMXMmBT3j56w1s33OAI4cPcejQIQ5GCCN97BTR2VqszQ10GjyTPoEiIr9owVYsHNwpUqpc8Ordj/4+F05UfmYjEbFeBAweyogwDVkRf/DeS1/w98EI9u3ZzY6TZymrUOLXcwg9enVvf8FmVijE5EniSx3xHSQEm6jbbcVKXyEckLBJZzKosulKsJcDDvZ1X4vqlXmknz7Ilr8PkG4/lPGTwoXNMvWqS4It/TTbI/Nx8ArEy6yC8uJ8cir14uS2xi+QGyDahZ+vyE9HHZXlFRQL8XTy6EGOHIrgQMRBIg4e5ODBQxw+epTj0XEkZVWicwklrNcw5i6axsBgx2btTXV2NAmJJziemEbk7r1EiHoh1Y0LSVxn/zHhtDIodXbFMnj4JQg2ga6CvByl0B0+BIQImyXSBTvZXBLHiWO79htGvyDnZgPrOogyU2QcZfW2FMo6TWLOxC4EOtRT2mY6LK2VRO2OI7nAlW69g+nh54CyIJmovRuILfVk+KyF9PW1MH6JfwEhsHTm6HO2cSQtD0LH0T3QFReLLFJPHGbTKRXWvaaycFwjPZeWeuG/Sji5N4ns6gBGjgzG09aSwvh9HD18ghLH3oyZPoHuDey4uRDwRZRn7+NUngZ7cf6+nuZYmleTsn8XR48WYR06lMlCkDR8yWKPTojQwujjZChsCRo1gmARSZilR7Ap4jTJruEMHjWcIQENB/xYmJdzNiWDQ+kGLL26MrGHSwNBZWbrjpu3P67KXMorcog/fkjUnQNERERw8LCoQ8mFVFj60W3gSKYtuYahniaxJtHqHjY12rzTbDicRsCgGfQPEgFmo8a/ITpFEbmnd3M0J4xhs8Lxa1awiSAz4lNWrf6NlZuOifZ2sF67aCSJtij991hymXGaEb8+Y+nVRsHWyke5CFp4QWsmfTmmqm6yH8xQLRy7TvqurDFEZdbb4ODijkeIiA71opKaB+JuU3f8RnVOFAd/epFPjzoIB1nr65BzSIOTRXJ0dq653foXM1RRpVS3+oMDj6E3c/1Q0x91UHPqo/v5PH0gY5cu5Np+TbvXRtFXU1lWZZxg0CDu0cwmiAHXP8qQNo+1EQbE+Nl6oRA0Nb81WDrg6myHdWvGQqnVqBVKKoRKsxY2rWm7K42Vc8UjyAyr3EoU1VpjHjbiblrGIIygzVliI34gfr8OfStuswY9qipfJt13LwvnDiCksYuLQpdyodlcdPM0jlMwnFFRVCDqQqh1E88hGdizJKZIE/YK0W4tRJlpz6ViYedF0Mi5DJJeuRhFZT5H9RppuHOzBqXViDZg6RpIlzA9HgrhnGqrcL1opyLwKS6vPdLqIjHzxNvWAbNKBfnlVWLDBcNvvKSV1I6lgf81Y0+79OopREqNiTLTKijILxDtvpHSqtc+2oyZJbbaYsqlMY86NYqSAkpLzNBoRf1oS/vw7EzYgHH02beGk6vf45vSxUwf3UMIMtNXosp80k/tYfvaLZzU+BE0ZzR9PB3r9KhL9kivUpCx/m3++6f00YGCit6LuWnJtSwb1NjnZCI/XHrQb6ZIE7JFO9nP/lOx5JdWUlwpTdcgtTwLITisRSDpjXenfgwdPZLhIa1VvJKttcLGwQvvECEsG2ssZnp01QoqlXpjnbxoJIPi2J959/Y3bbgMqFSoc4UoFuWrD/bG1aoxlyjuy9mDTuaWOKZnUlAihDTe6BUl5GdKU0H44y0EfmPDrczFb9w9hUi1yOFsTiFV1SHCjlZSUSx+62BDcJAXjcaAZtZYOrsRqNWSnZxGplJLmKs55YVVlBY4Y9fVG88mJo+2tbXFzc1F+E816WcLRWDsK26ugJKCKspLvXC088WjCeNk52iPq28l6oI00s7CWHFzirwslIoq3AKETXdt4pNG4UMdnJxwKq9EmZFDKUGNPpetZzfG3P4KA+M3sWbbUc6klaKU5q0RAYmrfw/Ch05g7MgQhMa8OKQ6ZGONsDJkZ2VRUuUtBFFrrKSKiqJUziSLC3s44SBN42La0xTm4p5t7Nzx9PXA090WizYMStOoqsRl6s4m0Bo6QLA1IowaRYdOKwSA+JelqJS1f2NuaYlGFGLTH1FoqFYE0XvSddx1+0CamvRc+nzW0sYBe3sn7ETONGZypVnVJWN2PiBsA9IAYb1WmuG/GWMuDLWZeRlVGpEvogGpqsrFMzsbn7nxxxPHCa8jzQdTM7+WyBnFUVa+toJ9iXkohAO72LpcFynHzVEHLuK5R0WkLSLGZp6iBvGc0hd70nEt102pfMV/jL8R/6nZ2GbMLCyxtJLmlGrbp9NGwWYjjEgLUdJ5mnogJ098fDsRWHKYQ5v/ZmzPeYRJS0vVeyCDsoSi6J1sSRP3PLY/Ie4ubfy2qSkccPEdzNVPDTb9LSEcuelf7YGZpT3uYx7k1TGmDbVRlZK97W2eWJFkmjW/rRiE5hNC2yDyzFI4R9FmtOI8OrXk2g1opdUPRF1XC7Gl83fDzjjfiRM+A67lqc8XXqg356b1UNcf0izuqV3ah5lwqlJ7y2Hfx/eyx/isbWwfuODfZww33JVP6ef7Sdv2NR9vFjbiXL6JhiDdm4WDHwHDbuWRWV3wbsxii+Ms7ZxxkS6otcXKUdT9Jsdk1dpu50+vSQtFMv3dLmjRVHsT2GMJjz43jsanE1ZRmryDn59exUHTln8LBrWKksIsY6+fhRQcSMaqAWKbcM52op5aWuRSphTiVOSLpbKcwkwLzLyEjRLl0+gvxfmsbJ1FHc8jV1qBQqr22nIRYBQKnyNshFVT1knUReM1Jf8hRGK5Do2f+F2xUog2YdN6mL68bgRzC+HPbJ2E0FaRVVgsTJsQbNoiijRKSkUgKYnSpq4qfWFsa2MhhL4ZWcWVonU5UlqYiVoEEZaWFuLcTdRDaQJaKyscRECvzSumWFR5N+OhpvYvTakh8uLcr23CpnF91+l1s1u0E+nDJr0IRrWmyFxqOubN3G8DLG2wCO7BYIdd7Nz8G/sC3XAe1QV/a6kNNnbvNdtVWbGc3rWOLeWOuM0aQKi4ZsviSCt0SDB9xi7l7tsG0MxMQ+1G+/j+84iHr8olW3hqhTizpRArjV7Awgb7imPs+vFl7r3tNu686y7uqpXuENvufWsNm09XCaHVVFFJhSuMoemvxpFEgwN2TjN58PPP+fTLL/nyiy/4olb68quv+fTjD1naV1S2+oJARDlSg2qsmKWvYUtSdrD85lvr3HuDdOfd3Hn7k3x9qoqqgkNs/fp57hHPd0djxxrTbdx683O8+OZuRIBTg/ScotLrWkxSftQ4Hgvxr8aPqZ9EPpou0yI2Ntg4CgEhrlNdXdOYGkeIWIrIT9WjdnAREZ2IQk172orX+Md46M0V/PLjd3z3XVvScn5e+Q73zgwnsKlaLuqnQTJAIirU5BXV+VrvAr506TmAqaOhOGY977/2NdvO5KM8/+xCfBRGcvDPL3nls4MU6QOYOkY4YvcOiIUuETMLK6zqj19rAekT+UZ7tVqFNPdYOrvfvIv/3HM7N9/2Al8fS6e47DSxPz7LbbfdLur7ndx5x+28sqGckoxDbPtGah+3cuutt/HAYy/zZ7pUmwTiPpqsby22D8np1UzcLQVotffpzSxEYCS1cSEkpR5kkTTSPHu1ftump7f2xn/wMp5740mWjetBgKswKgbhbCWhaeWM36CpXHP/S7xx+wD8GhFr0v2Z2zoQuuBl3v34c77+7gd+fHIhV/dpY698u9KSrZXqSPsGEZeTcwF3Jy8PbIToaIhUTp64B5hjZSNC6POfOIp6ZSZNOxOEj2vDIE5CCjg9vHxF3TMXIkT8wpRJUpOytbamk3dT3Q22QgNJMxmIf0pC53ycIpWDsxBHPtQaUVAHMzsHXN09xTVEna51TakHxODihK2XG01NO2kv7LWrm7exHpoJ4WREXF+yAVKPkFdT1dDCGSc7R9yla9SJqVLZ8fZLPC385O21/dydd3D77bc3THfcwZ133iWSsAvCNtyy7Fm+25NGmcGmlcNIhFh1GMDsq4PxtMkU/vYdPvrsZzaeyqRUaTqkFqryVE5KU6u8/Raf7tVg5z2WO2aGCtHalNOoT2t0SPvRzl5FPGR5GflaDWofL5xE5WiYx9KcT0qqK0spqaqisqlCMBOVTeWMa7VaROSmbY3QspGQenhssHNwEHF7C6ii+fu7TRyJzxWRujT2RBjs6nKKRGTlUys6qEEIIo00viiHXLuWvyircRiicCUH2OxNq1EprbD3UZheL4irOgxh4RPdmKXWCgfTeCQn5b2VfSmJGzewcUsGpdOX8fwUv5rlk5rBYOmMZxPruTbAWkR8jqJhqjTEZOVh1lca6NPYL/WYiwgyS1gLg5MDNiIvW4eKyvxINr25iuPCiUrt3lzkW80s2lLDqDmqtYif1TgSvRaNxh2vwDEsfXiscfJP411beuHh7ISHqgB1SaWQ4JKZbIh18AAGXnUji4q+4fe4vfz2cSzbpHFxQuxJr/Z1qkpKi8oo1fgx6q57mN7FBbfWtvfLgcgIyahkb3ibV/ZYGSeRbjovhchWeBI+eSoz5g3EXzJIpj0XhTD6iqJc8nMNVIioXZrrrEY41WsHknAylnHNdqn33VFnRXGFqY03eRPiZM22D3FN5UlWffYHhZ2mMmr6FPq7KYVNEU5IXCN94wt8v8+JbguXMmVYF/zMRXRf61ptah/nsLTH3q8noxffR9851aj1UhBliZWVNbYOjjjZNmF2z88DZ4aFEG0OIjiS4tXa1kVaFzZx4xv8eMISoSuNdbw90AubLY2bG77kYaYFi3bXyHmbLAKpjjS9s1mkr8APbVnNugTptbNpYzugVSnwHziN8bNmM7iVXR8WzWamaRiIaNcNH7UmGGgUqT5aNj1IqblrSnbPulHXIv3mXF1pBFHXzCyauKZ0PemeTH/Wx8xc/NZSPGgjBWp8u9LkRaV5PmuGgdT9pSV6VQklRTnkmJ8TXeI8VnbGGREsdNqaoQzSnKVWwgbU+rGyrIjSMihTiDbZ9NM2QJqmyGf8Q9xn8SM//X6YuP0byI07xFYHO6wspXyruYg0SbdGo6SqJJ+iCltce4xj6R3X0tdFiG/jES0jTeNlKfWEmv6+KKTbaeXjta9g0+VzevsBzuYrCBoShJ9PYxLJnm5z7ubOMQqqdDXGu3GkrlRL7Fy8uIgv7OshOQEhFEVta9Ym6MrISTpD9Ik0KuwkwSbuT1ReZ7fGRujb4hI4nKtf92e8MLQXELkvnI/RQFtK0bv0jPUeUtyLXkQwelFZjUt31anh4l51dtg7e19Y1N7cHjcfkUx/No1wr34R2JvlUeXXDV//9o7KnbF3FfdlXsWpI7Hkz6h1j7XR6Cg7c4gknRJfP19c7FtbnaVxjcVknjpFlGjAxjeqNTsuEZHPal86VfVAYdpSgx/Bwd4EeZ/icMIRtsf1YUHPxsb2iMbcZRTTb3LBWxooG3GEmKRCypRCIFhY4egZSvf+c1kwdgh9+obi1YZBpB2PcKbSuKzKSorLzpAtjJTJXjWBjmpVALa9hzBa+vOSCkC0N7sAht7+EgFVov1Jr/prn094PwvJUIskrYBQ2xZIwk2az9BDiAejkTJoUCoqqWosgGupfWiycbY2p8rRE99gD3xqfQysdZFeU1ri6BVAYKBPk8Mr2o4lti4eIkn/rqI0LY6oE6mkZxdRUl5FzTRP0pxzjli7eNMptA+DA4RdEB5NraiiSgRF0uoQ9aeC12tVlGWI9hFlhdCntfJMPIelFTZ21liohRNS6+r5XEk0CrFub42VcFKVKuEkax2g06hx7lRFsDS08DKiqyokL/kEJ045XtrkzPXQKCoodwunbxvmgGx+WSJzYZlraHiMFFCa/tkIF35ZF+kn0jUbx7i3ieBeElyivZj+aoAoV6nHuFEk0SVutqnblcSMca7ORg6Q/Fhz/lr6mXS7dQ/xZvD19xBwVZUIiGu1cSEMbWys0cT+xk+b87AOH8fEif0JstAIC2SBtfRFqVol/KOwAWEheJilkC4EnaFu913T2HrQbeQibg8cSdLpaCJPRRKVnERBmUJyT0bM7Rxw8gghLHwWk/qKutI1mOAQIepqdrcCC9Hesjlz9Fc+KnPHVuqgMO1pERHIqhzDGTpqKBP6ejWvS2rRPktTaYUhFUZk7a4TJJyMRR00nIlz5jCsu3szS1VcLG1Ymip9P7t+/pxf0+bx+FfX0rMlwabN5vTBWOMccGrpvblBgSI/gf27E3Fa+DIPtrA0VR2U2aQkZZFdWEZFVbWxt8hYqYWYsxKK3FH6YCKwC938nZq+p4a1XyAMdmYC0bujyawzXkc8m7WSgpjTnI4rQdl9GDN6ONdt8EIgap0D8O0+kIlhjYnplqnKOMzu7z5keWo35j/5FIt6NvIFpiKRre+8yndRjox/+CnmDwvg/CwJzS5NpUVVmUXs1uNkCEMmmR1p0WpraezERdQjM+HkpUlFNeK59ToHHN26MGRiWB3Hri8+w8m969kQkUGubT9Ghg9h4rxwfKzOTQ9TF31ZJgkJiZwtqEAhOUVheGydvPEP6U7PUNdGG3v7L02Vy5GvvmL173lYTF7I/Y+Pa3x2cSMqVMUpHNoTT6m4ZsuNXQgrvQO+XXvSKzwQN2URZ7e9y9O/XuTi7y2gLcwgKT2VgnIFFUrpFaRUk8VdimjdKGaEUfXzC6O7VxknT8VSbhtKj97d8W/qHhprM1UH+falb8kNvZbpi6YzyPQ+SBKyiStu551NLvS99QGuEXXD75LKpT4GSmP2czQqksgzySSn55BbJOqNEJ3n3Kk0cNnK0Q1v31DCAtzxcrWg3LUbI4aOYkiQvXGCzdroVZXkx2zlyFnzmnUjjVtFXbWqpjwzicjdQpR3G8vcvjXredaMn5MCTxWVeSlEbYsmo6vY388LO1HHz42vk16BWYv7CB00kZ4eF7LQuDTVLydI9Lyep54Z1aSgVWRs5YfHfmF/G5emUhclkxZ3gqh8q4saR9wUUu+pS2BPuvYJJ6ipdaEEhrI04jd9yIvrCnC56mmen9ONAKf6Fk0qrbNsevIVfo+zoMct93Dd3J5YHV/DD8+vJcpnDHd8cCfDnIXQqPnBBVTllB36nIe/PUl+n1t56aYpDNTuZf2K5XwX50HvBY/xyvTGPJiGipyj/PnMh2xWdGb288KO9lJz5vuv+eWXRLTj53H7M3PoZTq6DsWxRG35nhfWF+Ew5WE+u643zuYn+eP9H/njkDXdZi/i/psHNhrgqFN3sfP3z/k2zoe+17/CUxNdyFv7MB//FUtZv3tYsGAOExtdBy+dIytW8tOPyRgGzOfB12YS1oq2ZDj5Cc99mYLd+OtYtnhwjR0z5BOz7iBp5kKgmRnQCoVlViHsblwUMZUeXPWf19u2+HtVPhmpaaTnFlGmUJ0fG29mbYu9kxc+nUIJDRRapY0BQ+7mZ/n2r0PsSpG0gq6ORDaztDHO/WYQ9bBhp4xAV02lx0yW3LyIe2Z2bnXPWfsINqUQJru/Y+l7h0Sk2ovp9z3BDcM8EfW3Uft5HnUp+ZmpxOVq8ezSn14+rRnr1FbB9gW/pl/Ds1/Np5tpe+sRzj51HS8//QfaVqwlKqHMSyY1IZLTZ84QFS3+nVNEqXBG5ydOFpXQytoeFw8f/LqGM0Ao+7AuPenXzR27pgZ01qGM1P1/svzxbzngaFdXVBiEwJHGmYmKYmaMsutUIVGpxPOEjGbwvDt446omV59sHiFEk/d/x3vfnUQz4BZuvmYUA7u4nn9toyqKE6J3K6uX7yc37DrufnAqg/wcLgiZNq4lqs0XkVVuCaVSb6xpW+sQwsMmgDBpCammQiZT5VRnHmHHyi/4ckcJGovpPPvbLQyyt2qnjwbEZf5RwXZpGBRFZG5vZ8FmEMYqP5noyBiSYs4IMRNDVlElpdJXjSLCMEb5QghbOrjh6OFHty696d2/F/0HD6WHh1QLROAjjmo8CzVUFZwl7UwBZZ16MSLUCbN/QrAZ9CjO7mXDD7+w9lQFeAbSOcQPd0fRPoUyqTG74hlEm9SrFZTkppGUUUiFfS9m3ngzC8Y1N1VL42gytvD146s5eM2r/LSg4Vqo+rxdfPvAcnbNfY0V17WuxpQe+5bVq/ZwVDeaWYvD8RABUF2HYY6ldTWlGTEc/PMUyVMebb1gk/Kg/tuHdsfUyJtCCIH0XV/y2K+p6Ec/wHtL+hHkVv+VjogiDDGsuvtDNqS5MuTB21g8vQdmkX+x6vUVHLTry+LXnmKyrwje6l1Kmpoje8urPP9bBqrh9/HEkrH01R9i66qf+OCoFcEz7+PzRUJ9NEAh8nQvPz/4PREWfVn01gPMCNWT9OtXrFhxjJJBV3HDEzcwvJHefH3OcQ6v+5x39pnhM+dJ3prXBUfrODa+t5w/Nlfje9UC7vzPmEbXhS2P28CWlR+xJrs7w257h/uHW1O69QXe//0EGSE3cu2CBcztajq4NppYdv70K9//VYTb8Gt49OmJTaw7Wxfl4Q95+bs07MYs4LolI+liUU1VYQTfLH6NrWbmqEV+SvbAIL1OFe0msFs4k+95tU2CraMoi1nLgVNpJBZbicDKtFEgfemtLYwjJllq98GEhvrhYi7aee2GI9q9yr4ng4YNZFQvj1b3sLXPPGwGDZqqUs4Wq7DSqMDREz9fH7ydatbhbJKKeI79/T2vrTxMZdAExobYtqL9asmL3M3JOHGtkL4MHhLQ5Czd2rKzpEcfIqrQm6BeLuhKhOMvKqKouJjiBqkUrY0TNtJ79HP3YKgQUU48B/YmYOgzkeEtzMOGMokjf37DT6t3sCdVi62LG57efgQGBdKpUyeRAgns5I+fjxCzoqGp85OIitjNoQwL3EIC8XOzN80h1xx6kdeVVJYbcOjSuWaut/MpSJw/AH8/P/w61Z7nLZiQzn64mRvQW3vj02sg47tcXA8bVvbYu7phlhxD9LEjJCltRPQublqjpCQzlpN7NrLm971kuosGv3QpUzq7YF+nNrZlHjYF0b++x/LlP/Lz5r3s3rmDnTt3tirt2rWdzVFmeIcGGicmbfQK0kZtCWdjjnA0OoNCm1B69ujL0LFheAjj0G4Bf3usdFCHSrKOHycmtgrzFudhq41wrOlnySrXYbCywb41y75J4zST9rM1shDfgTPoG+SEaNaXgBAymcfY89evfLdyNwlVZti7+OPl04nAwE4EidQpMIhOAf74ezoJsa2lMi+Gwzv3EVtkhp23aEMeTa9BLL1+zDmxgV/eWs16+4Fc088Dc20WJ3efoNKtF2F9wi70zomouDh6PRGiXHwGDqNXaPu9EdBrCzn143v8HGPAvvNwps+Zy7z5s5k2ZhhDhgy5kIYOY+iIgfQOcsfRQkFxVirRx5OEvRlFNzchWpu9H5GXhVnk5eRTWJlJSpwIlk6lU+gmRK6zyLfyEgqFvSsuLqO8KovU+DiiT6SQ7+pPmNhfVVaF2twaK1urJq9TnSVNnHuUI2eSOblzF3v372d/nbSPPbsPcfRUCkX2DpgFj2BO31bOw9bA2AuPpq0gV9TRIpWww9a2xjF8l0YLBWqmFn4oi20H01G79WPiwADcTasRXEAEvoo0IrYeJak6jP7jBzAgyAWzyjxykg4SV+lK2KjxdHVt2K4lMV4YvYE98Up8B1zFiJ5e4vyVFKSlcOhMFfad+jN9oHcj9VmJIjee/bvjyLMdxJQ5vQm2d0SVF0lyaiL5dsJWDR1ESCPBk6Y0nbTIvRzPt6PHmHkMDxJix8Kc0uhTpCQUow/pSv+RYY1+eFCRHUfckZOk6gMYNnU6Pd3AviqFg9FnybbsQo+e3ent3Uh/kOIscSdPcSjPCs8Bo5jd37vRXiO9uoryvHQy8wzYuttDZgS7jhVjEdybvn2DcDfXi7YjApiMciwCAwmQ/Gag8F++kh/RUG3hQtiwSU3Pw3bZEPfv3YOufaVVdWq1Z2MazDC3dE5GKXAZdjXLbp3NxDr7RZJW7BnQhWAve4RbbvXDtI9gs7DHzr8Pk0aEYJYUIZzxPrJceuIf7ItXc90UqkKyks5wPBtCBk5kZLBNKwSbjpKkkyRnW+LYtTcD+vnSVI+3tiyLjJidHErL4MSWLWzbtq3JtGXzLso7TyDM17HWRHsqqguTiGilYMv4+0NW740n2WYQIybP5/obr2HeVTOZOmkCEybUShMnMmFEP3oEumGtyBJ5ICKisiC6BQsn5dJYNa+NFfYeQfQcO4bRo0e3Mo1jwvieuOZlkJGqxrzPECZerGCTImo7NwI7W5MTl8rZxBMc2rOdrZs3sk0Y7pPJRWg9RAMbdwt3Tw7EtYECbYtg01IYe5j47EqU9l74eLrhIi2902JyEo1bRGXOPRk8uDtdfZqekkEhHPaGP9aypTiMMdfdy0PL+uHTnmJN4ooQbJJVSGX7c6/y4XE1VkFh9PFpxeBQrYqq7CiOpasIHDiZ3gGOOLRURZtDHcP+detYvTEVq27DGDt3IUsXLGLOrElMrt1GjO1kHOOHDaBHgB260nzjZKNZZiLY6dKVwCZ7+dTC6SRx5mQu5b1GMydcCARtJid2HafStTdd6wu2qHUcSLQRgm14Owo2FbqKk6z/+jBpfldx532LmN4/AJcm67lo054hdO/bgx4O2Rw8nkK262DGd3VuZjoPiWriVr/Ht998x3d/7ufwqVQKLIW4SDtstGlbt56zb1uN9m3fsWTyRdmZZRxhx46trF97kkrvLgR188W1icuoCuJJy8gmV+2Ou7trI23NBVdX8V8n6SMJV+y7DGWq8KYXNXGu1ONWvp+vnn2L9XneItgS9+bcLgXSNBbSOOJ8EnadpqjKk96juuHnbFPvzYUWQ9ZR/tgTR65PX0aP7EUPb3vMVGWUZu7nSGa1eO4pDPC3EeVl+o0JnbKQuJ1/cyzLlh4T5zAgRAQ8NirKslNJPpJJtbk/AyZ2M07hUudJ1aWUJB5m7bEs1D1HM3tUKG42lphXJJKSdpJ4afLpsHH0a+T1UnlWHJEH9pOkCmDozNn0FuLG0tweZY7wm2fjKLT3IajvwEbEnpK8M8c4svcsJS4DGTNnMEHCf5uTR+SJZGIK7fEPCWFoY7Ou50Rz7NhxTio96DJiHJMaWzVGoMqNJGL587yxwpJe8/rhXnKayEQV9qG96dMzAFdzaSouH7oLHyktSVdjC8YzfqQQc4p09qZqjRPnSs/UwTWjBZq/enXGIfadLMbg151ekhBt7vA2PEi7+iUcwrhq0UQCva2ITUgTKrqR72gvGVHxr3mK5756iUdu6I+XaWuTmAnnay4Nxq1ZfLapJI2L14lgS1/7LWKbSOHMsSJyLMYz66ZbeWLpCHp6u9Ssg9YI5o6+hA6ZydLHXmBJbydsj50iKb+ICtP+pqkg89gaPliwmBtuuombWpVu4LrrHuX9LSdIdmzLoMomMLPBPng6/3npARZNDCfUyxE7W2ts7D3x7TmFGbc9wfPX9cTt0lRJDaJQlA79GLbgKT7+vO6ULI2nz0V6lZvDHXCzFMa42fIsJlGIzjOJHnTuPp75Y+stufI/h7nxlbmttWXdyXGbwUyI84Bpz/DpF19z1xgfvC/1g4qMJDLT0zF0H8G1Dz3GrZP7E+xh2US+W2Hh7Efn4Qu455nrmdHfh4LUDM6klZv2t54mv3Azbm96EPZFYdBjqKqg2FxPQP9eeDk1qS7rYumCc+dwBggjVFpRYZxKoSXMrWyEbbPHXhgwWxupp0yav8umURtXs188qzS+xtZWbKt5zdTcs7v0X8x1T//I99821tZqpa++5suP3+XzJd2EILmEbjFpjK+Nbd03HR2KA9buXenvb8Cq9DjxWVWU1hvXbtBoyIk8RoGqGr8+3fHzqvns1NrJlZAufTHT6YmMjqFCVXt1dwkF1aVxnIw2R2M2it6h9iKAlbZ74+kjgm63MtT5IvDK4cKQGRO60iKyYiIps7Si88DeuEufqAocfUMI8A+jorSM6Nj4OuOmaiigICuFmHgPbO1H0K+zqFam4ugU6od/J2sKinKJTKis2Vib6lSyz6YSo/XAvvMAejuI4pC2+3Shm5srgZkiIEhMJc14cF2yU+LJzMghwNuHId2bGqQkkD40srYV9c8CM70O2/638/Q7L/PItUMIaa7aqDTGifQlsX9ZqsUlcmGgWc3HGO1F+4xhO4f0BVrJTj564Rf2aoey6Nb5LBjccCzFecpOc2DtCt7brWDYTf/l0THOFzW4vCkMOlHIKtFotK07qaWtI7bSbOvnDjeICCpuE++8/Df6FsewJbH5yfdZXRnOhFsXcsOAxjqcG6OEPa8/yHfHezPtyeuYNbhTC70lFZw9solfX17BEVHppYlHW42mmupOwxk493ZendH4FJhtQydOqUJ9flBlzZdoVtI4uqZ6Bto0hk3J6R9e5ofjDvhPv477Z4a2cnBmIQfefIzvckcxa9lc5vb3ajwy0caw9aufWblHR6eZ1/PEsr61Xq9ncfDTn9lyOJ6z0pd1pq2SiHDydDbOfG/WXMsx06Eu8aXvtOlMmWxP8e8f8d9/dAybdLPJbHr0HVZbj+aqpXO5VgQKl52EP/jhl7/YqxnG0kfvZWJrm4nuGGteW85fpb0Zu2Qptw9u7MttCdE+Dq5lxUf7OTP7Ub4xjpnSUl1Zjd7CBmub2pNkG9BVSx+PmIu2b2cc+9k+EawKbekhvrr3K/b7z+X+B2YxIrAVKwtoc0nb9QMvL4/Det6LvD43CNdm54MyoK1WCF+mNU5T0qoqJalWYfLT/3qEL7ZY0nnhPSyYHU5Q+4buF2jho4M6SP6jbA8fP72clJ43svCaSYzwv6SG0ioMqlLydr7HUz8logycw113zWZ86DlLoEF/djPvvvorR/K6Mve5O5gx0N80SWo1ZRn7+em5z9iv68T4u59lyQhvXEx5qS9N5PCvb/HpngocJj/Hcwt60Eka2C0wFEZxZN3XvLmpEs+hy3j6wfGEnDcy+Zzd/yeffLKXTCG6bn3rTkZ7WJmGy5QSv201K77YQJqw5fP+8xTzhSg7h+LM36xd+RN/ZPjTfd6T/Heuz4U6rU1k/8pV/LQ6FotBV3Hj40sZfr5a6sncvZyVK9YRZTuAibc8y839L1jb/J3vs3zNHg5ZjGLKwlu4Z3StuVLy9/LLN6v4I9KOvjMWcf9NQ5qc5606+zgHfn6H707P4tGvFxMuxH2rbLo0/lqlQimUrY29Y91X5bpUjq39m9/+OkmJsNXtVpWlr+tdRjB93kwWjw5AX57N6TXP8fVRK+OXps1pFYNGiaJaHCSCJ1tbayyM9rdxpC+0nfw6M+bmZ5kryrK587bvWqLSheyqydx6hJRqLzqL6LJXg7VEa6ESFTM+ioPpeoKHXcWoTheX1VJWNPaM0txnFlYiWpMERCuS9EWWZM8u0JZXok4Y8g5wJuU0p5LzKVJZ4uLmgbNDEzOvq0vJiT/Crt9/YtOpTIq7T2PGiJ6EubU01F1NeUYcUccLKJ1yP+8+uIQ5s2cx86qruKqlNHsOc6aMZWxPryZ7/tqGNC2DMCS18tC6xd6btr0SzY/cw6lce9x7DWJE59YKDAP5hzZxvCKQbv170MO3iVeiulwSDkcSVeqI97DRTKn35WzBqW0ciz7NmUIFVRVllJVJqZTiwkIK8vLJzxVJ+m+jKVtEnFa4h/UhvL8DqphD7PnHx7CVkLT1AKetu9JnSH+610xF3naaanCtwVZJXmo6UUfiycgtRWHlgIerB/WXbzxPZQEpsXv4+9eN7Dl+FodeIxk5uj/n/WkDRPvIjCf6SCZFvScy3zjhrLQ0k2jfVvW/NhYBhqVUb4UgPz8HWnsgXJCFg9D8uzmWlExMQh4KM3tcPD2beC2qoCg+gu3r1rByS4JwyZ2YtOgq+no2PbasBun+rUX7s8W2VhtsTapO+JtD8ea49B5C7+4+NasqdAhtWUtUVCxVOkd2nKTUbxiDBgbjdxmmyJHmHbP1CcQ9/zDR8QlERiWSVlBIfk4C0XvXs+LP/ZzO1NFz8R3MGRaK/3kRbSnEgwtBvmqiI06REB/LqdR8CouzSDuxl01r1rI9roRKn1ncfeNIunnYnO81NLN3x8nZAYfsCCJOJ3EmOpms0mJyk4Wg2fQ3azafErLNm2HL7mBWDxfszjsRWzw8xe8sSzm1/wTxiWeIyiymsjCFqJ2b+HvDdvbnOOMZPpu7FvdDVKELmHvg4ybquTKdg4eiSD5zhtSCMkqyhA/e/Ccbt+wnhq6EjV/Esol+1O6bcOgUhG2FeLaYo5yISyIxKYfiilwSI/5g7frd7I1U4D9iKrOvmUh3x6Yrk7Yih7NRBzmZ35sJ14bj09p6J/XMiXKS2uqFgMuEIY/Ew4fYtTuaXGUV5UY73Q6pVNQBjR+de/dkSJgbBkUx6Qd+5O/ISkpKyygvb+Q3plReJXVkqKmuqqC8tLTRY86l0uJC1OZ2BA6bSX8v8ajN5En79rAZLXkSfz/0Nr9X9GXKbdeweLhf0wOEy04T8fdq3lqfTkCPgfT2lmaNFmdpxR1JX3jZ+Pem59CJjApsF/XRkDb1sInKWHiMPWtW8vvedHIsO9ErTERizvbGz+drqBGE0iLhamU5pQXZZKRmUuk3mfk3XcuMPn6mLvPmqODs4b/59a2/OdVtMBPDXJCm8mldKRqEmhdC0rsLA2aMpus/MV9YW3vYfnqdlfuEcfAUIiPEGfOW5rqRTmVQUXD6CLGWU1l66yxm9Wuih00TzebPfmJFnCvdFt3OsxNqv2DXC2EcS3p2IcXqeo7eeAPSl4rNIfJa64JvWFdC3PNJWfsZr7RbD1s2ER9/zM+/5GAx43oee2EyQaY9TSPdbTKbnviQdflWOHYLoZu7tYgUW99Dq1F3YfQ1w+kd6NLoBMOto5ri+P1s+WMtaw9lYxPcjc5+3iKwEcJDqBMpn6UvQI29LVpp7doKCgrSSUwsxaXvNGZfO5eJ/Xxo2idI7WODaB/rONWlHyNDRMAona617UNrg5t/d4bPGkPYpbSPWl+JrjtVgcGjE51D/Zv/SjQ9nzKrLoxfvIzFU3rjLWzBJVWTZkhZdQfvr7cgeME9LLzCetg+ef4XovS++Iv88ncwa3Hy79q4DZ7P1HBfPC6igakyjhCxfzvbd8eSVi5qoYhqpRUGDM49GCUCrQljR9LVvZFlktQ5xO7ZwbZteziSpUAvAgNrabUMK09ChkwUvxvNmD4eDb861ykoFW1hx64d7NqfRrGlHZYWIqDVOeIS1JfxU8cyZlhfAhrUQx3qwkSObt/Gtr0HiS61xEkco6nSYu3djd4jJzFx5EAGBjc2ultJaWoke7ZtY8+hk5xVOeNorRPCwgy3Lv0ZOHEKYwb1prt7wwqhLkokNmIr23Yf5Xi6CmsXe9Gcy9E5d6fPoNFMmjScvqGuzdqG6uyTRKx4ha9OdCZ8ZAiu0jyloi20roTFcXo7bB36MPWmIQQIZ2q8S4OwEWkZpKQJ4dNAzV0Coj5qrX0IDAmkiwj6pXV9S1KPcaagqfnxLg5pzkkrO2f8ug8gWMSXzdXcDhBsiax/6B3WtEawlUayf+0qXvzlJHYWotI0t6RBPaSvTRz6XsWMZY9x9+AWVc7F0UbBJiHNRxd14ijHpHmXkjPPz8N2/tFEpCDNjOzo4oFnYBe6d+tB557DmDA0AKfmw2kT5aQfXM/Pz/3AQRHpqaW5wEx7WkaPptqBwH5TufX1+xj/D7wRa5tgUxC5/BVWbjnCcWGUzHStfVZpqgELNH7zuO/eecwZ4N28YIt1qRFsE6WVG0xIF2q7zW+ckmROb2zPaT0qyTx6lOjTlZiH9WH4mFCaekF4AemBpLb5HutiUkgXGWJoMDlQcxhQVo3lno9vZfYgUVdNWy8KYWCLU6PZv/8UaWkpJKRnkldcToVCc2GOJKl33NYJO1dPgjt1oUtYMD2HjWdQV6+mp2kxciW1D2ketn0cjYrjdGKCcCiZZBZUNpiHzdLRDT//YEI7d6Vbnz4MFs429FLEYiu4YgVb6Q7ef+pnIlJzRElKE4yb9rWIKGXx/6DrP+CZeb3p3NRXFC2gL0nizOl4ErNKjStzWNq54OHfjfBBXfFttt6VkhEZRZy47+IqUb4W9jh6BRHWsw+9m5w0sAZJxJyKSiWzRInSYI6Noy8BXXrQp7df8+1amU3siUgSc0qpUgllae2ER2APevUMI9CluU4MUc+LksQ1RUCaq0Clkz4kc8W/Wzi9ugfg0Yw7NVTnkXE6iuj0Isqrpa/NpbWOw+gd3oMQN2Gjja2t6byvzjzOvh+f4KODNmhUGuM8gK1vn0IEa91w8ZzNs6uW0V/UI+kpm79iOyHJpOa6vi4THSDYElj34Lv8UdGPqXdczeJhfo07SwlFBvHHIlgTkWEcZNoWDFoVNp36ET5qOuObHa14CRhKKYnZwBsvrEV/3Zs8MiME3xYEWw0qFNmxnIxMIkWa2bzswszm0kSrNtI8bJ5++HXry6DwYNq27KSSwsQT7P9tH4k2LUyb0gCph80G98DejJG6rjvYKTSKJNiSN/Hak6tQXvsaD83sSmCTX4Kpydj9Bwei00hXWbXtNaJBh8p5MFOmDmJwiEvjDVp7Wgi2H/klxoXuC2/j2UnNDJa9BAzCCUSv+4SXNrpw47vPMjXg0gRbA9sh1a0WzycdlMuJnzZwLKuYUmlQd82OVqNRdWPC0tH0C3a7hB622lRTmhRFZHyycByFFFeo0WqlRzFgZmmJlb27cHr+9OjSh/C+vufHFzb/uFdg+zBUUZxymujYJJIyhRCoUhpXXZGuV7PSgRfBoT0J792dILcOsmX1SF5xE2/9ZUHo4gdYMq8fwR0m2M4Ss2EVH/4Qh2LOk/ywNKwZwSZKVnGajSv3k1hcieYiXlO7D1/MrAH+eLXKTstcbtTFqcTvXcnmJJt6wxNag7QKkLQ2eD9m3zWSwHM9bP+P6ADBlsyGx97m99wujLttEUvGBddZC682zRveKwAhLipS9vH9F3vQz7if60f641F/ZsTLzRWfaS1gUKDMjGD5x1upnnwvS0cF4ePQxAO117M2dZ7KQ/z1xUp+Tfah38I7eGpC+y1MVBtDxVmS967my/2OzHroVoZ7CdH+ry5Dka7U+/+3t4/LRObmF/lxtwX+UxczbXxX/DpMsOWRsn8rK/9Oo3rsMl6aEYh52z21zP8EcuO8VDpAsBVx4N2X+eVAFV5XLWHevLGEO4mI2cr6Mn2mLSPTPFLvrFoHFUd/5Ic/dnDQYhTTl9zBbQMvedFaGRkZGRmZDqGdBVsNpfve5L3fojmdq8PazImAnmNY+OgNDGvyyy4ZmcuDJNZK973LS6sTyS9ToqmyJmzifK69fT6DWjHzgoyMjIyMzD9Bh3SEu464leumD2eAt47S4mLKyhWo210WyshcDAYMqkrKSosprrAlaOI1zJw7TRZrMjIyMjJXNB3Swyahq8gnr1A4xUoDNg5u+AT7GheDl5H5R5E+1S7NICVPBBF6aRJcX7w8nbD//zZ6VUZGRkbmX0WHCbZLQrqj2uPd6v99qbT3+dpER1283nk74jL/aL5dAv/W+5b51yBXsSuNf7ZE5PrQ/sh52t4rHVwkOlU5BbG7iYjUYBfgZlxNoCL1FNHHEkgttcLd37nhpIOXgpmBqtwEzhyJJDbLDLeg9pqmoBGMcwslsCfiOAUGNxyc7LHtkJ5GM1R5McSdjCUxX+RZQDvnmYSZhqr8VGL2nyJG50awh+1FfJp9OVCSc2IvR5OrMdg74upg1WRDl42ATNvRodMUkLAjguMVdri72GN/fnJsmSsD0aqrcjl75hRHz5Ri4+eDk2VHtXXJipSRulfUhzwdFg5OuHaMkf9/RhnpBw5xPEuFwcEF9/ZZnudfTQf2sGmpLi0gL7+EsmptzYLDLj4EBbg2mOZDXZzCse8e4I09s3jouxsZ52VD8prX+P6nJEr73sAT/23dTO7akjSSsoTo8w3Ax9OhGRGm4+ze5az8dAuRLot59qtr6CG2Nt6YDRgMleTFZVCs1aE1a27NPgN6nRVOXj74+LtjnK1Cr4HYH7nppT/xu/pVls3qR48OmrC2OOJDli8/Trzn9Tzz+lSCTdvbjwqyDq/lu5f/5uS8F/j15h7GNTXbE72mkqK0FHKrW3leIYh1ls64efoQ6G2PudF45rP7xfv4PHs8V99xLQsG11pPrz6acory8zlbUIWFRVucbiNl3SFoUJcXkp5aQPVFq2Ppd/b4dg3B3da8yfnXdKXppORWoFDpL3LqhZo8cfbxw8fXtc7SNv9bqFFXHOP7699g3fCHeP2WEYT7/BOTGso0hyFzH5tX/sTXp7ty1wePMdmVDgowpdl9z/D7rS+xwn0Oy26Zw9yerTfyhupSigqLKauqRqnRGaejM2JmgbWNAw5urni4ubTTcoI16DXVVObGk17axkBD2Fu9pR02HkH06NA6L2VCAuvufYWfrMYz/5YFXNe3dQvwGVGVUVxUQmmlAqVaV2tlAguspDx1d8HDVdioNs2B+s/TYYJNXxjDwe0bWbf9GDHZwhk6eeDXdybXLZzCoM5uONRy9GohtE798iQfHJjG3R8vZpSnNWnr32fFqhTKei/iP0+1YnFrUZHKdv6XR7/Mp8vSu7luTjhBTTZOHVkRK1jz7U5OO1/No+/PpqvY2vjhWvTaKH5Z9iaby6ooNa9ZSqNxdKgU7gy59kaW3DaVPtLM2JJgi1/FvW/9jc+sZ1kyrQ9dm/haVqcsobxSNFhrR1xcbNs8sWnJkS9ZseIUSe4Lefj5CQSattdGWpRWWVlKucq8VRM3Wzi442pvZVq/rZKc4xv55e2tRF31ON9c17WdBZsBRWEkm15+ip9SLZHWtW/xHnUqlM7DmXD1Eh5b2BNrY0MvZP+bj7O8pcXfJYoOs+HXVbz9ZyxOds1OZV4XMwMahSeDr13KdbdNoVdHNXxDPjlH1/Hac2tIs76Yi0gBhyg/y+5c/8GLTA+2bXJZp8o9r/DMDyeJy67GpkGPkQhUhLczkwIWUf/1or01bAZ6VFWeDL/uJpbcNIGel5Inot2oq8opUZjh6OEmDGtzgVIttEoUlVVUaoWYFkb5whqMdTHodagrCyhVtjQ3uzhWPKuFnQuODvbYGZ9JCLbKU6y88wM2Db6b568fSi8RZMq0M3rRtquEza1SC6HVbAmJJArazhVPJyssTMcasg+yY81qfozrzM2v3c84l8YFm0HUNWVpMRUGR1xdhRhpKnDTV1NeXI7CzBYHR0eczq8pKgm2RNY98Ba/u01n8dIZzOzW0pQIog0J0VSen0tWwiEi9h8hMjmb7FIlasnwiRppYemAq09nugzpz8gBw+nV2RcvF2vaozNXmsD25A/38OZeazTGZXgaNOZGEG1Qr0br0Q2/mQ/x7eJQ0/b6CJsjyq6yoAylOK1e5HnTpScda4O9iyMOws9c8HnS/SSz6bF3WG01mquWzuXa3i2JYHEurcjTgnyyEw5zKOIoJxPPklWiQKXRS3cvNLAdLt6hdBncnxEDh9O7iz/erjZYt0OeXg46RrDp09j58ZesP5RAloUDtpJTNwghotNTZT2We15YzOiQC2uOtZdgK9/7Js8uLyR04a0smNGLTk3WkrYKthhW3/0B2yvUKKxrFu5uPNeEE1C60W/WAuZfN44ebRRsBbtf5asVuSjCr+fe+4fhb9reWloj2BTJu9mx8m2+OeGATbMOVTyg+H/AtS/z4IzuBBtXI+h4waYsjmHn+6/zW4YFOkPN2pJSZtfPbkk4SBiEYKt2HMiomfO5e464H+ORbRBsxSfYvm4dn29MwMG2tQpDqgCiLlS40n/OQq69cQI9LlqcSAZLRK0iBJTu3CCiakuRp+dz1VBE/qnNfPjWRs6aVgOpeXZxfP1MqcX5/DEKK0ssLMK49uVHmdDJpsnewKqDH/DG6mgS81RY11uTTzqdXiciVek+RdBiYS6tr1r/HvSoRcAycP5i5i8aSddzeSLuQSfavvFYKeCRUhP3cA5DaRKn13/GyxudWPrG00wNsmnV6hCGs3vYsPp3VqX04LbX72VsE2vzaSvyiPr5Lt7da4VK23zPi06lwGPi3SydN5NxwdKB7SnYapW/VM9FRhv/Z8ynWvWgMUS+6qXfSr8TbcVY5NIi2Y2tECAdI0Sq5JvNpWW/WiqAy0bN8+vOdYGY7s14dyUn2PXXGt7+IxbH5oIpybdYO2E2/hE+X9oTD1O3SesEmwFVeTzbX3+OH3TX8dhDUxns59B4vlcd4Jtnv2Gj+SjmXb+AGwecWzjqIgSbvpTck9v5+fPVHK2yFG1etKfGyluUm14KLqrV+E64nYVzxjI6qPmlrs5zrt0Jm2JR26YI1CXpRK18RPhc4YWNdU1sbMaeSEj1yyBEZrVTCN5T7+WTa5p6hyO1j5P8cut77BTXV4rnaloPaVFWDmTWvQtYcFV33E1ba26mjYJNLwK8uD388OEvHC4XV7QUtrS5PFWq8B6zjKvnTmZi58amCZDeGNTYPKldSW3yn243HSLYUtY+xzfro8jyncXUuXOZN9AVs9J0krd+y/vr07GZ9gj3XjWQPp41xdh+gu0to2DrvOgWo2ALMO1qyEUItjveZl3XJdyzcBSjQx2olmZebRRROS1EAxTO1fh0bRFse97g21+FYOtzHXffOxQ/0/bW0irBlrKHXave5dsTdlhIhs60vSFij/h/wIJXeXjm5RJsAlGOWo2I4kRYZm4phIa5MOjSQsomQVODaDjGpZXEsWKf3swKayGkLxiFUg69/RDfZI/iqpYEm2TUtNo2LYJuZmFN9fEv+fDneFR9ZnPDbZMuXrCpi8kSguy3VSJPSyxQDb+HNxaGE+h6bgRijaPVqEU9lP6UBJ0wRGZ6rcgTyVkbD6qL0WlL+WEQBlv8zniMOZY21jS7XK1OI6L72q8PLmBpUcnBz15m9cFUtMNv4dp5s5gUpBPtoP7BNeUm3aMxzw2i/hft5aOXfieqVIlj/9nMvmoKk3o0/3rDUJpMzIYveG2TE0tee4LJga0UbJl72fTbH6xO7c4tr9zNmGYEW/SKe3l/nwWKailnG8vIGmoE2z1cf/VVjG9vwabLJHLLRjbtPkF8XhV6cyGovbsxYNI8rp7QDY8mdYqOkpi/2bx+LwcTCijWmWPj7E9Qn/HMXjiJgfWWuDIUxHB80zd8uE9Nj0Uv8dA4D+zbtNZbB1GZTty+tfz0xwlysSHomud5YJw/7lJhFx9n51+/89aa5gWbiBuwcHTBcvyDfLjoYgRbAjvfepGfdIt5+D+TGeTblGCL4LsXvmOz+UjmXHcN1/e/WMGmIz9yM+u/+o5tJU649ZrEtOlDGBTcCU8HK+E/JFsn7kC0cVXZWbJiDvPbb9uJz68WQkm0vbkzGN2ic6hGmX+Yn5/4gaOj7+epa8IJdb1gpCSfG7XyCd7bN4nb313AQB9H7DSi7Zv2N8QCG9tiEjavZdXP0WTPf5QvmhVsJ/j55nfZ0YJgE6YKDUOYc8fVXDO5a621U6X22BbBpqcofhcbP/uCTfl2OPWYyORpQxjaOQhvR+uaPBVBjXAmqMuzyTlzhN9/20ZMdgUe45cy75qrmVRfMKij2PDlGjbsT0TbeSBDpixm2cRO7T82vA006ccuDlHcQtwci8jhrMMkJs6cxjVDvHEQDs7eows9Z9/DjUOtUR0+Tkpehek3YG1v10JvT2swF9qoUlTzdIrLlFRUmja3IwYLG2zshBI3t8LW1raJZIP1ObF2RSItoOuEo9tMHvj4Yz78+CM+/ugjPmqQPuYjsf+Zqzrj39Q7tI5AWhzfWspHDYmrX+e1R77mr2P5aGvlr61NOjtefJanXt/MiWIrdLm72fLxPdz3n0d59FEpvciPMQpKdFKEZTpvU0jixsradO7WJel1odQbd+latZSME9v5/au/OZpeTGFhAfnl1WjqKCYRIZpbYn3u+oV7+ezNp/lofSTp2rr3dT4pT7Px+1d5+cvfOVVxbnsLYk3CQghfm1rnOZ+syd/xNZtjC8nVWpJ3bDf79x4mTi3KosGxov6fE2vn0CkpKyykqLCI9ENr+HPzZtYlCyH3jyLlsaUQtCNZ8syrvP35p3zSaDv4iE+/+JpXb5rAUP92bgfCIfzx0Zd88/M2Ysus8ezWl15dvDDLOMauXz/ghQ93kVBQbTr4AgbhjHM2vMEHX69h3alKzH260rdPMD7mOURtX8k3L7/B7/EKlLW9rwjOtColVVUKqrW1g59/EN1ZTu3ZyHe/HCCpoIBCkUoUUnBm2u/Sm+HXPMI3X33WaLl89NGnomze4r+PX80QEWgEePsYew87FpF3wv5b2dbukZFquy3WjfXmNEZVMumxJ9hV7oXXuLt58p75TO3flU5eQjTZCx8jtUEb0bbspIXVu9J91DU8/NI9zO7tQeXhU0SdShUipwU0SrQZiRxRaOjatZMQvE05WEvh0+yEjxZtv0Fbrp2kD7fsxH0Ju9di5RH5Y9+faz78kHc++bjJdvXxp5/wyBRPfAPtxLXtzq8VfFEo0smOO8a2QidcxtzF4/dczVWDehDk7XQhTyXfIfLU2acLYcPn8+AL93D1QH9Ux6M5dSRRtKp6SG9RykopLiwmO+EIBzd+xxdHyi/0Bv8DtK+ukDrrsuKIKlbg2WMAfbsG1Rr4LxyxYxCjhw/GzRDL1p8+5K0P3+f9997n7fe/4rdoS6MRMb3JaTtmpaTHFaJVK0lKySIzX23a0RySMxSRu/FftWm8QAzGSt1aff3PFWrzSJGGBRaWrvj6+RHg54+fvz/+TSRvp/YZM9E2pLxTUZadRlpiFnklShGznUNEgXohxlKSSVZo0ZlZYFaWTWbSKSKjo4k2pgQyy3VopFeqpl+1N3opWpNeCZpJrxxMG9uKIovs5FgOltviMHwZDz//Aq9d0wtfp2Ze/9gahEA9S0pKDhmlpm31KUgkMzGbvGLh+S51aFXxGfb88CafrzlMvNtkFt99Owv62VG0bTlff7aCv6PKm4nKBaJ8cBvKkief46UnFzMuyJbCqHjOxGY2/7vziMheGNzWLpZvZi8EtVCmrX5vYHDCMyCIYC8ffBup/8YUEICPmwP2zRRL2ykjdvVv7D8Uh773TObd8gD337SU65fdzj0P3M6soFLyI39n5aEUUi/EtqL6V6NK2MT3W04TWd6DiUtu5s67buH6pbeJ/97Gfdd0QZt6mq0/bCa6UFnLsUu2ztTzerH1tb3JTSTtzEnS8KTbvEd5/rnnuGuUNy7n1mu2sMXexZNOIv8bLRd/H3w8vY1rERcL4RHs74ZVi1HJJSKCdrvsw0SseI8P33+Pd98V6b13ee+979lRVEGlyN8WJWNJHvm5GWgd3Rk0ahjB7o7YS73mpt11EeezdcTJZwQjh3jhSxHF2SWi9jSPQVlBTlK0uJ9+9A1zxLFJOyC9HtQLq9oaTK/uTX81jVTXbHERZdScb/HzccC8VJzP1RNHV6eW8605ygooyEql2taZgSNH0sXLWbTXpvJUtAMbexy8hjJ8sC+BVsWUZBY3zFOrroy57l6e/e993DyxC2Zn0zl9JIGy/xXBJo2X0eRkUqT1JDhUNKQLL6TPY9k9nGCHamG0I9i1cSMbNm5g264DnMy5lOISpr9ARKVxFVQbbCiPPyic9xnyTHsbRzJeVVSVHWbdql9ZsXIFP/+4niOp0uDTRopZRG426fvZ9vuP/CaOX7lyZaPp5x+/Z+P+SFIrO9hwXBKSaBOCRvyrdU7zciPlnRNu3sJgO0qvRWtHrkIgVZZRamWFwcUBa4MW+5CxTLjxRZ5/+gmeeFKkJ+5iVpgtTuZ645idjqBaWYZGbYedjROOF1t1iwspKshB5epNz+EzGD94EENC3ZqfIsLDEy97e+GexDFNXleHhZk9Tk4euLc0TrcxtOXkxB9i99rv+ebbn/h9UwSZfjOZv2Ae8yfNYOGNC5k5zBuLmA2s/ukbvvn1D7YcTSKzVGs6wTmkzBf3ae1NWL++9B03mWE9OuFZKhxOep5wss0hylwSw/ocDq/5iR9XrOTXRtpbnbTqN1b8vosDSUqsWx1l6Iyv4FsT3rUbehX6jEOs35dAhtsARk2eyoxhYQQF+BMQ2JneIyYw65rJhFvkE7vzFHHpJaYfiqKpyiFu2zYis23pNWEmUyYPp2ewJGgCCe45iglTZzFriC2l8ds4EC/qVys6Mv8p91NVkCXqfyF2Pp0ZOGECgwcNoKePLdZtaU+V+RSmppNl0Y3uwVaYhnl2HBaWWJWJQPL4TtZv3MTmzSJt2sKmTYdJUKhQCcHWouUXx1haWqLV6qmsqt9mmkKLUqFDpTXH3FL4LtPWplBWFZMUV4g+JJyuLhYdN23VRSM8jyqek+kKnL074et54WXoRSHlqfAJWp2UpyrTxpbQCzuuo1pjjpkQ+vUthsHcBd/O3egzahKjh/Wji4WG6oSzFIgG0zqB2/601qq1moL8s+jVvni42mPfoFaJJ3Xzxt/MEp+gAQyZtoDrlixh/qwpjAi6hCyoTOHg39s5qupMv8nTGetdQnbE3/y1M4lcpemYBohKb6lAUXaMjd98x/fLl/P1V38IY19IuemICwjHr9agTxaC7Y9f+Oqbb/n+hx/56RfJUfzED+K3y03pm6++5M/dJ0hueBKZNmGNk4tBNELhuIWAPm8ERVBAZbnR2TvaScZdVGFLa2ztnXF2EcnZSSRH7KQGKA1u6SCUlcVCsFlhay2iY9O2tqJTCwOvUuJoa00n3ybOoq2kMiuanTt3sXv3bg5sPU5ahQZlQTxx+3cRsW+Pcfu5tGffAXYcFg6sQkFlXhyHd0Swd4/YvmcPZwq0qBtT6HrhDDJPcfTIfvbu3snmdX+xZpUQSSv/ZEOUEp9RC7lm0XVcHZJH1OHjJBqCGbr4FpZcNZq+tqkc+utHflmxitVr/mTdph3s2n2Qk2cyROBW33W54ebugLuFWggPNU02TRNmUg+mPpdja3/ml++X812tdtZo+uYrvv9zL4dShGDr6J6WS8AgBGLh6V3EVuhxDJ9I/86+xl7+C7XVAufwaQwNdcE+4yjJGdnkGrcrhb1K5tCxfMzsuzNmTFd8HIw7LuDSnQkTuuNun09UVAb5xS0LAjNUKAoSObJjGzt37OJgWpXxQ4w6VAubGneciL072LFjOzv2HOJEcglVagUVObEc3HmAA9H5DV8rNYNKpaBa/MDe1h1/T9PGNlJdlEN6Qg7a4CH0djdgfSnFLvySNCSgyVPYWmEhAkSNW1e6jZ7NdYsWsmDBApGuYcHCCYQ72mErDVI3Hd4kHoH4BYbhqcji5M617IxMJ1e0h8atlRpV8VnOHP6TLQcyKXIOwC/UF1fT3sapQlF6loSz5nj264aXEIdNZ4s0zYVtKzvipeE+IlRsD7MqzqE+c5gzVR50DvUn8CLL/zxu/vgEd8dPXUjkrrVsPZFKdoWqiTwVZViaReLRv9iyL5VcO1/8ugbU+uChhgt5ZoOVkzsBjjoM5UqRu7Xb6uWlfQWbwUB5SS46nY1wZCLaMW2+gJQFttjrNViHjmb8dXdwy623cvedNzCnh9a4t62fQOjLk4k7sJGfN5zFte9M5i27mZuvHUto1WkOrF7Oil3RnM0rQ9HAbkldwdZY2wbTe9QIhg8fwahR/ensVX/+NnFXZo749OxFzwGDGTJ0GCNHjWZIv+6E+Tji5NyZ8BHi9yKNGD5cnGM0/boG4nnlhTTti7mIaNr7g4N6WFjaY24ufRCgqTtmQ/qqSVQUH1cnHBzNUSZsY/NXj/HEU8/z/HMv8Pzz77EmXkmZzqIdxpk1gUEKMPQ1r5lqtrQZ4xQZ0tdH4t+WTZ1EVUD+8T945bU3eOutt3jlw7Ucz6uiMHEf275/m5dfe9O4/Vx68/VXeHfVYWLyCsmP38Wv777Ma2+I3779DhsTVFQ20uNi0KupPrubP758n7ffeodPf9nM0UxznLuPZ8LcG7jt3huY1dsR8/h1fP/xV/y8+QylnmEMvPpuHrhjKXPH9yfEtpDkQ+v59euPePeTn1izL4HSRjyXuaVI0mB349eQLSEd50xw36EMEe1zxIjhop02nUaMGsXwfmGEeloJG3SZTKr0BZ5wiG1Bq1WQlpIubJ0lvboE4GTqor2QH9K/AujW0wFn+yTSc/LJMr6vEUKqMIPYSlv0fv0IcbYwCr06mJvhENIXf0s7SmJSKSipiRybzeuSBE5u+olP3/2Az1dvE4JNgfp8/ulRl4prHtjMnz9+yYeffsE3333Ht19/wfLVm9h1SAQEm1by+Tuf89naM0hvb1ub8zX130bcm81FttMK8jOTiUxV4TeqN761A7vaiOtYSPWuhWuYqfJIS4glMTWFpMREEuul9NizFFdWUeU/iCHz7+KW227njjvuEOlO7rh9EaPdHHBojWCzDiSo9xCmdrZEc3wVn329mnU793P01BkSEpJIShLXS0oS14wn5vgB9m/+jS8//JWIIhsCRw9mYLhv8+WpKREiOo0UlQvh3QOxanIgr1RSxZw9E0useObkRp75QkohPfMMyVmFVIrzXVRx1cKgKyd2/xHKnQfRNdRL1FfTjvNIV5Be37fySlZ++PcYwoweIvCNXM2X36zmz217OXwq7kKeJtbkaeyJCBH4/s6XH61kT7YZviMG/x975wHYVNX34ad770lLS9l7771BpshGBQQRREARRVFxowzBiYgDBdkIKlvZe++9SxfdeydN8p2TBiglaVMoiu93n/c90tyb3HHG//z+Z9KkfmARdlw8g/i/lazTZd2Tf/BfodTvnT/oU3a5iZB/qBA6fSWVkCQqlLj8XmOVfiCs/k/z0WrITbzE8W1/8P0P+8jwb0TfQU3wFcbTp+lT9BjYkwa21zj062e8JSq5XedvkpJTcFak7Apxw82nO+M++JCPPvqIT2e+wpP1AvG6J4+ITGNVmc5vTeXtaR8zTXzvww/e5+OJA+lRSRgCx46M/lD8XoQPxblPZn7G+EGdqGekO/h/Bp0WXXYqCYnJpKWmkpKcrF/0MbeU24k9fYOxd0gnJSv9bqun3sjnJ5B+XTDxr42TF16BFalYIYSQEBnK4u1oidFqVOTLvOwUUlNTSE5JIeUBQlpGNskZIv8IMamSCzSqs0hLSSZFxEWWEETmVlgFMemoyIkubv5UrFiBChUqULF8MIH+crxVWYJCxGfD8buhIhXKlSXA3198J4hy4nNFcbx8+fL4CGFgrMvIwtoej6ZdaFymPFWCQ6jdtCO9RrzOlHdf5eX+9fE3WAmd+J6jXIvMXnjshue1DWrGky9+wEfT3ue1F/vTu01dajZpQfW6dalobLin2ZEjHSphHK0q0P3Vj/n4I1G+PvxIX05NhQ8/EM/x2mD61HchW11stVkqWKjSSU1KJDsjTV8OUtIyRB4o6iW1aPMSiQ2XSwYE4uNrJ+LTcKoQnl4e2NlbERufTKIcr6hWkRsbT5Qco1feD0+jiWmFzs2LcqJicboZQWxaZn7ZucemFUAdwZG//2bD+lNoqjSn3egPmNTOBxc7ww8yQzn99zLm/7iCPXF2lKnTmR59+9OrZRBuUZtY+ctSlu6JQOftjrPMF/m/KgEyrkzVFcWQdI0bl69z3qIiner7mhhLKq6tySU9MZ2kZFHuRTlNThZplGuYda1H/FAUQOvoTfwy/T0mvzqJ1ydPZnKh8Mp7yzh4KxW1lQ5NjmxnuY28UjYqs8Z35eNeuTEdhz1LuwqeeGWfY+/S+Xz28Vu8+YacNCXu9/rr4p5TeHf6fH7cdIZkey+q9xxFv87NqOthuIgpUhJIDIskwaEy1UOsTUy8ku+cJ2zpQZZNe5e3xTu/ZuSd74ZJvDLuI75cuYeL9rYP2com6or4w+w6rMOraQMqetkJxzRDpIsoP3fsrBCdmSlkypmrZoo2l3J16ThiOB0q+eKnusDB335kzsdv8+abhjidnB+nUz+Zy3drT5Bg5U7VbiPo+0Q7GnkZLlIEJm30P8i/JhbzvauSF+98ckg49QdLv/6M6UuOkxJQg84vvURb39t99Q6UbzOA4eOfp28VC1TXN/Pr9I9ZcjyZJH339u37SmGpRh4ynhby/P1BkpWtEl6oHGOTojeKqSpZwRT6rv6b/2MIV9UqJwX19s94ZfxLjHnxRUY/P5zX5/7JttBSUGwF4i5/7S6RT4S3r2/QkujXrBJBfCfQyw1b8UXrSt3p8/pCFvwwj3nzZJjGiFpOeFjnUbje1qqzub5qAm++IrziMWMZO7bkYcwLI/lwdRQRWRGc++tr3hn2vN7TnvDKJJad15BdUufDKPnxoLUTnmOb0fz4/XfMnTv3gcK3385j7jdf82wdO5ytZJzemzdlHOssqtPz7enM/vZbPn1jJP2aBeOnnwpvCOJ7Itrz0aeB/KPAeUs3yjfoxaCJHzHzjWd4urH3nd89HFrUubnkmHkhXa4atcgvD2pZSoYF9id+Yc7UVxj5whh9vnjlg8/5+WRRY2jUIl8nExdhIeLQSg69kT6IUaztXcR5WxLThCgUDhEq4Sgk3MJKOLw2coye0R+K8mJrj52c/WwVTVJGFvoJ8/d9VR64xcGlS/jtj32E+TehSY/RjG5YUGVriTy8nQM7DxDn25jWoz7hy3dG82y/vgwZK5zXN4fTs4arEAip5Eh7bvjVP0MeoSeOcuRCOt6Ne9HWz8grymEvNmoyEo6yZMpoxr00lhfHjmbEsK9Ysu0G983ZsZRDKxxxcnIyHhztsCm1GRsOuFXuyMhPvuCTV5/lqVY1qVrWGzdXZxzFMzg6OuHi6kPZCo1o2e953pg+l3eGNKWOt+l2oNukJsZyIywGu4BaVHYXJtvUI1taYVncOxcMztJZk5PQDOu2PSDq1FtcWPs7R2lI+9YVKZ93hOVz32f4iBcK2NmXGD1qFr9FJpBsa2Pc+b4PexyCWjPs4y+Y9tpwBrWrS/VgH9wNceok4tTZxYuA8g1o8dQIXvv0G94d2pqGfsXH6eNCydryzUBOPNAbDZP52lCwH9iYq7mx9lt+33aI/ZG2uFdoRtfRQphVtivkSdjgUaULvcdXoNLeNfxyuS6da7rgoe+sN+fOqcSe3cWKOWu5IDLpva8jKjiNSlQkFsL47uaXyYdERBZ8ZyEU1N74VerM6LfaE2I4+r+DiD/x/jkGNaTJzcZeLdcF0398cHKiiTm6lqmLTmAtElPuypCVo8Fiyw/M2LMQK326iaBVk5Un4vu3Tzn3p6j0dCpyXatRpdUApvTJX33bZPYTv9fmCQ8vRzx/jqVR79PS2l4YpTz9Gm93p3CLKwoDZ2trjaV+vTIhfPTHpWAR/9WI9xfGT/zEcLx4MtITSUtNFNeteF/rgObaJlav38bGsxk4inuaLk8lQDyonEXt0WoE/Z5oS9MAC9Qp4Zxd8wE/HrMVAsLiriE2Uj7vpsePIj0WGdKjIHfLgEaVg2vZarQZ8Sa97xQA8Qs5q9cymRxVLPFC15QtdvCMXD/OjtsTB4vDwk4OPC+NyDITmRf0jkV+/JAr7EKxfkt+vOl0wfi62d7frWnAydtfCDOZp3T3lC3ZTRTk6y3e01hFI4954xVogXWSuI/RZ7HA1kbF9dWL2bJnP9e8W9Gi+xBe6Ox77zCWtKMcPnuZ3SlVqd75CZ5uXmjtvKCOtGwWQULkdbYkGI6VgJQUFWlCNVm4SMFvOGguoVvYd+AC4a4NGdy7WpGD6vUTrHJF+dRHex7ZwtmW6y7ezb3iLxGn6sA+jH2hDXUDXbCUW0QZzt7GNusoC2cuZbtaOAS2BTOufHi5bI6hbisJNg54VW9Hz4ot6Xp7YWrDKZlOliKN5bJDcuyYedk6g5SYaMIjnHHqVlG/lqexn9m4l6Xecwv49hnDgZIgnAFLWzMX7y2MOpGEc3/x6/4s/Hr3oIGvSLkUtSg2uSJdcsQ7Fsyw0j4/gE6wthN1f2u6lm9GB7muZOE4FXbcysZG2HK5K4bhcJHIWedyFQuV+DdSP/u+mq94tn/QzNympMWkaESG9fAJFpWtNOyiUBgO30VGWxaponKzc/PA0yPfAMh12MxeZF6YlPItGlGuaksat+zH6FdG0quys8mtJRx9K1K360jeEgWxojCOt7+mzRNee2YmmVnC4zUcuxfhAWtyybgZRnh4+J0QEREhQjiR0XHEp4jfZyQSFxVJZKQ8nn9O/92wW9yKTCe3xLntMUcrCoCdGzZtJjDzs9l88fnnfPnNd3w8Sq4C/5DZSQixvIyEO3EdGZtEanoaycJjvBV+Ox0iiYiKIzkjg6S4W0RFhhMmjoeFRhJ1K0U/IFTmM1PRbikMZPk+s/hgxhd8+cUc5sy5Gz7//AtmfzaLl9uJSrRsO54a9x6z534p3vFLvpz9EdNe7iLEtwV59Yfyynsz+PqLz5k92/DbL79k1oxP6F/d0uw9/3Iys8hMFnnfJpAAP8PB2+SmkhwXyc0w+c5hhIWZCOEiz92KIzExkdio4r4r82UYUYnpZBoKpzZPRVZiWH6+FSHs9u8NaVAwGE+PgqHAveR9omP1Lc93scLTywk3jwwh2JJJL3LWgTSsWpHdrrNxztu8M3UqU4sL777H1M+W88eJdOz/kb1mdOTWfZpxU2fwrVyi6KtvmTllHM/UMXfpH1kJF1HJ24jKTK+g78/NcmV8kwhRbCd+KurV+34p72VpnUXYxnn8tvskF9w70rXfIEZ1LnefcFTfPE9MdCT4BRJcs9p9g7Jl9VG2UlUqVSlHrvRUSkQ22Sk5wmlxw97JF1lvm03qcdau+Zv9GeWo3ak7rUyOwBf5J88GJ68GDPzgS31Z/XzOl3w7/0UGtg0psEirASsHXES95OYgW7fkBKZ7g72HM/b2jjiF72HnTx/y3ru38947Iu99y6aEVNKsRZoaLmcuFnK5KAdxXWeXQvd1yd8OTThsZvsg6hii5bI/1s7UryatVT7SoSiIhcgj1g4F71WC4CKXCTHylqaM7h1SiDqxkV+WHifWrzvPdiqHt9S9Xk3oPXIK3337VQF7PJsvv36FJwO9cFeZqqNNo49TmVbG4lS2FArHriR+naOjC74BckeOaFIy7w4J+acp3Z0OtHnoTsxn3LdnKd9vIoO7Vieo8MyDuC3Mmv4bZzLdCa4QRLCbNbnZohIIPcflhI6MmzuYFl7F7XSQSXyU3KfMiTJlhXgwHC0JuYk3CbsuKhSbslSrH4iL4fhd8shNiyPs9A0SCqyRo1GLzCNVu5FYs7K1RW4LY2khKxp7HFwCqVrXG6dzi8za/P2f2elgO1uXLOSP6Kd447u++k3vza/abu90sJUzvd/h16dLue1QI4x4QjgnriWKeqpAaZJZVNQ+FnJKvTCI+q2b5Oc71kgUJCthRDwDqVRGWv54dn3wknmbvxshbPlzfHS2K0NG9qZTpdvT8IQDEraJT6as4lzrSXwxvBFBhWfolYSsi+xY/DPLdmfh0nwo70xoRsGJUrp0IdbCbxGZnGd6coec+JGTQNyl/SzZE06t7qNpEWyDo43OaP6UyJZAW7/KlAv0x8dRFFlVJslhJ7mSYJUfzfpbScEr4lheX8S3jVwIt2B8S8SX5X6iWtmyqN8p4t4byt0ZbBzd8K9cm6CCK2JG/cXKX1ex6pwnTQeO5cUnK2JszwNd8jXOrfuMt36LFGZFto7kP5O8r1xI2NrWTjh5WnKzspFDxu6ek46WKwFV2jDs0wl0ELWysdjLS4/h7LKJzN7ZkZFzBtEyUFTIhnPFU2CngyYvM+25ZlQye1WCXLKSjrJ83LdsU7Xn+S8G0SpYiBbD2Xu48RvvfbWeQ/YdGDl0MIPLR3H2j6+ZtjmVKs/O4NV2fvk7AtyDbEGOY8+sKSw+ISrtMePp27kqAQlnObzue2ZvScGnck18Es9yLSGTjMCnGDr0Sfo38JA/vSeykoQ9+um3XVzxHUDf556ne7DhREFU1zi2biXfrAzHvulwPnm9BXI4kLE4v4eYHSz/YRlrb5ShRu+RTO1b3rwymnKSdb8sZu1Nb6p3FM/erTp+JiqA2zsdLL5UmVGzX6K10UahEu508MkK9p8XdYLI91kqbf5EBjmkQIhvRxcb8hqM4OUBHelSYKcDWRZiDy7gr/PZpGRbYmqr0hIj8rvcVafaE6NoESKcTKmhoraxbvlG1kbUYNT0F2h+Z/J5Mlf+3snxczeJlS1LhqMPjxyyUJFmTzajfmVvk63FcnJD2IENrFhxgPO5VekzYQS9arkXU3eHs/WN6Sy3bkl3IzsdxB/6hb/PphGfZbyn5GGQcdo8xAHn2w+YfoPLW+fz7q9RBHZ9ifHDWlJRb/8NtlL/pUdP6Qo2OdAoZiMfv7+SmBojGTa4I039DecMZO6cxQe/neZyeDJ5QvzI2Ugy09k4+eFq184swXavXSn4SU1azE3CI2NISEolM0eNWu48q0d6FLa4upfFL6gcFQKci84shYzXAyO7iJMuse3IdRwrNqd6iDceJhxwvWBbHkdu/eG8MqZuMVO378d8wbaIP2MGMHVeLyoajpvHP7A1VVHkpRArW3ZiMsnKyRR5J/+wHIMlhYWdoxMO7n6ULe+N9tQ2jiYHUrFuNaqb2hvQSCJLQXNt+ShmnO/EgGHd6VrdM/8bunQyrv3NrPd+50KLCcx8piEVPc1tSSlIjojDfZw+dYB9lzPI9mlCpx5d6CbHAt2hJJlPCICD3zNy7jF6fPArQ+Uea2Yii37R40jVZESHExoVQ2pGFqI46YdXywrK0sYaB2dXfYt6QJA37iZrgELvoonn+qEdrNt8jKtprjRo14iGLbpSy9fyngWadTlJxF85pF9b8Z5nFGJNitmoK+c4FuVM3Q7NkFsryu4JeSf5X61GVJ4ewdRp35hywoM39oZ3BVtXXvz2WVqb3gPKCA+zNZUUbEdYOnYeO/LqMlBUqh2reBkVrZz+kak/7OSocxdGDB2kF2xnfv+KaX+l4/vkVD7oWUE/ueZeZKtSKBvfnMaa6040HC8EW6dqBArBdmT9j8zcFIudeIY0pwACNUlkWvhTo/tABjzVgsr3vIKO62s+ZPH6AyRUe4YBI4brx4ndhy6c0+tW8ePiK6iaPcenRQo2mUJJXNmynzOn9nAoQeShml3o0bk1zQKKj3919FF2rf2N5WftqdS6D4OeaEDFIozkI9ma6qPF7Eh0o3zdmjQMsDfMppWOQhKXN+3lTEh/Rg7uwhMFBZuwKZd/HsC0TalEphqf+HMHkb9tbGxEWdAJISR3PTEcN4Lcg1U6Lp3fWc3zTRyRu9klH/mVVX+c4KznAD6Y3LKAExjBzulfsmL9YS47ORRZ90mHyEZuY6dTkSMnZ+QXLBNoyM5oxXPTn6N/uwrG66zMcM4d2Mz6zWe5kRVM6yED6ds2pJidDeRNi96a6trCwUxfH8u1ZOui1+6zEHFuK8feFR+nUgRLz7TTO78xspk7Prc9KV0WmWHH+XPNZvZdhUoNa9CobXfqlPfEoySm4yGx+kBg+PvhkYbVyZb044c5FZGK1s2XCiE+OOltSh65MafZvG49J2NdCKxam3r1a1G9ajUqlPPHUxtHUnYFmnSvRZCjFSnCWJ89n0yuby2atQ65x6DdW5jkJw2quCucPXaM/Xu2sWP7Dnbt3sO+A4c4dOQ4x8TxY8dOcPKcEIrXYriVmERqtgZbOyfcXOyMe3ZGSmx29BkuXU4kXWePi6tdCbwUHXmWdrh7+uAu4sfUmp5ZYQc4czmGWI0jjp55JIdFEBUVVUSQXbFRpFi44+Zqi+bWcc6cjSHJoSbN25a/v8lfoE6+Sei5I5xNcMGjjAVp4jq37rtugRAZQVhCXv5q2/ZaUYGLeD5wndgqLeld20u/qO2jJi81mrBzRzmwaxtbNm9kw1+7RPruYu/+Axw4IMNBfTqfPn+VG1HxJGaqsS/fgjaNy+PnYiu9kvy8eR/CM86MJvL6Da7H5mLv7Y69qPCSzq1jX3wFatatTCUfB0NWEJV00nX277xIfFBTOteR+x2W1E+VRiidM4tmsXTrRUKdGtC2W1f6Niy812mhZ5VdxclhHDt7VaR3JLdu3cpPm2iRV25c4MKFi5y+mYK9s78QMzHEx0QRaUi/yIgIYuISyHPyR0TFPdFgUqypk0kMPcuxPbvZsU0Y2k2b2bFTxPm+A+w3xPfBI0c4cfacKE/iWeIzyc2xwMnTDQe5bp7hMvkU/CTe39IJT18h9HKvc2j3bo6dPodVrb7U8bcqYHRFBWjtiJNfZWrVqkXNmjXvhhrVqVXJFfu4CxyMCqLP5OfpWa/A+Zq1qFW7BlUrBSK3TjTxhmhVGcSd3czBMCdcRK2WlZ5AbIQQgrfzfeEQGU54bCbZOge8XG3QqKI5t+EQ1wIa07ZOID5O5o7pELYgJ4GrOw9wXW1NYLPmVPR3xtHIg6Zf3sLu05GkudeiUf3aVHPPJOXGGbZdTCPHvz5P1PTF2a6wMdGgywvj+OpDQhB7UqFtY2qW88QpK06I3OPsv5aDtVsI9bt0pbVfLunRl7mUIJxZt8rUD3YsEF95xApRdfpKJDm+talRvx4hRmvYVGIvn+f4mUS0ZevRsUWQfl1C4/Eu8/8N/npvLn+eiiSzUhd6dutMu/JCKcpTphJLncati4fY89dvrDlpTYXOQ3i2W13Ku4kfFPU7IexDL57ndIIH9Ts2JURUvsayvCY3kdD9uzhDPdq0roK/qXJtIbf+OspF58a06z+E/q1r38lzNWv4kSXS9JKtsBt1KlPZq6Azp0OTnUKeSwWCK1SlavXq1KhRg5rVq1K5UiUqVa5ClSoiVBXHg92xFY6SytaTyg1a06hWJSrfPm80VKVW/SZU8BSixDKd0EN7OHJDi1PTrnSvUlDgiDoyIw9rTz8Cq1ejqolrVatemXL+btirslC5VadJ83rUqCqeubJ4J6O/Eccr16J+k0oEeTneKwR12aRG3eDkzpUs33SecItqdOr/FH3blce8zolkrm09wHmrYKrUqUYN33udIjnbP88pRDjo4rmrVae6Pk6riTiteG+clvPCQS56a+VGpQZtzYjTKtRu0JTynjbk9/yKTGZhi617IJWdb3FK2L8D+3aRHtCKCuX9edBthB+EUp50IEqDZQXhNVfl1Mp9HN3iKESNhm613bBIi+Tm7uWsOZWNunxPRozsSdvyhgbU3FjO/PIKM3aLqJEFsEQIIZhwiSNrF/Dt5kgsXDzx9PDEr4LImEJMFCyfOo0WtSqZqMNrOLVvL8GNe/Hc0C7U9TFvOnrCwe+Yv8yZcv1HMHpwDfNawGRnd9gmpr//O/5PTSuyS1S2XFjZRHL1+CrmHhGeTbEPpdO3kvj2n8m7g+pQxpxRkDrZZZtGWtJOFn34t0idYhBiIcP3ScZPEF54I1ez4qlUERXjxR0i32w4yMl0J/x9PfARRi3A6t4uOhkPGrliffwZDizbzXrfjjzzbB+61C+LZxGraeqiD7NjyUa2ZjblpU9H0cL8frEHxAb38rWoFm9FntxRICyc0NplqORmQsVL8jLIvrCO6bN3oRLvKHP1nWIiBwBb2+Io1M6xFZ9y4J59IuXkmDycfQLo+sbPDKtprIWhMHkknN/G76s3sfV8Fg6+vnh6l6dimUJbGon41uapyU29xEmRNlupSa8XRtKrWTn8TMahvICWzFth3AiXDl05qgQFEeRuVaibqOiH1GVl50940Ymynynqc3G/ku9jLuJGKxcrPca6bw/wp3ifIk2PJocs12a0fepZ3hpSrZgnLAobrKy9KFNePMG5HHJytGhkITRiiXMy01GL9PbxcMND9s3YOeDmF4idNoq89FzUd6btFkQr6km5lIdWVPoBeLsIQSoPi5fTTwizssWpRh+eH9iSMlne5GakcGPPec7u3cOJun1peMc22QhhbY+TiwXxeeJapmY+i/yVlyfSQfxZRA4ugDNlateiqsM1bmXHECHyf5yocH3va6wWtlq8R2ZqHBEXj7J7wwYOZZalbq+xPN+tHKIuzefBE+I+LFQJRIVexy3bCcs7k4ruYiueNyU3D52DeGfxbNxxiWU6mF7WQw4t8G89lpGtDQfEtzSZqaTm2ePpVqiwZJ1k3YKF/B5Rlo4vjKezj+G4OeRFEhGdRJqlNw0q3tu1pdN5UrVbfxEMB4pAdesAa7+azzq3Hox5tYWRsYsmkC8v0kOnUZOdHEVCxFUObFrBX1fV6Mp1os9T3XiyXmHn9MHxbT6KYc0NHwRaIeCSc+zw8ijUMZtznm2/LmTRBRfaPT+e7sZaioskP5NpUqO4evUWaVZelKsRQAV/F5xLWUEVR2nF3T0EtB9Gp8aNCEo4xM4FHzB5wkRef/dzvtudhIWdL217taBywN1IVUkD/IBLIeiEEAzfs4Rvt8Xj6F+bjgNfYsK705g+cwYzpk9neoEwY+ZMPnp3AqMHdqJlQBa3Tv7ND4uP6FfNNwdLGzmIUa5Bk0umkDq5WVlkFRWyc8jOSEeVa4GD7K4TlWpRPYgWNg7ie+54ePrgF1CGMmWKCwEEiH9VuVnCaMpsVbz1koMxbRzccHPzwve+6xkPAb5uxgeZ/gPc2rWUdTsOcsqiAnU7D2b0pHf58NOZzJhRKG1nzGDmxx8w5ZWh9G1VlXKpu1ixfCcHLicaNaJ3sDQM+HUouDm6FMKGPwshhWGR1ysSeQMXag6ezKsTB/OEXySnN//Jz+suk5X/BROIlLW200+td/f2x8+/QPr4y/0UPfQDaz19/PX7w94954uPl7t+SnuRXQYFid3Ghg27+fu8JYENu9JvzGTe+WgmMwvF93QZ39M/Yuqk0TzbsRZBtpdZt/hvDl+N01feJsk4xf6tG1i2KwW3JsN4+f336FvNyuyJGpJ7WknE36YaCotE/Mja3hUX4eB5+xWKN6NBlDU/4QzK8m+4xINiaeWBfzkHrKxuERmZRobRxM8lOjpZCDorfL3d8JLawFJ4+T4+VNRpsLx+k2hhNO8zm3JSUNwtboh/1RV88HKxzx9XJDOtyLuW1tYE1q6GmxSJzk1oVb86LcrGc/PGUdZtu37PRDE3Dw+cnZxJSs0kMtbEHgYpiaQmxxElREnx8SK/UZ4OU6by6phO1FYf0e+qsXh/fP7pe8gj6eIW1syfzoffbeY0Teg18X0m9y4g1koNkYFk9+KtDSz49B1ee3kir06axKRCYfw7izkQlUKunClu+OWDoL25jbVfvs3Eqb+wR7/mSgGycoU4Fokl0k9V3FYghYm4QXi8EI7eZagafG+hML+M6ES9JZ0B8acmV7+eodn2znAPTWY01zbP4Z0ZC1h7Lg+PFsOZ+OJgnipFsVYYXeRe/pr3NuMmz2dniog+w3E9WTn6Wf1CSZY8Tm+jjiX27Hq+W3aWJN8ODH/7c55vV4FgExvUPCoeUfz50uyZ4QwZ0pl6Aa5CpFhhK4yjZ/VWDH7zA4Y3FcavlJoRM1MTuHr6Jpae7Xj+wzd4pkddqnmZ6KMXGcrJqyoNe47lpbHPMKRaJlk3TnK+cAKbxBp7pysc+nMOU4Y+x6gxYxhTVBj9AqPHjuf52VtJSM8pYsXpfLxbvMSYjxbz68/f8/33ZoYffmTxmKZUFQb99jIbReFQrgVdJi5h4QIj1zIWfvyZJTOe5ola0s8SnlL+Zf4hIrlyMobInEZ0HDSW9194goblPe8OBC2EpaMr/lXa0WvcVMZ3CSAw7ixhUXHF7Cl7P3pRpg+GA7cxHDdvA+SisQ7uTMsW9WnqeIvUS2e5VmxTp7ijTkvj56bz6dc/8dOPRtKqYPhJfOfzt3jtqerklGBF48zQS8TEphHUujeDx4/kyQZB+DiZsPY2TnhXaEzbYW/z1lPlCFJdIuxWEvFFZMP0y6e4fu0q9pVq0OHJ1gQ/iIcqWxX1jySErPjXxNMVibWzL7WH/8y3333Pjz8Yib/C4aeF/Prlq4zvWVHYlvvnv5cEaxtbKlSui70Q4RcuXSEhuXCtLWRYznnOnM0hJbMRFQMDKKvvQ3LF3qsSdf3VWCYd5XJMNhmF4lqryiXmzBES1SoCalfHzyO/H6BgfpVjn27n4DJt2lK/WRN8b10has9KNkaIaxi+bB9SDS/fALIjY4i4dMOoEM+KiSA+MhRruZWA2Vji3rg7rerVoWJMFHFnLhu23iqILV6uLpQJqUmdnuP5cNrLDKhaqOWk1DCUa/FcVtbCoZVjyIwGKyzkRBtZ/h/GAIj68PZSHaVZASeEXyIpzVqkWWXK/cNCoiDWrr5UeWI47as2YuDk6Uwd3pH6ZR5kvG8JEDbBylrEqRTTD2IQikGVGMO1E/tJcfKk3cA+1PAp3bQzl0d3T/tAqncYyisfzeG7H77j269nM+PVoXSu4Y3zQ234di+ymT9PttfnCo/Zyd6MmV7593ZwEN+1FgUvT12iDcItLPJQ52aRnppGWpqZIUuu32LGTWRFJDxVK7n2TklCSXKoqOFkE73R65gMhWYI/mPI3Sg0aHTWQvA75I8ZLOY5ZCujhaUTjrYiLrV5+sV3zRPjAplEltZU6Pcln7/dj/aV3e/ezsIZpwo9eWPePH56vhEh7g/r5lvg7OKIm2sCmdmh3Iw2HC4GSysbYezFH9LoG00rQ5BfFhVMSccYyvIgKyRLGzvs9Ua/+N/LLllbuYukRkWe+O3tCv9+8oi9lUxirC32Dl4YtMQdEvZ9zfcfjuKFF8czfrzxMGHCBMa//x0L9sejyznLyqkTeGX8BCYY+e7tMHb0KOZuuUpYwcXpBQ9SDkqlMhBxa1enLS1cLXE88ye7ToYSXnD3eW0O1zes5GB8ErRoQpWQQMPwCyscnINp0r4SlroY/lq9h8uxBWWUiP/oXSzdHEtaTm1aNSqL/73bttyPdTUaNGxA16Z2xMZEsuXPI6TdtlVezWhSswotHc9x5cRfrDhbSKimn2b3vhP8fU6LncyTUsjknzEDF1zcHXG1SyQzJZIoIxrYOqQNHQa+wKsD6lNGaLVHURHL/G3rXJEOU77jq7nz+E6/8HYR4cdfWPRGf/rUMjWu5SGRa8apcsjOyRVlyXDMLJK5eTGRGEt/vCoLJ8tw9N9B2A7vugx+/UW61SmD3MjgX0XEad4DxeldMtMTibwhHCUrP7w85UoFhhP/MI9QJMoFLx3169p4eXnh6emBu4uTYRBf6eHs6k3l2iHkph1h9Zc/sf7wTW5lmzYbmuxbXDu0lqVL/+DPy7ZYB1Snspw9ZDhfNBpyMivTpOfLfPzz93z7zTd8U1SY+y1zv/qCeS93wNPZnryCq1/+z6ImN/0cmz6exrQPfmDL1WRRARhOlZiylK/uia/1KfasX8oPG49xLT7H9Lg7TQaJkeK7Sz5j0a4oIt0qUcbP857lMowiZz1ayRW/8z9aO3ri4eaI/T2zQ2S3pAOuXp54OYt8U6j2eJBXdHHzxtXTHa0mS+46ZBZWdg5CjBo+FIeDXOPt/uVti8K5Yg38vF2IPbSFdYv/4sD1JDJNRriKlKgT7F35Dd9viyXSrgrBfu74mCzjWv0SIHl5HjjY+eFTaOSxOjWK6DC55991rl83HuSegNdDI4iKTyEjPYFbodfE8WtcM/Ld20HuhXgrOZucx6b4Ce/cqRp9RnWnmnsO5//4nq+/Wcii9VvY9tdqFsycwbxNV4lwak/fzrWpI6e6GrBw9MK/zTMMbWiD9sZGFnzxNfNXrmfz1vX8vvBrPv56PacTrKg1sD8tynuZNc7WqWo9ardoSQ1NNMnn1rHidCY5+jS3p1Kz5jRpXBnra/vZ9ssMZv34O5t27OTv3+byzezvWX80gmy556+tDZZlvJG7Jpmnq+xw97LH1UM4ZGqRJ4w1WloLp9rRGReHB9nyynzkrEh7N1lHeYm6ylP8W0QQdZm3sA2OpmaOmY10LG2wLzz63qc5fUZ/yOx3J/BEMasm3VOuVaFCvAuB7+5LhbIlHqRVyojUsrDB0dUZ+394dVl9Woo4vSd1vBrTdcS7fPHBa/SsYDhWImSLqrRbIo9bBOPnaVGiNdxKk9Jd1uMBUSXf5NTSKXy5vytjvxlMS+/i1mErgPBGsyKPsnbZEn47mIJ7SFXKB/voBZJtIY9YKwxDdlYc8TcvcTXWGseqnRkwqBddarqZNeMzav1kvl2fRqZfTerU8cNRVXA/OiPI1iytBovky/x94BKVB37IwM41qVz0fOYHxpxlPR4Oc5b1yCEz4QA/DZ7ORnV5npr5Af2bBuDzgBk8L/E0+/9cxZqdV4iwCqRmlWB8PJxxsrW6p9VPp81DnZ1OanIMkZcvEerQmE59BtC3bRXKuZrurtHe2Mzq39bzx2Un6jStKcSh+d2HskVJ5VWNKnUb07FSyRNVJ8ey/LaU3yOC6DPxI/qaMiYqIU5OLOfFb/biVa0Flf0ccbIuqiVLIFvgVMnEhV3ibLw1XSZ9y+BqmJyhfJc0ru/8jdVrtnM01o4y1aoS4iv3ibS5d60jcfM8VQYpiUI8Xb1BaE4IzQeOZEiXGpR3M1WaVFz5U5TrVVFk1xvIy2+0ItBwRpItxN+VsARiM8WzP2x9WACdRoNXlcZUDPTA9WEbRvU8zLIeBUnkxr7dbN+6g4M3Ekm3sMfNRiNslA3etVvSqk1HOjUOwuO+maA6sq/tYefenezYc4XoXOHxO1igE6JH61qFlh1b0a5dK6p63B1Xpos5xYHfv2DaNhW1R37Fe119cC4wUyP31nH2LZ3Pl7visK/an1df60ejQEdsySY1/BLHdu3mgJxpH6vF3c0BC5UW26B6NK/miPrWOdZdgMAeE5nXv5zhisWTcvQHli/fwRmHXox45xmalHI3nnnLepQGsha4yrqXZ7Ha4wkGP9ON7gWW9SiMNmwnG9esYelpW2o3r42/zd1aRO4EYmMj0tNClq9c8oQzWRC50LVdmRpUa9iKJoF3y5n23E+8/+VRVPX7M2xUZ2o+cKuWjpTru9g0/xc2u45gxpS2BAij8UiirUikcSt6WY+C6KIOsO2PZfx42Fo4H3UoYytXRzOcs7DExlraLxGnatnKdu/b6ESc2vhWolKj9rQMMlZX6Ei6spWN3yxiS+aTvP5Df2oKY/gPzzfQ898XbHpUZF7Zy+b9l7h246p+Hbb4pNvrsN3uzrPESq7D5haEf3BZylWqTcMGjWkhhJe5Njzyj4l8s/ESJyLE1eTgXinIDOeMIqJWJ28uBwuLZ2zywucM7lKLqo+oNf3xEGx5qLIiOLl6H1e0HlTv1JbqZV3MnMZtnOzIc5w9epijV8MIvRmhH4ydmpNVYB029OMXHF098PArS3DFCgQLYdOlVTUCnYqW4tprG1i1aiU/7U7ARnpR0vM1nCsWVSYZlXrwxOBRvNfJ13DQfLShW/WC7Y/I4GIEWzLpR3/luTm7ycnO0G9VpBWGvKBgvQ993ssXtV7+Zek8+SeG1jBHsAmywrh28ih7j17mZng4N0R5Ss3IJjdPPLM8L+Lbwjp/HTZP33KUDZEbzteiTZcmhLgXtdL7bcEWqRdsE95oXaBcSzNkdsw/IKV1j9ISbJIs4i6d5szFG9xKySHPwhYHjwDK12hIo8ruRVYKeQkXOHfqEldupZCeJyolR098ylWnfpPK+BdOhIxows7vZ9c1DX4Ne9BB7g5T8DvqNFJDj7HuQCQarRcNenagiq/D3SEmOTFcFoLtbHgs6bkiF9j6E1inKW3KxHBq6yo+2pRCSG8h2AaY34SRfCRfsJ11/H8m2EK3s371YuZui71jc8wlLycD13pP0n34q/fs+6oK3cW2o1nYV6lDo3plja/rZxb/UcEWuY+tqxcw++84rLUqvdA1t7RrcjNxrN6JziPe4uWmxgZVFRRsvXjt+4HUEnHy/1ewJYVy4tfXmL23OxPmP0NrH1tC//yMxcuvk1LraV5711zxkUXs5dOcu3iVsFvxpGTkkiP3nNSnmjW2rg54+9agYu3a1KsmPEz9b8wn4dBPbDwmDF+KddGLHxpBI5R9pc4jaF2vHIGPaOxs0qF5LF58gqteQ3jjo44YW5j84cjg1tH1/Dr9L073fptFQ6sYEWyPDk3iVU6ePs+1K9HEZqSSLZewELlXv3CurSPucpZkherUrFeLii7mPZcu+hj79u9j24XMQl2gZqBRketXjzrN29G3lpzGVzLyBdsS/ogKEYLtQ/rmb4N6P3JZj6u7+HrtOVGZakV+Nj/OZeuSrYs79fqMp53IEMX3UBQwc6KSv3r+LCcvXhMOUBoZKl3+fow64fzY2eDi6UNAudpUrVWb6r7mFIg8rv75OUtXRpBdv7Bg+y8hBdsJloyYzYYmE/h4eDNqFloj6vHC3KqrEDkJ3IpLIlHjgo9fGfyNCaqko2xftZivDllSc8CbTO9h/v4s+YJtO2edeucLtlK2i7qo/WxdtZxfLlRk1KxXae/+KAXbFf4Y+ymrPLvzzLCe9KxqunbRxZ7myIHdbD6bjl0JbY5W1CMO5RpSr003OpQ3JRkeML316Ei+toMNc0Vd5zaK2VPbE/ivCbZrbJw4g+W2beg1rC+Dihg3qEu4yKmD21h3Kh3bEnbDyhY228Ca1G7zJF0rGW++SboqBNvXC4Vg68mk7wdR+/+zYFOnRnJx3Wx+Od6aZ97vQQMPG6J2/MK6jRGkV+7Bcy82odCGCf9hHqYwFU3qmeWsX3eRMPfujBzfrMRbWxVPFnHndrHup31cbvcCn/YK+Wc32i51Si8tHuRKskt03W/LWBkWwBMvTWNYDcOJ/1kyObPiK5b9HgNNB/Lya60IMJz5b6FGnXWR9XJZhtrPMP7JOlR6oF0vHnNitrJo8Qb+jAqmU5+hjGt3fyty+ulVrF6xkm1ptek67n2Rh80vBSlHF7Bi+WaO2T3B02+MooMcAFeK6OJOcvCvTfxxPYh+rw2jiajvH51gu8n2j37kL7c29OjdlnblTTUXPjr7XzroSAs/zO5la9jt3I/Jou71tf63BFs4u2f8xCabRrTv3YknKpvqp3nUcaoh/txfrP5qOQfpzevz+lPj/7NgU1D4f0ncEXb8sZKv9qmo0HUUb/Wvjrvcu/Nfm5X7iJCztPIssEo7xOrvV7L2pBNVegzi1efqGtnDV+Hx4So7f1jC8g3ROLd6ktETelDJRpOfN+UYyYzjbF66mpWbY3Fv1J3n3+pP7RKMEVRfWsOqlSI/RFei2aCJjGvhoV8nzlo4gf9L2V/hv4rc7N0Sy8yrnNm5jh8XnSerxmDef68TQUKwlbA/plRQBJuCwr9GDJe2/Mni7/7mmqOLfmHl3GbjmDmoDsFyY8D/BeRI+MQ9fPnBb5xPSScjJwOr6k/Qoe8wRtZ/mJGNCv8EiceX8/vqdWy+YolbGX+q1GlIkLMQVOnXOHM+lBthGfg16Ey34aPoEVJCmZVzkT2r1/DzqpPkujlhb2tHcP8PeKVtAJ7G9upSUPgnUZ1hw/w1bN5/hWQr4ag4+VGu31Q+6OKL7aNpqi2Wf0MkKigo6PGnYuPODBjakgqWiSQmJJKQLmcx/Y/5UJps0pMSiEtIwSKkI926duOpuopY+y/gWfcp+o5+g/H9GlKWWM7tWs+G9WtZt/sSMZpg2jz9CmPHDKVToZX1zcK+Oo3ad2Nor6o4pYu8n5hISrZcd9FwXkHh30SnIjstmYS4BLLsg6neYTgvtv33xJpEaWFTUPhXyUOVFk9URAypagu0HiFUD3DFoYSDkR9ftHJWETcu3yJNrcHGPYAy/j54Oiq+4n8HDTkpccSKiislUy6OLA5ZWmPn6IGPvz8+bg+xXZc2l6ykaMKjkskRV3EoU5XyXnJJJsN5BYV/C20asWHRxCZloBN53dOvLEH/8ljVx1KwyQd69Br2n7mLMR75nf+9VzPBQzxQoZ/ef6XH4WUfuwh/9Pw/fOX/Rf5fJ6OSh+/nEcXJvZf9X4r4f/ZdrD4QGP5+bLDQJhF+7gwXw9PIdfTC06H4CNGmhXP58iURrnPjRig3I24RnZxLnrULHo7G3DULNJnxxFw+yokrWlyD3LGzeBSDXYU7mhvD+cMnuJklPEdHZ5xKZfHOguSRfPUEZ68mkIojXm52j1lxsECXEU3klVOcuh6Pzi0AD3NXQbDIIeHyOc5djiHW2o0Al8KRZ4E6SaT5uQtcibHCPcAVeWl17FmOnwojSeeAk5sDpbgbmh5N4hXOnjnNzWQdNm6eOP8bU4b+UXKJP3+EU6EZ5Nk54y4ysakoVepBgU6LKuY0h09EkGHngpOzHQXWqS01HjauLXLiCRPl64Qol7kOvnj/L7Z83okkFfEXDnP6bAIZ1o64utn/KzP9Hi9yiTt7mFM3s9DYOxVZru+QGceNSxe4dPWqqGtvEhoeSUxCJhobZ1zE743lIIvceMKvnuN0aCIWbv64PaKGKk1OEpGnDnMy2ho3Lyccitm/u8SIck3qDQ4ePUOizg1HJ4dS372pKEq/hS0vlejweNJz89BaFi+A5F6gltb2OPoEU/b2Cumqk/w2fT5/x1ek+ehJPF+niGKlySUtSlSeR7awYdcJroSnkCnubWHrjGtgTeq06ED3tjWpEuSDU6G0ywo/wJ5fpjP/bH/eXT6Uuo9iqq4uD5K3M33CfMIaTWDYwPa0CCxty53Bqe/f4fujbpTvPZxXe8sNqv8BRFrfuhlLjpMw9F7uuBZRCOWaY+uW/8SiK/70f+srnq5qbkUTw+G5X7PwILg8O4FZ3e5frCT1xM8s/3kLh6yH8u6XPagojqXv+pDJ86MJfOoFhg5oSEjhcqtNJy4intSsXDSWpqet67QarBzEu3mXwc/57rdyjszjkx/WE1VuMMNHD6dtiXaD0aHOSiYlJYNMcX+VRiNkfX5ZsbCyxtLGHmcXDzzdHEula0irySY1Ioz4XPF3cQvuSuQG11ZOOLt7E+jjKAywNBHJHJg5kXnX69F5+GCGtgww3Q2Wl0laUgKRiVlYibg1H514ViscPbzx8ffgvzzuXKdVk7L1A16en0L9F19mUOeqBJZy3aFHlUpsXCKJ6blFxrXeztoI58UniEDXApkqfh8rF/zKwssedBn9Pq82L+HqteosUlNSSM3IQqXOQ6NfmV8u2myt30jdwckVd3c3nO/braGEyIoyK55rt1L1W/wVvxah3KRd1CsunviXdRNOnMzDKRyYNZH528pQ78XhDO9bHa/8L5uHNpuM5FRSxLtmq9Qir+YvjC7/Z2ljjZ2dK66eHrg5WJm0J6WJNi+LlMhwEnIt9LuemFeuhagS5SvA28FQrhPZO+1l5kc0oduIQTzdrIzpci3ePyv2hqhrD7B1617ORMaTkatDY+WAm29lGrZsT5u2Take7Ml9c6YSDrBm4SKWXfPh6SnT6FfMtlsPhk5kkVNsnvY+Cy2f5+N3ulBXvGeppoUo11z4lec+/IMyfT9heM+6VPsHp7qXrmCThSplO59PWczBiCRybO5ujWIKudWGrU8F6g77lKnt3fLXyVGdYe2Xv7AjoTyNh7/EszVNySg1qdf2sXXx9yy5YIOHhzMOtze8Fs8iV4VOzxJGxKMRz77yIh0qOeBQ4IGyI49wYNkX/HKhN6//OMjE6sUieoQoTE+VHogzTva25q0Wfxsp2FL28MWbvxBR/wUG92lNkzL3ZyGdSjxrtgp1nq5oYySSS2dlg7XwhtzsbxveTM4u/JiFJ90o98RgxnYr/+gFmyGtZ0/6gRt1XmDIwE60LqJG0obtYvOaX1lx3Y/er06nfyVzBVs8J36az9Ij4DxoDB92vH8tqLTTS1mzdAfHrAfx+qddkOvPZuybxXu/xFCm5zAGPVmP4MKPlrmPBR8sZtuZCNLtbUyszi+3+8nCqUZn2g1+hTGN7lqh3BMLmLPoL6KD+jHkucG0KHbD0nzk9bLjIzh3eh+HDp7lwvVYErIzhGjLF43WTh44eJelZt1WtGlan9qVvHC2FyIu/+cPgI7c1Mv8/eFkfg21IFcjKpfiIl7k9xyXBjTt/jRvDa2Fg6GyO/LV2ywIrU27IX0Z1NTf9DMln2LnH8v5eMVZXBxKkBMttKiy3KnbXVQc43pSp8ifinIgjGdWcgY5ds64OcqtZ8zJUaKCUeeQlZaD2kG2vpvap1K8sza/3Kvlpub6itkU8llssHUUgkg8h4wX+Wypu2Yy5ZdU6owYw1PtKlHmwRPRNNFb+fHnP1i1NwwnO2t9ShlDq1HhUKY69Z79kLfbFqhhEg7xx5IVoiJ1p8PwNxnb2MzVa7UqcrOSiLxwiqMHDnL4wlXiRFpkqGQsifiwEbbSzZuQKvVo0qIljeuF4Otkh+2DxoFwAnRnlzBs5haSM9RY3Vn/UTogMsg0EMFwVNYNudnlqdmqL6+8JxcRl2dSOfL12/yy24/aI4YwuGcVPPO/XAxa1BlpxEac4MTuQxy8cI2bcSnkZIq6RTZKyN0pPJ3xD2xE/bataV6nIuU9HbF5pPto6shOPMuWaW+Lcm2FSphjc8p1tksjWvYcwpRnahpEbBIHZ0/hl6iGdHrmKfo38jNZrnNDt7Nx9R8s2xuHo58nzrbCLunLhVaUKSHcEzKwKtuINk+PYmRTr3uvk3iE9cuXs/qGN/0nvkMvE6u6a/OE7cnMJMdC1G8udiXcs1PEScJZts2ZwTLLZ3l7UgdqedkbKbfSbqSTK/JL0bsVyTxliY2Do3A87PLrVCnYLq9k3KwN+PWcypCutR7ZVpPGKH0TIjwre0fhnTs7mx+cRIQ8QObWRZ/hzI5VLLlkj2fVLgyd/DGzvpybv/H617OZ9vow+jZ0xyLxFIt/3MyN1FzZQVkydLlo4rYz99VxfPzbOa6lmDKJD0fuqYV88/GrjBr9EuPGjTMdXnyBF96Zw/RtMYZf/ouItLa1d8BeFNzSWz9XFBIpSvVBfpaesv6E+DP/j7vnHyItxLPbOTriZCw/3glOOMm8aSdEuqmWLum16h+r4DMbR1biycd+ZsZHn/LFL1s5eD2edFEE7RxccTHc095CjS4xlLNbF/DljFl8sXg/13MNF3hQLCz1XfH3v18RwUk4N3YP2FJgYYW1ncOddzI7ODnhKESPnawIDJcyjZqc1GOsFGVi7ILj3Ewxtnu4MTKJv7CBH8a9xiurb6A2NSVRp0KXsIvvJr/KK2Nf4qXC5fCeMIbnR3zGD6vPkWj4ealTIM/fk8dEPraxtRfxJvKqsTi9HWQ+theCqZQKqjZmOyu++IRps37mzyPXiMsU17V1MdzPBRc74RjkJBJ++m+WfzOTaZ8sZs8tVdH73xbizvvqP4nrW9mJ8ljovfRlVORVUane//6OODo8jLMj0aFOv8mRH9/m/U9/ZOnuc4Qn5mJp5YCjq3hPeR8nW6xyVcTf2M/m+R/z0ewlrDoSi8ldieU7SXFpeL8HxUKUswct1yVGfY7df+9i454kvKq3pc/LHzHjq7nMnSvq2rmfM+vt5+jXpgJ2YSc5vHIxW+JkzJUUHekRh1g/7WXGz9lLZG7eA1yjOPKEKLzA2tcn8boo12ONlufbYSwvjJzCVyv2cy3P8PN/mdLtARQVA26tGPlJE4ZpLbCSm9iKQ7o8NaqChtGwwa2lyNJ5ahGBFjai8rS7W7Bs873lok1Lun7sxYHtWbiV68r41wZQy00IiNsXsXTAq1pHunsGE+I6m1m7NrH1bDv8mtjhbWy7sCIxPEnp2DoT5HuJWo0atey6Mhy9D+GB5KoKxee/TOlFSw7pMcf4/e2fOWhtrTd4FhaypTQXlSgwccumMua3/IZ84dKRVf853ny6LVUfpN/QoREDptThKY3WuFEQFaGD+gKbFq5ga7gQ7YbDBbGxd+bW8b/4+fJuFglDYGXrSNBT7/JyGx99hXUPmixUV/5g9i9HuJagI7BlH9q3aUqDcp64ykpFpL3EIi+HtJRbXD2wgW17TnNq+1pysnSMfaXdA241ZoGdS0U6vvMjrWTrmo2NXnxq8/LIyyv47pZCZMmWRo2IWrm/oa0QkkKo6s/Jd5Ety8WVSQNuNWjevxJLntSYnTcsrO1Rn/6FH1ecJf72JrFm8GB5z/CrYn+c/wWdLJPykUwWOTW5ct9iU3npYckJ49yOTaz/6yCXtGVwbTuGz/uWv7PLiDonC9/a7eg7bCwdAzLv7LGrx9IG+7xQjv31Byu3xJfcYb0PcYXMoyz6fhN7ToeTV6kpbTp254naIXi5ivxjacjHsocjI4Woi7vYtmsnO87uYeXsLKzemUBLbwszxpRGc3LxYv44Ca79nmdyKy8sag5hztf9pd7RI/OMNu4Ep/9awbwD3gz+QFzbyxJ78Qz5wtBSv8fww2waJnfhOf/7HBYcTyTVugrt+3ShRcPKBHsI58I6vytSZoy87GSSIs6za+1GDlz8i/XrVGTwNGNaFO50TeDC2t9Zu3IP1/3KU6X5kwzr2wg/UdCKjZJ7EOXaoxqd3vmJ1qKutbSRTqV47yLKtaxrNQ9YrpOO7OTs+YtY1ulEz5HP07OCjbDNhpMihp3LtaXvCC8CfNbw/YarbN55mU4Dq5qxFV5hbj9LiX9YIuTVLbR5eoct725kFUIjyrXs9RJOueHIv83DOR/GEOIrv4UtnnPrf+TTzxax8KzqXpWfc5o/F8zkg1+2czzdGvucs6ydPJm333qLKW+9zTtTvmf96Ugy7YuYLq6JIzY2kjAHbyq370BdDxuj66PY+5Shcqs2VNJlcupyKGnZDyaV9c3uhr8fDVpU2W5U7ziciXPm8c2XX/DFF0bC19/y7fsvM7l9iQZNPRoshUEUkZIlMrTJlooSIQpGXiYpUVFEGUJkRCxJmXJtMiHaUmKJKHAuIikTmZwPkonlGBs7o165ITjZY+XujbuTcCRMNQuI91dnp5MUG0GkfKboaOIzhANi5OvqzEROb9tGeLIHzUa/wejhfehaP4Syvm64utxtkXYS9yxTTgiep15m3MgB9K6SyM0ruzh8VTzzg0axdJAc5PWtiNo8l6+m/syfh+PRFXxfUV4PzZnOtM/+5mi8HVbpJ9j300Ree+Mt3hLl8q23P2ThqSTi8/KdsCJ5gBY2J3trXJ1E5SEsfIleU98dZvi7BJhbnnXCqHu3HcVL733Ot19/abxMfvEN836YyPN9apjZxVYSYjm9YQNrV+3mZFgsMTExRKep7o0jkTEshTBxcBFCSJ/OBYJwhK1dXUT8igrWZMSKE5Yizezv7w4t/BOdVkvM/nWcFs/i1mEEI0aP5bkOtSlf1h031wL52MUVtzJBVGs9gOEjX+SV3gGkx51l2/EYclRmpHBqOFdFmYqztaNykEH0FGphk3nGxcUFV3u1iIIkVFYu4rMQUne+I1sVH6aFLYPUW6fYtjuZdJ8nePnNMTzdvRl1yvnj7eZS4D4uuPsEUV6I5sGT3uC5HvUIjjrPlX1nCTNc6S5CBMi1vaJuERl6gVM7V/DFuktklMBJuY1sYbPRt7BZEr7+K76cupD1RxMRBwzPJUMcBz77lI/nbOVUsrBpqcfY86Mo15MN5fqtj/j1XBoJapH+JgtEDreuxhKrqkRw7ea0qlhQrBXAtRoVatWhqVcayYcvESpyT8nfSvCAZbpE6DRk1xrAqDdn8N3cr4yUaRm+4tvvP2bcgGZUfIA2gUdB6Qu226hTSYi8xkUhkm4kZhsOGshOJPz6JcKik8gRFWdOejQ3jh7jxIkTHD9+jCMnrxGZkoVGbtFj+Ml9ZGSQnpZGhiiglSr7mxiDJBAC0rZMeUJEDsjMzNYPWH1c0WmtcfIoQ3B5fwKDy1GunJEQEkJIWX/KCG/2X0Xa3NQkYoUnHRuXLJIjM//4Q2GHo1d9er73Hm9PncrUqe/x4SfjGVi/HF6OIQT2GM+0998Vx8W5995n2sAGVPWGXLkwlM5S1Dni94YrSWMu9bupqsEi9yp7f/uV7z//kq9kF3rhMPdbvvt6MZtPhpFlwnHQ5GbhU70lfcZP46P3xTO/OZmRTT1xNNJ8oMlLJz46A01gU1o0qEo1b3vsTFlI2c0lKl6/Bg2pV7sCnlmJhMVmm3wX88khOfwqV87dICIuXXy6jTSrmSRcvsiFpGwytVZYpIgK5dJhjh47kV8uj53lRpKKXLlVS/6PSh05IUKmmE4Kd5MF/350ctKSEHvmISp0B1uszVW/4ns2HoGULR9CmbLBxstkuRDKizLr4+Egrmv4XWmRcpVzVy5xIq8MIV3H8s5bE3mjU+D94/XEc2pN1Y7ihNaU0yGwEGJPnRDGud+/5Nu5ckjJV8zZfImoVPX99ldcJj0uivScqtRq0IAGVTxwNNl1Llt+HHALqU39Fo2op8niZlSicO6Kr8bzwi8Qk2SJq29VapQzHDRCVloKMcKp0+rSuByejtqMnnGdTggd4VAUv3RzDqqMBOJzbCjXrB31q5bF08HGhLARIkO8q6NbMI2b1KZ6WUsyEiKIvW84gzvl2/dn1Cdv8vLAZgSlRBK64yyhObJV+0HJISXiSn65jr+3XOsQdufyBS7EZQjnVpTcVOHo3i7Xx2V9e47QFLUo1yKtDL+6n2SSY3PIsAvAo2wgprd8tcbZ1ZtgX3HflGxkrV/axaHUkOXFyY+AkEr4BQQZKdP55TqkfFn8POVQFcPv/mUenWCzccRRDoy3s71/3IQqF0thcNyd7XGyscbBswbtX3qJ0aNH8+KLY5nwfHeaVfDBTlVEH7ZU4foaWUdOcYVU7mUo/rGy+mdm7zw40ujK7k7Dx8cZSw2pF8+QkJVFxo0zRETFkGI4VRQWlpbY2Evzdi/56Sxbgnyp2LIlzZs3p0XzpjSu35QaZdyw0TrhWrY+DZo0059r3qIlrav54yZycJ6++114w/GH2bD2T9asWcOKvREkZ2nvdBvdR14cV44eYOemjWzasI516woFcZ3fN+zl+NVIUtWy6dzwuwJo89Q4+4ZQq2UDGjdrQfNmTakTYG9iUoo8KN5Sna03jmYZMk0eGlUOMntblmi2pSmccfdxEEZVdoMUdIbE02SnkyrKoiiU2Im0tQ9sSLOBb/HG6xOZOHEik157gZ5VXfGwFhWLWQ9fcnJz0lCrbLG3dcXFnMEaBjfc5uZuNvy2irV//K5Pe9PhD/5ct4I/tp4kzNaM5QsM6LtEzWkVkph7UXOJjiA+LRnLslVo0PZJ2jSsT5NyLsUPMC8BcmayRgiTiKOb+HPtWpH317LmaAQJmaYMkbi5hcjHaq2ZLShChIt8LCtwCwuZ74p/+Iir4cSp3fEIEs624dj9pJAQeZkDlzLIy83h2oETxOQW90SW2NpFc/XoZn5bL2zFb3+ybuMhQsXDGXXlZR7T6FBl56D3J8xADilQi+cQVkk2wt+Lzg73oIpUb92VTu1a0SBQi3X8DSLTNDz4UFVR17rlOy36fYgNR/XlOldFjq0dVl6u2FtpcShTn8ZPvsy4l0Yz+kVZ3z5DpxBH3KyLSkvpDItUy8tDK96tKPTuloxIYQQfk0Yp08guUaFF/kuURi1gAtnHb4eT8OwKmzpdRorwhNSyFV5fSixdKtJo4AD69utHv75P0XugEGzlvYVgUxsvRBIXN9zdPHBNTuPK2VDTmV2nJif0AtdFLvL0cMdWVkoKD4kWXeoVtuy/gnVQVSpaRBJ25CiHihkdL8WaOiuN0KNHOXDwIAf37+PEjUSShUto0hZmXyciPUVfaeWGXiXJcLggFsKzs7ZJJyV2P2u+nccPP/zAop1hJGQIY2hKsMnuBFFpu5WrRb32venb50l69+59b+jVgx7de9ChSS2qeRspKuLScrkEky0bBbAWIiSoki/WMcfYtW0PB68nkJJjQgToVGQmhHNx5072nLhFpksQ1YNLY2094QG7WYj3FveVy3sYjkqnBxHHiRot9rcHptu64OoTTFDZspQVXnVgWX88HaywkrPxDD8rbbIyksjNtcoXbIZjxaPD5to2/li6gG+/m69Pe9PhO+Z9s4gVG48SamO+YPs3yc3O1Fcq3u4u+HuZfmIL2aVpqpHRUnY1m+6t0AnHwMrZm6DG3enzpCgHIvRrHIS3k5EqVyhFr5AqeNiHc37fNnYcvkF0qsqknc7LiCf81C62bj3GRStPalf2FTa4uGonips3Ush08se/UgCmXkt98wTHD5znqq4KjeoHoD6xjW1nYkkusjwKh9EuiosH17L062+Y991PLFy8hQsZwqrdl7GdcXALJMRLReSRv9m65yw3EzPJNVEAtDkpxN44zrZdRzmbaItbcEWCC3eEFEgEnb03ZYNEzFlnkJUt7MgDFyw7fbm2FuVaFuW7iA+ZaaSIuk8nhJxOI+yzWyVqth3CoAGyru1H375P01EINlch2Ew7Yl54BTjikhtKfKhIb8PR+8khPfEWV2KssfR3x10ceYQC4/8ljzA+bfQTC2ws7zfwuSoVmjx7cd4BOzlsIi+dhJs3CQsLI0wuwnfNjC5RCx/8A4KpbJVM+P5tHAhLJaNwjtOqSLl5ieN7DnPT2pu6lcvgWnBdj/85ZKujqFQNnx4ZOXHcOryeTVfdqNjtGfp1rYbt9cPs+HMbZ5LVJj01SytbspOi2ffL+3wybRofffge3/x1ievJpiyFjuTTJ7kUHUtSTiJpYRc5bnQanhRNttg7CWHTqBENGjSgboibvmsyfwancbTC63eo3JouIycwdtx4JkyYcF94+dXXGDOoG+1C7hf6Mq5VQmREh8ZzK0Lk3/BwotPE+xt5HWtHT6q3e4JawblcWP0DS5b+zoa9Jzhz6QahN8Pz874I4devcP7kQbavns9PK7eyNy6YmvU70aSsuF8pKAwrK3vh9QvjrFXrW+7uIMS0LBm+Qhi4ulijvi4q2e9f5tXJU5gy5S2mvDGdpWeSSZRj2ErhOYxhoRM5Ry6DI65fkltoPMtTrXZ9GjVqqE9706ERjZrUpWblANzN6JYrLfRl8gHNzu0WKdmiZmrsoHSEVJlCLNyU+TA/H90JEVEif4YRGZ+B2kSznC5PhY13OWr1nci48bIcvMJr3aoR6GZzn+2WY/88G/ekec0QNCfXsubXBfy6eT8nzlznRmiBfHwzlBvnT3J460oWL1nK4j2ZBFRpTff63jgUt4Jw6jWuxedg7+VPxUDj0l2bcZl9W3ax+7Sa8q0HMPK5ztR2vcy2jbs5dD4eU76QtCkajQveZatSu0kTkWfqU7dOBbyNDvq3x6VMbdp1Kk/ZrP0smS/E/rod7D95gSs3bhIRfjueb3L98ilO7P+LFfPmsXpfGGmVG1G/XW3uX4ToLnJMobXerIiyV5IMbwQ7u/xWsHteW6o3da4QmDqcpCNmayciTji2MaHC5ojnDr9JeIQ5XaLWBFYtS4BbLFHnD7H7ZLJ+7PA96NSobp3i7LHTnEpzx79hFfxlvjWc/l9EX67/4WbERxif1lgJj9zaXtSYhcaN6dfMQY59cMPdSUd61H6WjZ/ApFdfZeLEl3npjfmsPxVR9KQDHAmsVpuWXb2xiNvFj18vZ+fZMKKT0vVj1TJT4wg7sZn1S+fz7QELnCv2pGMNx/sX9PsfwkIUGnV2BmnCk8rMyCBDhlzNQ3huRtCkEHf1IGtWnkFToZuI0+p0Gj6Qzu28ST/yJz99t56TiRr9uLL7bysHR9vg4lOWwMBAEcri5y5Eu7FGT1l5J+xmzYZTXIiyxN/fgqzk82zYcJYUIczvvbZs2vbEN6Qvkz79lOnTpzPtmZoEuAtBJce3mUJUhtqcdFLj0/Tj0fTxVUTIzBTedYF63trOmZhT21jy8WjGyUpOiJsvdiWQYaz7zNIe6wq9mfBca5pW90J9dRcbF8zk43cm89qkibwq8r4ME994m/dnfMeKPWHE2VSnVbdeDH2uQckW+CwCT99gHByzSc1K4c4KNVIJGiqM22sAWtm74OYTRJBsXdOnVX4Lm6n2aY0qk6xM4/FmTshSaUjP1pAnZwVrskgXeTnbcC73vvQ2oG9OsEBVbzivvjeDTz+drk970+FTPv1kGm+P6U6dXNOtQqWKXFtOlMl0IeRzs+T7ZIp8JBxWw+mSYDQOBHKCR/yFvaz6dDTjX8nPR3fCKxMY99os5q87SbKwp0Z1gbiwbGVT5xQaayy4//vCItvVpt/IJ+nctjbeGaGcWTufWR+/weTXC+TjSa8z+YPpfP3bAS7EeVG1UQcGjh9IbWc58KFodDcuEp7hIsSSP+UKKx65/mP2TfasWMbaXVfQ1mlKpwEt8fNtzZBu5SgTtYqfl23m75PRZIuv3m/7hG3KrEKzJ1/mvU+mM3PWx7z/9rM0dRfPZSRyrJ39qdrrFUa0qkIl10TObV3K99Pf463Jk3hl4u14nsQb73zCrB/XcyQ6D4eavXmqR28G1yp+EeJ7W8QeHBs7RyEeLPWTQu65pCzP4oCXqzPOwhHLvbKVTd9IeyWee+IkJr7yIb+eLW7SAbjUb0+9BnWxv3mUv3/5kdVHb3ArWeRrkZ+zMhKIvrCFFYuWs2RTGC4htejRJqRUu+0fO0S8ynVeM9I0+jpXX66zclCXUnqa4hEKNpFBXB1wtcgiN0pUYoajdxFvpm99E/6jqDit7eyEl3A72OgzX7Hp7VmLGu2HM7KpNZqoPSyf/Q6vT3iR0aNHMfqlV3n782VsuKjFrXxrXhzfhRBnEwbrfwErOxwyTnFg5SeMGzZSxMELjBk7jpGLzhCTbu4aVcWRQuTRTfwwZzlHqMGA0V2pJEQRlKdVj5707+pL/JGVfPPuB3y/6yYJqnuNh0Z4e06+IXSf8gPzv/+en35exPQhDajtUzhVhKWNP8Tib5az90I8AZ1G8tzokQwqH8Ot7T/yxR9XSbmvX0LkJW0eKsMnOb6mOGNoJSq6zDMbRUU3lmEjRXyNGWMyvDDqeca/+gYrL4pry9/qH1nkXuFiWdva38m7csycqTwmjzvWGcGk9z/mjZf60aVBFYI93XF2tMHW8HtHd1/K1mhDl6df492PpjDx6SYElWKmlV24Ml4shEd976xBuUSBjkBvD/3WaZblO9Pr9aUs+ul7vv9edjXOZExjb3xthFNQSOnIyj50zUTemjiKkaOMx19x4YURw5i67AZX0mK5snse7zz7HM+/8AJjXxrHrydzKDILa4V3r7qd8sWRq1+R/x8RayJObe3j2L9oOu+NfY6RLzzP8yOFQJ+yiasi7kvnGUS+F+mW3yV6Nx/eGwxdojLhjZQJI4eKx7Ml/V+ZyodTJ/BMp0ZULeuJl7Cvt+9n6+SOW3BNGnV+lnFvv8d7U4eYvbj0tcvnSbP0IdC/DIXXGM+LPiDs/CyWbL6IVZNBDBo2hHZyaq6lDUG93mBE66oExm1g4Rdz+Hzxbi6l5f/uHoSI1uSp7tiK4rC086fe89P49KPxjOnZkjqVy+Du5oiDjXhP+b7SufGvQI12fRk+WTgGk5+mT33TQ/MfBa5uZUS8p5KSnmSkS1jkEZE/ZDrLmaVWNgXzia1+2EixJsayEm2e6MaAHpVQhR9l09x3mTx+DC+OGc0LY17h9U+XsOFYnLBvbWg/fARthAAuRbP12CGdpAt/fs7MScN4btQLjBo5nklv/cTeFFHPPVCBMo9H2sJmL3cdEErUwsqWgkuf2eln0fnj7uKjbzJ2Du7CmMW/8sP8b5k3bz4/fTGep+oH4ZRdvCfqGFCHFs9N58NR7agRYIcuV3jnqalk5Oiw8mtIy4Ev8/47g2ngJURh4RykFR59bjbZ2aa78f5LyC6lvMItRTml08KmDj/ItgVfMGPuRq5bl6Pl6LF0DBTpejtOPRvQttcAxvWtRN6t8xxePoN3fz1NeEq+WSwY9XIgrlwhW3op8p+76NBkR3Jl2498/Okitp2PxbrlMDq3bk7bpi1o2GMYXZ3DubTxC96Z8zs7Lsfrja5+Z4uSIuJKnZtDdpbwjArGl4kgv5OWns6V6DT0jXbiltLDKlO/K8999As/ff8d33w5hzc6+uBc1CJT8pS9JxUb9WDQS2/w3qzZfPn1PL799lt9+Hr2p3wwaTgDO9ehop/wmvN/9eDkJpBy5BfGjRvP+AkTmPT9Ea6nJhC6bzGfv2zo+h0/kQnvruS8UKKn13/OZ5PFsZde5MU3ZzFtzXV0cn1FOYC6iNfS5sqWI+NxJ0NWrsibopKUY7LuHhd/S69Ubs2lEuUwK5usrCyyMgt+J4McYQGLzMLCvtjZm9t07oC9fl2qfwghDuQ6aVkF3lm2sBU9dPsuKckx5IjfS0EmNPb9+LRk4Nj3+VkI69t5yFiYN/9Hvpz2Fi82la0+iRyd9xqvf7iCLTHl6Dr+E3785DWG1S3pApWOeFZoRMchY5n8wSxmflHgnl/NZs57rzJ2UEcaV/bG1fCLopGpHEbo6RyyvILxLuN5Zw01dVYExxe8w1ufLOCPk8l4Cieuf/+etPQ3fEEWLCtv6j77GiM616SabQTH1n7Hj9/MZb1+bY0iMq8ZyJZnW9+6NH1qJC9P+ZjZc77mm3mGd537BXOmvc2koT1oW6sMnmbvxyqcJP1jhRKfKPLJQ/jV9rayfFrol3e5sy6uhS0WhuVcgny9cXcA26pPMuid5Sz++Tvx7HP5dt40RtZxxdvGjMlE3vVoO+BFPnytP00DnLDMk3YxndRsDZbu1Wj79Cu88vLz9K5kZAUDWTfJiSc5cokmw7H/MiKuNVI7FLB5mZk5j2xC1m1KdWsquZJ75NbPWH0ylxSV3JQ7hvhkYZCdfClXxlm/npVsTdOmRxERq8XKzQM/P2dsNFpsnFyp1H0CfWpYY8N5NsxewNa4kGK2prqLTiWMvDD0qSmpZKmkB22DjYMLrp5e+JjYmVunFhVEWhIpuc54lXFDrnV6X7HW5aCJ2cFnby0hocPrPN+zPtU9S1D4zdyaKufIN0xfeB3LpgN45tmWVCpRjZLJ2UWf8OtRC1wbdaJvuyCsc+RYIBHXbgFU9HF6qBXOdTf/YsUf29i0N5Q898o0HDCK5ztVwuO+cikKffJNLh49wuZ1VwkcO54eVb1wF9Fv1tZUubFEHl/L1wv2ERafgm29ITw7pBttq7vnC351ClEn/2bx90s5nOmNS/nOjBnbj2qZf7Bh4RaOWJVgayoz9xK9jb4Vw0o4Id4hBHlYoz46j2nfr+NWyDOMeGkorQotwCUL1YPHuJmYc5PsGBIOLOSZWbtEdhACWbbESOWl06IpuNCrbOW2Fl64Rq4jJwSSRoXKsTLlWj7HF683w41k01tTie9nJ1zjVooGlYmtr25tn8HyazVp3L41rWp5YSW7jXVZIsmPsuzHHVyr8iTPd65BNR87cg0uqj7OxXO5BVQSZTh/zb+7qMhOOc6KsV+zwzWAAF8XnG1Efi/SnIlns5TrYMUTG69D3fFVfni6svGyoctFF7+LWW8uIr7tJIb3bEht7+Ii+y63t6Z6a1E8wV1707Z+eXythFDTWGNt60FgRS8hHYvnxu/vsOD3CHQthvLs6M4I81gKZHJk5ot8e6s9A14aQs+qpp9ERue9TtUj4PZNZHdnwhY+fXcJ6U3GiXLbnHq3xwLkpZJ6bg0zfo6lUsfOtGhRm0rexjfU12QkEnF2CxsPRZPk2oTRz7XCz0rmiwfdmqp0kU+if+y0SEK3zGHK7zHUHPU1L7X0QbySeaiSSDq3nS/XXtC3kGnSbxEZmw0u3vj6uuMohx3J1nR1KpGhsVj5lNPvTexgKWy0S3mChaP5fHu5L7OIkzmvsyCyIR2L2ZrqDnk5pAuhlpUm0kSINa34hY2dE25e3ni6mBjGpMnWN6Skq61x8RS224imkzGTGrqXv7/7kbWOz/HplLYE25vaOs4Y5mxNJexb3nlWvfAZa6sN59VnWtGkrDkl0YAo13JrqvGzN+HUeCidm1angnMOqjxhn2yd8SkXgJsoo+Y/c8koXcGmyeXCj/355K8sotOtkF2b1rJrU3ZZyC4qw/ewssFWNnfJcRPiuFaob2sHN2qMmc+7XXxxtzrD2jnm7CVqQKtCF32cJdsuEdhiAM0qO99Zj6so1CnCmzu+i8MxtekwuD5lRMa/L7P9VwSb3Ev0lCcVej7DuE6BhuOlRMYlti5ZzoFwa8p0GEi3FlUJKiqCc5O5eSkRt1qVkPv5yzg1S7CJCjzpyn5+X7CcaxWeomubVjSr6oFDwbjIS+HGsV3sXL+WS0HP8fSAtlS8tYjlP2zmoFXBzd8/YvL8W6Y3f39Ykq5y+koE2U4hlK9cAb/CjROaSM7sOsqpi9FkmbXVkploheBwqU3r1nWoG+xavGHQ5JCbcIODF+MMBwogPXJLISCsRZDlVAo6wylxI7SWTjh4lqN2iNwsL5mDM1/hW3M2fzdC5OrnmX6yFU883Y9eNW+3t4gKOmYzn0xeyolGE5gxvDmV5dQys1CRlXyYX4fNYptGTZocJ3vHwEhhao2to6jQhVOWqdLoNUE+8h11WHoE4tz5DZaOqPZIBduUX9KoP3o8A1oHl1wcJB1i+dc/sO5aEE0GPM3oJ6saXztMF0/okcMcvpiDZ+vedKlYoLVRG83lA8c5ciqMTFu5z6mMiFxizxzlSrYvwZXLEezjgIVsxdQKJ9rWniqdhtG0rCV2+gTOIvb8CY5tP0W4vW0ptkwKcZ/jT+XGDWnePFjfAqcTeTvn8Cwmz0ug2tAX6de5coEuUZG+6jguXszGu2J5hA9aNOokouOyyRCxXjlQVsjyvQ2bv283bP7+1P2bv+eF7Wbrketcj1eJOqr0jIZ0hFzr9aJ9nbL4OxleStiy1At/8v5H60muPYjnn3uSNuXyFZt82iJzW3YUt3b9zLOz9+TPhNfXqeJ5tUKQqaWIMmBhha2oh+XEEumgyb06c52rU6XDKL58pZHIT3Iv0TfN2ks0HzUZsZc4tvE04XW6M6yRmbk6M4xzJ05wOsGJuu26UMtoj/F/R7DJvUTL9PmIoT2qUK5UnCjzKN3N30WBiz+xij3XRKKqjHvaRhGPYGFjh1e9brSv4oq9Tgi2z0sg2PIy0ZxexJBpm6g54mue61iBcsWvikhW+AH2LpzB/LP9mLpsKHWFh37fnQoItsQu7zC2T00qmKMGb1MSwfbLDWxaPc3wZxoTZDhuHo9+8/e0qyeJybXDoXINgsz1Agtg7ubvWnUGCWf3ExbQhcb+pjNQ2sU9RPu1pKKnFdYpFzl77CoRlvVo3yE4v+Ui5hBbjqTiVLkuteR6bWblRVFhxEcQGhFBYrqo6HM0wsjJ5xRFRM4IsnPE3sWTMr6BBAe73+mukYbivrdRHWfNnIUs33CGJCc7k4P1S4xGRbpfX16ZOICBTco8vBDUZZAUGUFkfCZZ2dnkb68k39gCK/HOdg4O2AmvvUx5bzTH/+ZgnC8hdWtRr5wZYrEAN1Y8z+zTzek88EmerO+T/9yyhS18K7OmruRU/Rf56Jmm1PQzN3PJwb4RnFy9l2vik+xizH8eOVtORXZyFJf3XSQquBHtq3nhZGuJ5vbYANnyILxhm0ptGNjAx/gMzgKCLaHjW7zQpzZVSrDJ88Ns/q6VrSJH93H67EF2XNLiWK0Tvbo1p1mwiYpFe40Dixfx65ZUyr04nbdaFzB+eWf467vF/Lz8MAnO9vkL+wqhLnc1sLWQk3XU+q135Ob2UlTYOrrRZepvjGpoTX7HRBIX1i5h0fSVHHF1KkW7oiIzrTadnnuWMS82JUAc0WnSubzwNWYebUCfl/rSrY6vySU9HpT4Y5s4ct0Rn/q1qV3l/lbOnINz+OjnXey+koXTg+y5aQKtOpeAwbN5o18jat0R/iL+026wZ+lvbDqdgFuNutRp3o4m1csR4FxM6cpLJ/3mCX4/EG5+PSvRCZtm7YVniHC8WgSJ9y+pYMsk7txmFk5ZyYGe7/LriJq4mhNPCQf4fdEill315ekpH9PX6OJ6twXbT6x1foHP32tNyfbz0QrBds5swfZnzReY8lxb6pk5tlJPAcH2b2z+XrqCrbRQCcH2ZUkEWxaac8sZNXsLNYZ9ztAOgfibUUNqYk+wb/Fn/HiuN6//OIhaRQm2t5dyq+ZTdGpakYrulsVsxSQXD7TF3tGP8tU8cEjebYZgm8vMxRdJC25Bx471CRKVjulbyOZua6xEwStfKwAXi0cs2PRGPv9P+UGjyiAx9Dq3hJmtKCpylzsbuJrGXMF2LzkkXg8jLiWTbFGr3r2LnKRij5UmR1Q2wpu0koNnbUTaiYo6U4VWVD5yn0E7G3s8/Hxxd3csIK6MoFORkxLFtUtXuHHhDIdPnSI8Po3kdFmZyecUESBbopw8cPEtS/XKdahXvypVqlUhyNsFJ2N5Le8mRzfv5dDpCDJlC5uF3NdQpJkQGnnymR+01AmDm+PakK5dm9CkgrsZcWgc2W0UG3qZS5fOCWFwirPXk0hOSyVH3xIu3lg8n7WNAy7efgSUr0GNhnWpV6s+9UNc81tZ5BdkN5YRdNmJxEXHEpvrQlCVIDzED0pfsBWNOm4nv05YwLZu7/PLc5XvGUNrFgbB9tmUxURW7037ppWp4lF0uZctRLYij/iUq4CvrZqUBxJsOlQZV/n7vYn8ctUO23oDGTWsB50q69ugRDAS59obHFm5nBU70gga+T6vNi/gUWoiOLtjP3sOXSfdXjgOVnKJkYItqeKqQsBqhWeiEcHK1oFavcfTNsQKe31CZ3LrxH72bjjCDUMLmxyTbGMlB+6LfCwy8oNlZdnCVpYarVrQoUNF3MVnbc511k19n/W+Ixj7dGsamWz5yCH5ZiSxialkifcxK1olOiFUhQNibeGMp58nnu5CwBpO3UZ97S/+3HORyzH5LWz6IQSy5UqjJk+2Qhq+V1KkGPZoNoTujUIo61IoDRP2slA4d3+dvIKu9cs8N7gf3SoW/VYmckIJkVeRgm1KCQRbFvEXt7Lsgz840v0tFgyrat4uAGkn2LRkCSuvedF/4jv0MroxshRs+/h73nf8SReeG1AbH7ljTTF5TCvi1tGrLAHl/LFLOsOW2WYIttGz2eDfnl4dalLH3yF/txwTyHJt5eiOW0AFyrmICuHS/6xgE15wVgZpqTnkOXviZ7zj+n5Up/nz85/ZLgXbc+MZVstMwTZnKyE9XqNXk/IEOamMrk5/GytRGWVFHubE+sX8eaMnrxUp2LYz6+0VnE1KJUNElzRSt5c/ME4eqlwfAir34vW5A6iZsoMvhWALL0qwHf6G2asOc+hyGlZyFpNc2NTkLWSztxtObt14e9kwGlhlc27hR/zyCFvY7qIjK/4Uf38qKkJG8NE7T1DX26FY46G9uZNNqxey7Lo/fSbNZEBlcwxOGFve/ZzVBy4Q5mhfMm/bQlR8Wf50GjeOAU/WL7JLVB1/lkObVvHzH2fIcvPBw8U5f8KMrNjuPGR+l5H0lLOzkolL0BLYZjD9+nSlXcX7m1yNGVRdVippuOLmWPybm8WDWm1NAle2/MbatTvZl2CPt7crTqIy1q+SXuB60jTI3RxUuRlkJCWR5NueIc/05YlGQXgWkcG0oVtYs3gNv0fX5sWZovIXWiNUCLbP/jHBlk3Kzd2seHMJuzu9wdxnauDlWIwNKYxesO1k1lvLOJ2YQrqsNIop93JygV/N1jz56gf0DRaCbeeDCba87EiO/PQ1ay8lEulQj849utG9RWV8TUVNEYLtviwinJysbGkbDWZfOhJCpDma2HPTqC7XpJGWYSfsj13pdZEKO6uO3sHMycvI7fMOI7pWp4LJmQoR7J41j9/+OspVJwfz7YJ8ZUstORkN6fPKEAY/eX+X6P2oyUrNBldXHkWx1eWlEXtiI4sX7+F6dh6erZ+hT+c2NAkwK7PcgyYrkZR0DTpbV9w97hej9yOfJIkDsyazIKoRXZ7tx4DG5gi2bSx7fzVH2ozig54VcBXK/k7rtTGEwHdMPM7GDevZFhtA31feLkKw7efvb2azOtyC3FzDeFqRAYuKenVWOuXaD2fg6BG0tznDxlnFCbZzrBz9BVuTU4iXPQrFlGu55JNDpea0HPYOk5qJWL347wm2kueKEpFOxP6VzBUGbOpfkYZj5iCnqOdPORb1ptlYWdtybvUsZrw5lpfGv8Irr5gO418azRvTf2LFOXvjXSIFsbDG1t4eR1d3PDy9RAXnjZeXVxHBBx9ve1xcUklOFb8vWEJNITK1rZ0jzvIeXt7iHsauezvcPu9Y6l0G5qDfdNjBCScHG/0sYLOQnqqoGBzshJdvdq6zwk7Gh4hvb6PxUERwdxXx74idyEBF3y6Cs/u2seaPS2iDG9Cq/yhemzqD6bPnMGfObGbPvh3E58/nMOujt5k8vDNNK7sSv/t3tm/dzen7l68qlNw6cpLOsv6D53n+g/Wcji+NfUEFZkZ9YeL2rWLDlu3sywmkWrv+jJr0Ph/O+LzQ+84Wn+cw+9NPmPr6UPq1rkb59L2sWrGN3WfjDVcygaU1NvZCBDiItH7AZ3wsuF3uXcwr9/K8h8h394y5LDGyFSiIFhM+Y+rottRRHWLdik2sPxT1QHnmbvSryIw+ye6Fn/D+qy8y+oVRPD9yJKNefJXJM39iye5LxBvZqKRw8ZYtRVeWjePlkV+y4nCksPClhHCEcq5c5IrOk5DyXrgVOaRF2AW5001J7YKwmR6uzrg4C+dP2IVis6YunqjDC3l/zDimbY4h3dztyYrh7n2zyI4/zIqv1nJCFULbF6cxZWi7BxJrksTD85k/9SM+X3waIyNWTWChF+wOhuU9zELYckt1Jtp9c3ln8quMn/Cy0Tr2Thg/lhc++JnfD0bqHYOi0Ldo2onncXIT9aBMs+LT2MdXiEzhXKemqYsUXncR9xDl2t5Z5CEzy7W+PjGjJ+lR84hb2FII3b6Gpb+cIuqp1/iun+ld4e7F0NyusxB5w7p4QWVoYRvz1W5S07P1Rsasl9IvROWGk3MnJn5vooVNIqckFxzIaS5S2FgJ9Z5a/Bg2Ifv1G9MX5ajcjxRBUpA8+jFsd8kf2Ln98+ks5Rnefq2TES/GCPpZiXn6lkMrayn0DMeLRLbwiN/I1g3DkeKRF9aRceBzPv41joBeJmaJ3iZqJ2tXrGZNRCA9XnqdAZWsRf65t6XpHm57fLHbWTB3FUd0Den07PMMqFZULS0F23m2zf5EH2dvTepIbTNaJR8NtzjwzVyWn7KjTO8hTHqyCnaGZhTTryy8UF0W11Z9xLyNWoL7DmXwU3X1446MoQ3bwbqV61gfU5ORH75ASxe4sWw4M062oOuQp3iqgW++iJYtbGF/M/2tZZxoMI5Phzanln9ptLCpyYjcxbLXFrGzy1vMH1oTtwfxbB6g3Mu8Y2kju3EefAzbXTI58+uH/PpXBm6dn2XYiBYY3Qe9qC5RPToSz23jr0ULWB8hPmmlbTWcEqkuHhmdbQDBtbsz7vUulBefTeYFUYavrXiBmetr0nHSEHo2CSzBNmKmyUuP5cLKN5h5sA2jPx5AswDXIoYxPIhdkIt2p3Lk6/f5da+/SBMzZonqErh1dB3ffL0Xm2dnMLmDr6i0S7HUZsUQu+9HXlt4kbKDP2Zc+woEFe4uLQHxu2ewYEUMWbWeZuy4Jsg5oMWT34qep7PU77Vd/BJJWcRf3smKKT9zwM5K2HQz00BkMtk74V+jBU+MecNEC5t4Gtk9L9PW/ITNR06uEPV38ZMOJKIuUol7GD6ZhSzXcnKW7t8dw1ZiE/LPIMf75G9tVaxYK4BcDLH2wCm8/dkPfD9vLnPnmg7zvv+J2e+M5una2YU3YrgfkRmsbW2xLWmQXpy55U+OkZILMRq7jslQgvEbJTBtjwSR4WULqK2NuWJNIgS7zAdG391UsNH/K9clMivuRQWUJw2ElS0Ockq6XOKjqN/dFjauTuIeFnoRmvefWlhIPK8wVnlaEU+OLvqxXdIrLfqVhbGydMbFQZRHjUo/Bs9cY3c71wX1/oxPpgzhiZped/OshQO2Zbvwypdz+eGFplTxKUZVaa5zYNVc3h07jldur+R/X5jEpEmTeWfmag5babE4MI/33nhVHDP2XUOYOJ4X31/OptNx977XA5R7vc0y/PzhccLTywZnh3ASkmOISjYcLinZ17lx8Qg7Yt0J6TyRt2fP5WthA/Xrs837ilmvDqRXlQziQ3dz8LKozv5xU5GHShXBxVNqdLVqEOJoX/SY0weyC7Jl314/I9hs8/OIkSvkR1w/K0fv4e/hpd9K759HxqWIH31da+b9peC3ccKy9cvM+Pwr5ol8ZKyOvRPm/cDPHz1PvxZBZMnlpopA2hqrEteDIpSkK07qC2PXKCqI+ClJb8F9RaiUytQ/I9hEIljYlmRqZSHMfVmtFme/8lQI8cDTxw8/P9PBx9ONchXKUsZZDrL+/4AFupgTHFw9h3dnf8/cfbGG4w+BpR0OTma0rv0LyHGGZuEXhF9AIE43z7Jz8a+sPXqV+EzDOWOo04i/spf1Czdy4Gwarl6+BAeWoD1TH2f/VuuaJJDgyt7425/n+F9L+X7DEa7GZd+7r2hBdFmkRJ/jwMov+XX7dW46VaBMmfwFr4tEjsG0tMHe0LVl4+yLj5droZl34jvWTniI8ujvLsRbISV/v9GTz3KTq+fOc+HiRS4aDRe4cOEyV65FEisXtIwN5crli+KYse8awoULnLsaTXyauWvf/3N4eAfi6GxDnjpbBMNBo4jYkt1J9kbsrJUKVXYayRp7nH1CqBjsRxkR576+Ik18yhASIuLfRZQZVSqpReX9AshJT7biXmZMxjeDTHLjrnNaCNLKVSvhYvcoBnrI3FTSHgwDwqGxsnPCqZQFlezcUqvzRCkIwt/LWoh9w4mHQCdbymzszVrWyjjmtJjl5zU8gqkQFICPyEfG6tg7wccDl8pyG0I7NEVt7vw/hEXcIdb88gVvzVrGHwdvkVdKWefRd4nu/JPl87ZzqUYzuuhnOslMpf+nGLTCQHngF1KTFvpZREVg6BId/cUOHCu0oEawB262miJbziytbFClhnPr4nkupz/BpB+K6BJ9GMxc1uPhMK9LVHt1PasW/8TnJ7yoNOhtlg2tZDhTEmSX6Dl2zJnGspSaNKofjLeTNRZmdU+I72iF9+xYlTYD6uqnbD8qj6HYhXPvoCLp8j62rFrNn8fjcahYg+rlyuLhbIedjfA+xTfy30s8e55KP8A1MfY6585FY1WhLd36PUW35kHFdAvJLtELbP/sI32cNawfhI+ohPVrXxm+YRrxHZ2dqByr0nZAPfxE1nnYOMtLPMPB9b/x+/aLhFoGUadGBfw8nXG2k7NZDV+SzYxyq6/sdFKTogk/f4ZrVrVo0XMQAzrVprKH6ZKiDdvJxjVrWHrWgfqt6xNgU4LOB3FPtVsIwTUb06lwX4M2ifALV7h6I4GcYscmlgCdBrV9OaqJeKjs71QqYvphlvUoiPrUQr5evJkbvr0YPOJZWhtTytobHF29miV/XMaifisaB1jrbazMXXl5blSuHQBJZ9my7C/C/VrQuJoXLiL55Mr4cv/h3ITrQtRGccuuAcPfnkB7UTBNPWp+l+ho5vztjBcB/FcAAEMtSURBVEet6lQOdsPO7G5jEbM6T+p060BVH/u7M3czwri65Sfe+jWTAZ/NoGcFW5xKr5nSgCxpsku0BAvn6hKIPraBr+ZsIa1WWxoFOWInnIqiF2c2IPKx1tEH16oteaqO8W2qVAlXObH8Lb4+WJsBH79OpwpOPESPKPG7P+PX389yybI2DZsF4izXHzScKw6tWoVvrTbUqV0Z/bJ1Jski/tJ2lk9dxqFKTelUzRM762IWrBbizjYrigvnzxFtV51e46aY7BJ9OMxZh+0hMXdZjxur+GDOCv4MrUS/YSN5Y3C1YlqNzeMRC7Zkru/4k6XTl3PEzhKVqiTqWkVOVkXqtBvI5GldjY/duI1ch+3MYoZ/toOk5FSReQyzLA2njSJfWxQ+Sytf3N268MaiZ6nzPy7YdAkXOXPyKPuiHPGq057BDR5kS3FRKOLPsGX6VJbc0JKepTbTWEvy9CLczac3760YRh2hDkrdLhswX7AJdOkkXTvG1m3HuRkZyfXwcBLTssnMNbYOmwf+fkEElwumZqsuNK0pPMdi14wQgi3xHH9/8o6IMw1pIs70pc6sbCC7XN1x8ejN+78N18dZaeTRnKjznD20j4OXIwiLiCQmNoXU7GxUei8nf1kPKytb8b6uuHsHEFg+mMCqrejWtg7l5dYVRaAN3c6GNUuYuy1WP+YjT5RFs1FlkxXSnlYDxzKj+72jcMyOsoehlG5SWoJNdfJnIdj+ItSvdxGC7RqHhcPx40+7iLHVobqzP46WnHQfWr8wmr5dK2Cxc7Hw9i9yOSKR1BzZ2qTDwsoeR5G+ZSvVp2nTDvTsVoWidsHUTzpYPJzZ21IIi9OICkSIAinui0U8k85K5KtKPPvVNHrXcMfD8DNdVhxRp/fw1yVv2g1pQ4j9I7DD+oQtqWCL59aRdcz66HdCRTnMUZvjYBlQ56DyqU5Q7zf59VkR94bDBbkr2GrS/6PJdK7o/FCCLW7HdBb9uYMtV2yw0gi7bFa65KPKSqP2oHd59ukeNC2yWsgk7uI2lrw6nz2ikskWNrL4OBHxZmGDpagLg+q2oce4qTxl7nD2EvEYCbakM2zbe5oLSd7UatCINnV9SiVPP2LBlkH06YPs+m0vV0q8SrbwelV+lKvRnF6D6+JjOGoUTa6+kvj899P6xU7NH/cmp/Q6YGvfkH6T2lPe+hEICL1g28XsST8R3vBFnu7blmYBpZqFBJmcWfA+C064EdL9Gcb3qGBEsMlkLo376shNvcnJVb+yM86qhINDRSWhccLRtRH9JrahnDAoD1CHmUXGnk95+ych2J4cwdNP1aecWTfKIeXKKf06bGHxaSTJddiEkZaCzcLKJn8dNr+yVK9UhwYNgnAz++FFJZoexokVi/RxJutT81NCxJlWCEWnRgyY1JZgEWelmUd1ydc5cfIsV69EEZ2WSpZa7gogBZsFNnIdNh9/AspX16/DVtXMF9bFijjct5ONZ9KxE05QiZBbYnnXolqLLjxd3+xtDx479IJtxye89lMq9Ua9RL8OlXmQyX+qkwuEYPtbCLYnGTzyGVobM4S6aC7v2cvfW8+TKveONByW+U6d40KVtp3o2LkW/nmx3Ni7jV1nIojJyB+0b2HjikdIDeo1aUjzCp7Flkc5YSFqx+f8fjKb5GzLEo0x1rfb6fxpPWIwjQIdub3g/z+DNFSpHPpiMj/t9KfuqGd5pnfVYgRbKolXDrNm+UHirEtY6oRg0riWxavRk4w3qrJF2iZe48SyKUKw1RCC7Y2HFmwpp1ex/eBZTsfaYVvSxxWOUlCLfrRp2YBKRXYX5JIScZKdP27mvG3J+nA1ahXuwTVo0mswzYsdU/EgGBoTZk1jseVw3pvcidrej0CwXVrG6E/X4d/7A57tbnxB7ftq21Kqfh+tYCulhyy16/wbSMGWdpifPl3FrVpP07trE+r5lvbLZHHpt6/47ZwLge2eZFj7oEfgof63yDz6HXNWxuPbqR+9utQk8AEqS4V/l/90sdfmkX5wHtNXpVF94LM80TwE3wfIg3mnFvLVks1cdO/OgOeG07Ws4YRCCZG5KZ1TP89k1SFvqg18kt6dKhQ91OYRkxN7kQO/vMtPp2szYNrDdon+lyrbR3UPOfTkEvt++JY/Lfsy/oWWVPWwK907iXLNjXVM/W473h1f5sm2VSlfOgM5zeIRt7ApKCgoKDwwonKYv3AdG+Ir0P6pZxjXpRy2Wp1+3SmF/yZ6uaJJJubMNpZ+/jvHta0Z/fkImvo53LdVloJCQRTBpqCgoPDYcpXt3y7mz20XiHcSFbqHP46tX+TLfhWwMX99HIXHhgQu/PE7a3/bzUUb0ORZo2s8hi/HNMHX4f97v4hCcSgdRQoKCgqPLZVo3qsHPTtVwis7mohbccSmq/WtNAr/RTTkpicRHx5FfKYtXvWfZPyA+njmb9yqoFAkSgubgoKCwuOMLpv02CgiouJJ1Tlg41uJBkHOd5dgUfgPkUtqZASRYXFk2Lvg6htEpSD3R7gzjcL/EopgU1BQUFBQ+CfQD2DL/1NBoaQoXaIKCgoKCgr/BIpYU3gIFMGmoKCgoKCgoPCYowg2BQUFBQUFBYXHHEWwKSgoKCgoKCg85iiCTUFBQUFBQUHhMUcRbAoKCgoKCgoKjzmKYFNQUFBQUFBQeMxRBJuCgoKCgoKCwmOOItgUFBQUFBQUFB5zFMGmoKCgoKCgoPCYowg2BQUFBQUFBYXHHEWwKSgoKCgoKCg85iiCTUFBQUFBQUHhMUcRbAoKCgoKCgoKjzmKYFNQUFBQUFBQeMxRBJuCgoKCgoKCwmOOItgUFBQUFBQUFB5zFMGmoKCgoKCgoPCYowg2BQUFBQUFBYXHHEWwKSgoKCgoKCg85iiCTUFBQUFBQUHhMUcRbAoKCgoKCgoKjzmKYFNQUFBQUFBQeMxRBJuCgoKCgoKCwmOOItgUFBQUFBQUFB5zFMGmoKCgoKCgoPCYowg2BQUFBQUFBYXHHEWwKSgoKCgoKCg85iiCTUFBQUFBQUHhMUcRbAoKCgoKCgoKjzmKYFNQUFBQUFBQeMxRBJuCgoKCgoKCwmOOItgUFBQUFBQUFB5zFMGmoKCgoKCgoPCYowg2BQUFBQUFBYXHHEWwKSgoKCgoKCg85iiCTUFBQUFBQUHhMUcRbAoKCgoKCgoKjzmKYFNQUFBQUFBQeMxRBJuCgoKCgoKCwmOOItgUFBQUFBQUFB5zFMGmoKCgoKCgoPCYowg2BQUFBQUFBYXHHEWwKSgoKCgoKCg85iiCTUFBQUFBQUHhMUcRbAoKCgoKCgoKjzmKYFNQUFBQUFBQeMxRBJuCgoKCgoKCwmOOItgUFBQUFBQUFB5zFMGmoKCgoKCgoPCYowg2BQUFBQUFBYXHHEWwKSgoKCgoKCg85iiCTUFBQUFBQUHhMUcRbAoKCgoKCgoKjzmKYFNQUFBQUFBQeMxRBJuCgoKCgoKCwmOOItgUFBQUFBQUFB5zFMGmoKCgoKCgoPCYowg2BQUFBQUFBYXHHEWwKSgoKCgoKCg85iiCTUFBQUFBQUHhMUcRbAoKCgoK96PTGf5QUFB4HLDQCQx/KxREk0VGQgw3EnLxCamOv6OILAvDuX8bdSZp8RHcTNLgVa4G/s4WWD0uz/ag5KaQGHuLWxlW+JSrip+TiG/DqX+EvGyR3uGExqvxkHHqYon1I3sALRnRN4hOtcTG059gX8d/3HPS5SSJ+I4mJstWxHdl/ET+/m+jJTM2jJhkDbiXoby/k+KNlhCNKp3EsJvEWpShQognTtaW5KVFEROdSqaNP+UqeGJv+K6CgsI/z78k2HSoMlLIyMwmV2tZYiGk09nh5OaMs6ONaaMsKuCszAzSsjXi+kXcQL6+pSUObj4421pgefur6Zc5vXER7/4RQ593f2ZoDbB5FDWAJpesjEyyVWrytDoRMxZYWFpja++Ak5MjtkbuqUs4x9Hfv2Da35l0e3spw+paCeNqOGkGurxcsrOzyMnVoNFqELe9g4WFJVbWNljbifs72j1C0XIvuoi9bF7xHT+cdqXv2/N5trpIloe9ty6XzJR0srU22Lm44iLS1xS65GucXfsZ761NpOObvzKsoSNuNoaTdxARpckmJSmDXI0WnchXRT+iSE+dNTZ2Trh5OHA3iXI48/NUFhy0w6vzcKYMrIKt4cw/hTZ0K+tWLGDx1TL0m/IFQ6qYEMg6DXlZQkxn5Mm3f2ARLePByd0NR3trrAzHTCLKRLYou5k5eWj0NxXiWcShs7MDdiY9k1wuLp/Gwh1ZWLZ5ng9EgbUznCkZ4n1zMklNySKvRIZJprV8Tkdc3J2xM+On6vQ4UrO1otyLfGT2rfJTQWftgqe7A7Zmemo6tbCHGWlkqJ3w8HU2kt90QvAeZ/OMT1hs+RzTpnaltoc9KYe/5deFh7ngMZS3Pu1MOcO3FRQU/nn+JcGWy6U1X7F6436Op0sjbDhsBjqdiqy0+vQcP5CBPariYTheGO3NHfz153Lm7UjEoYgb6IRgsXFwpt2rC3imjg3OtyvpjKuc+3s50zbE0vONbxlUtfQFm06VQfLNQ2xfv4N9F0KJSVORJ6p1W7cyVKzfiid69KBpkD3WwigXNMu6xIucWP8tn23PovNrPzKklhWOZgg2mdC6rERir51g7769HDmfQGJKAplqUdlIsWgphI29M95+ZSlbvwUdWzWnmr8jDkI1Fl0t6NDmSfEn7mAlBIrJSkTcQ6NBLcSOpbUtwoG/gy7qIFvXLGDhORd6TfpCH98PLdhUJ1nz2U/sTKtBs2GjebbmfQrsDrqUG1zY9DWfbEyi7cTvGVLPAdfCXxd5Txe3nc/eXsap5CxyrSyLacVRk5sdQrWmvRj/bkeCDUelYDu/ZBq/HrHDs/0QXn2qUgkFmyG+9aLRcKhIhAi3EUKpwHe1YTvZvGYxK6770fvV6fSvZFyM6bISiNgyiynLb+pFqmVJvSsD6twger09iV5Ny+Jb5CWySbh0gL2bNvLXiUgSc0WesnWmXO0n6N67A02q+eBiNNJzubx6Nsv2CMHWYihTBld7MMGmiyX8wDq+mLmRSDvT+eV+RL7OcaFcwy48M+UZmhTTFCXtzrWlI/lqexqRabLMGE4Uh04rktMOTcjTfPhGJ2p525slorNu7GDb4vmsuNmPt38ZhPCHCglnHVlxp9j6xWxWWD7Du5M7UMPdntRjP7J82TEuuw9m0nvtCTJ8uzh0Wi1avTMohazh4G2EALcUTrKVCA+YnRQU/l9SyhLEXGxwC6lLvbZd6Ny5Ix07mRs60aiCM24OspSXRkmXrVlWWFvfW5n9I6RHcm3jTCZ/vJA/j90gJj0PUR2K/wmPOy2aq3vX8MMnb/HOqqskqYWRNoGllXx+w4diSDr+B8tmvcHrn/7Mn3suExEvxJrKYFBla5EuD1VOKtHhFzm+YSFfTJ3IG/P3cjEuJ/8CJkng7PLPef/Vz5i5J95wzAhZkYRu+YJRL73K8gtasjWG448MCxE/1iJ+rB5e/BWFiDt5HxtR6z7S+9whjhO/fsEnQ4cxYvRoRpsMo3h+5DgmTp7HniTIK1xxlgb6d7cR724jKuDiWhyLI5HTv//MtzN/ZMWRKFJE3pTXs1BnEnXqT+Z/9iWLN53l1iPPNw+AFCGyLAoR/0izgIxvUeBthLdTIrGjfz4bURYe8fPpySTm9B42LJzDjKkTeHnsKF54QebHMYyeMJnJM75j6aaTXE3KFQ6qgoKCuZRaC5tOVPRxh37mi023UKlUUnaQk1meuu070+/puvgavnebvNws8T21qETMNx8WwuBEbXiDeRu8qDpoCEN6VsXTcO4+1FlkZqSTkiW7RA3HCiIrGSEgIo9v5LO11+jw6o8Mrm1GC1veNQ7+/hcbtp4nzckOa0tbUVEF8cQro2he1gEni1Subd/EljX7uexgg0We8DK1Ovy6TmR42wqUdREPo44m7KDw4n/cQaTal+b9BtKuXgh+4uby9jlpkVw+toOtG/YT7lSRliOnMLShLx6GJgPZwnZy43ymb4zHzacMrrL/RbyvS4On6CKEbcuy9+vwvMt/snLNOv44Z41n1db07l6X6p5uONiLO96OHxFRujwVuamxRF0/y/5tf3Eq2YmyT0xg5BMNqOFtKq2EgFjwA0v3q3Ec8hIfdfYzXilkhYm4WcJbK67zxOSfeLq2JQ4GN//RtLCd4o/Pf2FPenWaPPM8Q2qYbjExq4VNtlFqskiKTyNX330toszaDm3CBc7vWMPCI570mfw8TTwtsbfUGVoXbLC1d8bdy1Gftvk8bAvbLQ58/R2r/jjIRWcHo7+VxdpC3zLrj2+ZDrw8bwg1Rba43apibgsbWo3IWkkkpKsLtZTkCwdNdiyXVs1g0XELagx+nZ71AyljL/JQIVEl48HZywPnIrpEkw/+wLI1W9gRV5bKLXsxqEsd/O1UogwlirQRjs2BcCJdOtBr4FOMaFvG8KvblFILm2wpy84gOSnD/C5RK1scE4+wft1hDqRXYuS7Q2lc7GAvHaq0WGGftEh/rPg7WWBlrSUr/goHfvmJDXbP8PakDtTyMq+FjZiDbPllLktCB/D+D32oaDhckOzYk2z58mFa2MQ7Xfqd+SsPcy0qgdSMDDKzc1DlaUVZEHlRPqiFlYgue5ycXXB09qVG62507dmKGk75V7gHbQQXdmxl1cqjJAlbayWcIl2eP+3HjKBNdS88zEweBYX/FUqvhU2Xhzr1FmE3QwnLFJ6cozteXk44OloVMij5Vl+O9XB0ccPV1dXs4OLkgLut8BR9hNAQFZWz/kpGkDWLjSNOHn4EBgYQEGAk+PngU74ylQNcC1VExWGJraMjbt4eONlbknXrBjdvRpOs0gpTLxFCNTWB6GsRRMXkYOnpgbuHGy5CGFkZKoCcW1c5c+iwkDlV6DJ+IoM6N6V+5SDKlvHHT4RyVRvStmd/RozpQdX0KI5vO0VYSrYh5u4iux2Sw85z8fxZzpw5zcWwOBKzDSfvIZfrJ85w/oYTwY37MGZMHzrUr03FiuUIKBg/ZcoQGFSOCrUa0rRjb4ZNeJ4OHipiDp3WG+CiosnCUnrwIhRpRKXRthSG9x9qiZLdLiLOZRdsTqk0L4mHtnLC078MZQxxVsbXS8RZGQLcZfdkCpZugQQFlsG/jDwfKPKfLz73iDWJPQ62ouKyyBd9JceLGn2eY+zsmUz/+GM+NhI+nTGHqS/25YlaluhcRR4UJf2BCrulFTbOPpTRv0/BIN7R1wGb8P3svppFelYGF4+eIlbjipdf4e8GiHjwwa2o8WvqK+zZd4GjMUHUaNuH5we1pV55cV8Rh/7BtWk1eBxPt69MSNZeThw7yJFkw+9KHfG+Dm74Bgbe9w4mg5837mV98HC21Yt087DA1lWIaX8RN8aueV8og59vIMFl/fCwFfcQ9zF2J50qk6Sjv/Ll57OZMXMms2bN4rPZc5j+/Vq2hOqEwN7NInFspgjy3KwZnzDtq5WsFmI4107Y6gctl5psMq9tYt4vf3Hg6HniHSpQt9tQxrz2Du99+AmfTDPkzfem8NqLg+hSwxldwiX2/LmCNcs3cDLFcJ17sNLXE65C6LuIuM2JuUlYaBRJmcLRN3xDQeH/E6Un2GRlbCm7Rqzxrt2Jbv2GMnJkdzo2C8bV8I18LEg4vY6/Vv/MwkVLWLx4sdlhydLFrBKWOkEnhKAQQCbbS4TVkYPIL+1dzc+//Gr0WouXLmPZL+LfHddEvV4CK2XlR6UmnRkwahiDerahgY8VtrZSjOmrc4HsIpLesDsePk3oPmwozzw7lF71fPE0eN1pCXFER+fhWKkZHVpVpKy7baGEsMDOrQI1mnamdU0rVFdvEpeVK2TXXXQ6LZY2ttR6cgIvTniV115/k9G9mlLX6AChLFITM8nMdScgpCoN/IV3W+RsAvFOopIOqNKQim5OWCUlk5GVfc/9/xNkppOWpyYmPZvUpFTDwdInOzmByGtxorJO4eTlZFR3apNs4i8eYtuCn1l0J+8tYenyhaw7eYtole2DjYvU2eEeXJGqDRvSoF496hkJdWpVpV7lADwdLNEGCedE/KwEubwYdGRGnGDn4m/4YfU+Lju0p+8zXQhM3M/mX75j0Y6LhKYbvmommqv7OBMai3XFJrRq05rK7tYFnleIG/eKNHuiA80qOJF6/RL7L5TwBo8adV7+GM5Hig6VWp3vGNra6ick3ZemchJT2GF2bt/Gli1b2bZN/Pv3X+w8cJoLtzLJSL3MEXFs+9atbBX/btvyN5t3Hef4tWTyhCP1YOjITrzGodWbOHRFR6Wewxk2dLCwj52FfWtKowZ1qXs7bzZqRuv2Xek1aBRjhnehWUAmF3bu5a894dw38MLCk8Cabej7/DCG9OtKszK2ONjZ6O1r6eVlBYX/DqUo2G6jw8EnhMrVqlGxSjnK+rtiV9iO3TrMrg0rWPDLontFVDHhVyHw/r6YTkqOXMaiaOOoSwnl6qH1LFu2nOVC6N13vUULWbhiLX/uv45KlavvljDL3Fo44eYbRPmK1ahZJYgy9sbGlwnvV2uDrV0AlUMqUbVKVcp722OnH2umQSPup9I6YeNdFtmxY+q+WktfylcQtjlbiCU5yNxwXI/wsC2tbajYqgdP9niCbj1706lBJcq5CbFq+MpdXHD3dsTJLo6bV06y93oMyVmaIt5XTXZKBJcO7+F8Yjo5sivL0bH4Kf1ynIyNnWljam+H7SOZamsc3c2rxKYkkRwbScKNq8QZjheH7LIxf7x5IjFhFzhwOQN1Ti43DuznZsbtlMoiTgi2rfcItl9Z9PNytp6PJU5t/WCzcM36TRbRUbeISrDDt1I5HAxHHxwNeWnxRFw9xbFdf7J66Qp+//sUYW4t6dW3H/0H9GdIzyb4JB1j35+LWLJ6IzuOnOdyZCLp6uJLVvSlCyRmuVCxdhWqVzYhHMrUp0qVKnhnJhBx+fpj5kDI8XZmWZCHRDrG4h93FxwsjZQla3tcqnSkj0iTgQMG0K//AAYNHsKQIYMZPLCf+DyIIc88zZDBAxnYvz/9B4rPT7alTW0frIWNeTBSSb11gb3H4rGr1ZmeffvTrVElAj3sjbeoWjniWa4mjbsNoG/XhlS2j+fKwWPcFLe/JwYt7HHyDCCkcjVqVa9AWWdRYSlKTeH/MY+k9tRp1EIEFSh6hQqZd632NGzdmdatWtCyZUuzQyvhrdXwscfe0Qor64IeuBEs5dIU9kKo+FKxfuv83xe6XssWzWnRtBF169QmyNWihJWnjlxVXhEDueX4pTwhfQoZIWHCpNCytsxBIyrAJHHS1G0ttKnECZWRJ7xpG9nlaDh+ByHaRFSjMny8zf3Xs6Zs/brUrqgm8fR6fv5hBRt3HuDg8XNcvHSZy5fvhksXznHq0B52bfqdhd8sZW+6G2Wb1qZSgLvhWiaQYk2VTkbkRW5eu3LPNfXh6nVunL3Mlag0YXRLFNEPhi6Bw8fOkSSEcVmHLLKFcNp5Ifte0Xsf4rlEnCaFnuX8+StcvXyBq5EijbJNJbKOnKsnOXbgFOc1XpQNcINTf7HpcCgR+uYCkf8CK1GrbZsCea8Vrdo0o1agG65WQoSbzD8PiSZKCDYhCnN9qV/N23CwhORlkx1/gwsXL3L+xH72/r2O337+irk/rWTLFQ3ejfsxaNhInm0bIMSDD7V7PsfQZ3rQwj+TiN0r+XnufH5etYGtew5w7MxFLpy/zq2kTCNCK4tYkS+y7WsSFOCnd2KM441fGQ/KOaShiogl2nD0sUCrRqvJFcVA2ibDsVJHKxxBFbnZQhrKsYtGBJuFjSNudfoy4vkXePHFMYwZ/QKjRg6hX88udOzYQYQudOnWh0Hi/AtyYsqL4xj/XA+61Q/ATiWcuAfJj7lpZMZHcsPOjZAOPWnobU61Im/kSYXqdWhdXUte4g3CkvXFzwjS1spljwwfFRT+n2L1gcDw98MhjHv6jQNsP5eMQ+U2NK3ii6d+NqcR3CpQs0FLOnZoT7t27cwObdu2xO/mLi4516Ja7ZpU8TLdDKJLvcnV8ye5khtI90kf8mJv8Xsj12zXrj1tWrcW17K8t3tKlUTc9XPsuZJJlZY9qCXqvMIzSVVpUdw4dIAL6T7U6NCSih622FlkE39ZVPjHYsjyq07zzlXwFL8r+FNdVgy3rhzh3M0s7Cs3opyrFbaFZm/p1InEh+5n3fLzxAY1o32rKgS5GLpOsxOIvnKUAzdUBNZqSZCDCm1uJtl5wvuWM8GM2Esb72oEOltjlxLBzcibXJYV8M4dbNu6hS2ye0QftrF9x072HjrJ2dBE8px9CWw4hFFPNaC6d1HD4jOJOSfEzbFjQpgdZNPmLYbrFQhb/ubvXYc5fCURJ2dnQpqJOPW1uBvn6cLgXzzJqTg7qjZ/Qh/fD67r8sg9u4oFa6+ja9qHdnV9sLlwnP2XcghqUBVvBzl+zPDV2+Qkk3DtGLsupRJ1cis7RLxs3rCWQ/GOOAbVFu9fOFJF5ZlwhC3rNvL77iT8a7Vg8KA6xF88wfGj8TgEBFBGio/gKtTt1JH2d/JbW5GP21M+4xShQnHYhtSmeXVP4y0RD0Hejf3s3x/KDafmDOxTkcJyW5aPaxfPcC7ZWcR3J2p43ptH9WREEL5nAe98tpQdB05w6no0Sbl2eFVpxxODn2NY36ZU9Sz45Ja4BNWifuNGVHVXkx0XRljYdc4d2ceebZtZv/kamrIVKV/JBxfDL2RlLGcZX9iwg1NudWnQsCbVhVNmkrTL3Lh6jXB1eRGv1fG789AaEi8c4GyYGougurQSGchc3SSX10lPzyAjM4ucnByys4VQLUHIUeuE7TvKiVNXuZXnTaVaVXFXZ5CVlSWcKVEeS23Mpoqc1KscWnWKsIqt6FbHT792pEl0atSJVzi66TcW/byARSv+YMOm7SItz3PLSohfDzfcHW0M5UyHWtglac/OWdShbcvy+Nhbk3vrBOfO3iLRvhbN25ZHuCT3k5tEgnBctl5Ko1GnvtTyES6iERt0L/nPbZEZTbhw8E7GOVGjbSsqmWhF04h73DywizMJrlQUjn6VMs44lkqcKij8dyi2WJUessXpYYJ0rzLJytPg4+aCs12+gLh93hTyd3nCpX8Qx/FR4VK2AnWa1Mcq5RIbPp/B6gPXiErPu9P6k5sawekdv/PDZ8s4ZWlPlfYNKOfudE+lLj35PFUOe+e9zOuvvMToUSN584dN7I4w7YZ61u/BwCnTmTllFP071qVKuWB8Pf6vvfOAj6pK+/AzyaT3XkgCAUISIAGkKE26hCZFEMWyit1ddVfdVVfX1d3VtaCr++nq2hARqSIdQbpUgdBDSEhIISG9ZzKZ+p07mUCAlEkIgu55fr+j4c6de+eee8r/vOec9/XAw8Mddzc33Dy88PEPpXN0HwZOmc0fXp3D648PIdrPlv124j0oO8CcXHEXgqzR5CbET2uc7rUJA+aKY6z8ejsZKiEAut/EbVPHknB7Hzwy1vOfNxdyoMCArpnRutpZ5IXlN3vg5uJ0mfNiS1nK3cLCTxayZGMyqug4ekx5gIEif5+ZGUNH1+Ms+2guS344SY5iYr0MLbXKzjnrv9qfEjFgOEFSiRNhN/ejk/Voq/HsQKAQ1hM7BhARfQMjpz3GM6+/z+sv3s/U/kE0GRzBOZBuo+/nyX/+m3+/+iT3ThnGgMhA/IYMIy6qwyUWNCU3K6kqEfXULAYk6ubLh5uHPx7enujFgKZSYz14hdQe/pL3/vYHHnzkcX7729+2Oj3+yAM89c5qtqSVUJm1mU+feZDHlc8ee5RXV6SQWWFtfS5qz1qblAsovs3MlilRFwd7i5+zusvWf34JWRuY+8EH/N+SnaRU2OHi7inqoBo7bTYH5v+dlz/bys4z1daTrwDRFjt6euGlN3D4dA66VpiNa6rLqSgpEc+krEtuZNAgkUjO035uPWpKyN00x+KywWfcSzwxoSdd6/ddmyvFCHQLH7yxhkxRJY3icNsqphmDVoNe5YjaQdl0oMfgGIJfz6m88Hh/ixPd+uuaMrex/tuvWJwezNTnXmeqrR4f62nRca4YVZ/9iR/em8Oy3O5M/8efGBPphoeqhKSVC1j80WEK46fx9JsT6NLI8xpKTnN0w+e8vzQNg4cbzopjU+vQUnGqqddWozO7ETLqSZ66vQcR7hfsBfVuPV5fU4C9qW79nbG2Cp+hDzJzxnTGdWleh5tNBgx6kXeiYTUJQduwBChRIRQxWOdXzFb/dAUcmvs5C3fW4Djtfl4ZHYT2Ut9x9o44VaVzascy/rEyk7HP/Jc7era3Ww8jpoL9zJvzX7ZkeDDw8d8zZXBnQhVDbGU6J7Ys5J/zTmAfEE7cpHuZMVyIK/e6H9DQrcfgR99lWpwrPo5GjHbKujvHOsemyqCh6iwHVn/Fij3ppJ0twTFqBMOm3sVdA/3r3EgYS0le+Hc+2ppDtsabrn2HcfO4BEb3aBjW50rderRA2lI++2Inp9yHMuOp6QxoRFnZ7DhX8c1XUyvqrDLV52DxaWdbmbCiREoQHbnBIJKdI86OatQXvVilnKTw3eNvsTxwEnfOGsP4bk3u/8ac+QPfLVrL2vzuzP7bwww+f2rb3Xpo97zHawv2cjBTK+phM3XHssNZ/H5RFox63eVTdErdUQYu1vpkNhoInf4av58YR5RPJWd+XMPK/67jqGvDqBetQVxb1F2dphaDg4tlp7GdSo9W05UBEyYy885els0lynlwijWvfsyqQ2W4DE1g4uRRDAl1x2jUoS88xabFH7HueA0+Ix9l1q3D6Se+qCk4VOc41/43/O3PY4hyVaE98gXzv9pHkldzbj00FJ3axoJX5vKTRz9mvvgMCR3VLZdpwxkOLF/IvBWZ6HrewV//PMIi5i8vXmZqK1LZNucV5ieHMeb5Z5jQJ4gmvQxJJL9SfqYpUS3a/KOsW7abjMpKykWqbGPS1OpFB6L4WKugoryMcq09Zp8e3HJzR8uIv/6OypRPeupJ9iUXkXfiALu2bWLz5s3NpE18vzaRioCOBIR64qYvoeD01ZkSVbBz8SYgojv9uweiz88mJzeX/OJSyio1aO3cCeoxhEl3PcDtQ7sQ4nnJej1lSvTUT+zJNDJw9us8escEJk+cwMgb4+gW6NxM+J466sNPKc5OHZXdZpckRagpDkBtF0zV5B1O5NhZcO4zhBFRXmLQfcl1heKxV9eiyT7OJlFGug6a1K5TouaKLE5t+YaP5m3kUIaWrrOeZNqgKCJcrTdw8sEvOIxorzz27TtJ1ulD7Mv3wCcwiAjx3pQp0cLUffyYWkOXm2fQv5Mzro5CrCkCxXoJo66KjPVz+GzLaVIyinG9YQqTb7uN6X0DcKp/DjsXfLvGEWmXT27mGY6fTKWsogo69afb+fkkA4VHd3AkR41LZHtPiabx/bwl7KjsSs8xk5jUpXE7WLNToorisGa+UlbUimBtdZmwoqxtVESOuIaSlxfWLyqiov5vHWd3b+O4OpLY7l3oFtC01Ko+u5/DB5LIJZ4h47q3y5SonZ/Iq/7DuWVsAuMSEkhoLI2/lSmDOuFjziep1JVRj/yTx2eOsZw/tv6csWMZK65x4XvjGBbf0VJ/1XYaCk8eYM/aPSTXaqlupG2zKVXXoBXiV6cRf1eINrCyjJIiN4K6xtCnf1jdVLNJKMnk9czbcBhj3+lMvnU8I6O8RR1UNkI54+IdQOe4CMzHj5OUbYd7WCfiw9wwaApIF+8h6Vw2J/bvYPu27WzZd4LkXHe8Q2MYMLSJKVExdHZxdMDb7gwb96eQeWw/p4pFe+nmha+PK5fO2ho1+WQeWM+3S1aycmsKtb5dGTxzOkNDHC9rJ+uRU6ISiWgxfxYLG3r0lXkkH8umSlRJ5Yb2ouFwstmCczEqYy3aWtFoGYyY7V1EXxxBXLTVwmFFiZW4dtl83t9YiKNlcXdLNzILIahi6JNvc8+keKJMqRxfd/UsbOcxVZKXnkV+qRLzUnEJIjo2V3d8AkIJD2gigHVZMgdXfGAJTZXw/Bfc00Pkp/WjOsSou/w0u+du5KToZC81BLQdEyaDJ54BvUi4+waCxZG651IsbJ/xzW49rjMftVjYGn1eTRZpWxbw4pL09rWwlSRxYNtq5q85Qk6JHRHjZvPQjGHE+F7qA1BQkcbR/XtZv+wQ6oRZjB/Zh1gPUSZtcZxr1FKevJQPPjyMffxABgwfRr8uAZefp1CRS0riBlbvOEuJZ1/ue3Q8UedNbFfLwlZO0qL3+WS7gQ4jpnDH5BsIb0L7tGRhq8lJ5Oi+LezKdrqk3F8Zyg7pwO6DuWHQQGLO9/5V7H/vaT5LjWfYPdOYeVNokwI2f+dnLFmwh1OBM3j61QQ6W49fiYXNZrSn2LdsHu/v1DP9hbeZ1qrAmjqq8nPISsmhVBGu1qNXjgmjwQP/sDA6RdZZcRUrXN7a53hlsT1x9z/CjFFdCKo7+SIyvn2JD9erCUmYycPTY1EXHmHjO39nyRk9JeVaDEooMmdlp2c3eg+eyKPPN+M412xEX5jE9tWLWbI5hSrXIIKDgwjwFsLKUWnnzZZ2XzQg1GoqKC/KITOnHFVQLwZNvI3bhkfj3+SSZGlhk0gUfibBdjk1mYdJSs3mnK6Vok2ZEhCVvH+PCEKb8VWgWBDSTp3gYEYNSixOW1B2eQX1HEWP6CD8RON8ZHVzwd/bSbBdhIGavAzSc/I5V1JGTaUWy2Zb8YpUTi64evoQGBZLuEMeudv+zSurSrnlhcaCv9dQmbuDT2e9yUYHe4uTyfP3t1jXHC1TP/paDfrLttLbocT5dKn/XKi9CyXEgEEXREjXqbz4+UxEllive40Fm+YMid8vZ9nGdJwGTGH8+FH0D26uSyzj9J4snGO6EODjZunYbY50QCnJP6bhEB1Hx0BnixVHOdr4T62iKLecImMgMeENL1bLsbkv8uluJ/zbLfi7EmFjEV8uOIH6ptuYMmUQvQOb7AFbFGzlRxez8st/8ckhD1yaM1WplIgHzjiLBzBoay1Oii8qT5eg11QSlfAwtz8wmzGh1oOCzKVP8+6aWsKmPMSsqb3pYD1+MYUkLpnLV+vOoRp0N/94uC8XHOT/DIJNd5r9y+byrx16Zrz4VuuWWTRdSNoP6z0UwXZq4YO8s6Yno5+5iwn9Qhp1Ml6x+zX+9WU1ToNnMvs3vfAqPMyGd99gcUVvhg6KJNDTDW3GTg4fqoYu03jiRRtiiRbs4qv3Pmdrlhjc2ekw1pRTUqEs21AeXiQHZ9z8AvA2VVFjH0GvhOnMmnEjnZouqgIp2CQShWsk2LQc//o1vl6+lT3lbjjbOHdhNqtQ2xnR9H2Ip+9K4NbuF7vkvUA7tI7mUgqP7mZ5YploVO4SAuDSKdH2FGx6itOTST15mOPHkzh2OovMolJqqw2YlCkkRbA5i2v7BRPepTexYV5469JI1YcweOJ9DAyzw/Eik0QTFjZlHZKhgtK8TE6c1RAS058IkYX2dtZ1N4qYM1RRUZDJkcxK8fkAIryUPK9fl9OChW2PEfdZv+Ovw5sIyW/MI/uHefzxm9PtvoatJu80WckZ1N4wmvimikUz2CbYWsBUQ2nhOQrzK6msqRFvwa4ujqnZiE5vxtHFDVcvPwLDfdDuX8fuNDucom9inChctk7fNYr2HKn7trJo4SaKO01l1j1j6NfBuVkrTntY2JTpUrNi7c5LFuXFTFBMN0J9XHFWiXLSRKvSuIVNlNgjH/P6x9vI7TCNGXfNYHRkIy8/ZyPffL6Eleci6XfH4/xxWMNydjUEmxl9eRF5hXmUVesxlqRxaN+P/JBqpN/E+xkUbm95p36iXgYGedLUpvhGERWqKms/Kfl6agytmGpWKqKS724RloGlVyObeGy2sH33Eh+uUxMy1mphKzjEBmUNm3o2r788ikhR/g3Hv2Tel7s55nknz9gU/L2MfXOe4YuMzkT3CqeTt46iQg21ysJli2BzxauDP4aD69lXHEXvyTN4bHRLV5WCTSJRuEaCTUfm1sVs2XWUZI0tUy7KdYRoUdVSmp5JTsydPHT7aMZHX3AO0BQmvYbKwgLK9K2p3UKgqNSis3XA1cURJ3cfXEXjdfEV2kuwGdDmHmDFxx+zLrmaGld/QnzdcHFQXxyBwaRMfdRQXV5IUYU97lGjuOfR+xgW3lqv34Vkff85zy3O4taX/8OdkdbD5ymhaOtcfvvFSW7962fcJTrylhGC7cvPWbi9HNW42/nD4ADLLsiLsHPAUZNN2k9r+XBTHrc8/XH7CTaL2Kz7sw4D1QW5lOjd8PT1wqtZE1EdVyTYTDpqinPJPZPKgSN7OLw/QwjuYip1opNXpuLF77NXO+EpOvbgzj2IG9CP/nE9iQm17vy97PfbiElPbWkGpw/vZNnX28kNH8k9j9zJjR2aiQJipVnBZhEFtv4gHeU//IMn55pIeOk5pnb3aNnBsoVLHlp7nCX/+pQVJ5yIGTuVB2cMJOT8rkEjek0RR1d8wNJNSVTGzGDmfXdw80UBittTsJkxaUvIP5dB+qGj7E38idNZ+eRXmoQIV4u6qUJfW4PZ2RcX/w7E9xxA337ifUaFEezlctmarcZQNhalfHU37/xQRlaJsk5SyQ8bEO/GzsEFU+d7ef3FW4j3d7m86Ci7R099zYvvrqci5g6m3HoLI6JcLwh4syiv5UdYM+cTNlT1Yvgdt3P3TYHUCMG2URFsVxBL1GwuZNdbz/FFwXCmP3Qb42Mas+0ZOPXVX/j0gCcR4+7gsXGRLZRXKdgkEoVr44dNdFNeHXsSP3hkA/9ULaWbGTm6I/rtB0l36kxsXFei/VtqksUoNk+MGt98jneWbmL9hg1ssDV9v561q1awadd+tN0mtvumgzpMos/NYYsQfavSdOhChjB6ygx+85uZ3DZhLKNHj76Qxoxh1M1xdA0Uz1x+joz0dBIPl9JxUC8CnFVNrvmxoOz002ot/qJUpWfJOHWU3amVhPUcQaS7HrNRR61O3F+086qys2SnHmf7yWLC4kYQ4W5EJcSiWYnL2aSCsvph27+f5JRdrF27vpH8XMe6zbvZnVyIi5sbkTeJPG2vTQcXnad0fMXs+dezvLW+GofwTsSGuDWR/w2wbDrYy46UGjoOnERcsAO2eSARZSxzL9sXvc9bC/eSdq6KGjt7nNw8Lo6D6+6Cg8qApiSL1L2bWHcwH41LMJ0jRKff4oDlEkSHbDDUUpa2h61CdH26+jS6yHE88vQs+gfa22Sta3bTQSMZb9bXoNHWCulkLwYSFyxCZm0lpad3semYiY4D+hIZ7G6jpemSk9SBhNpnUZp9kL0n8zmr8SS8QwBOphoMJensXfSBGBCkku4ylGGjb2FynNclV2j7poNLMdfkk7V3Me++/TWbk7Ip0og7OdS5elHiGTs7u1iCl7s52eGor6TgTCI/bjnI6WI7fLt0JczdhhcqhFfZyQ0knhW/0sUHXzGw8PS4UF6aSsr9ndRiMOcnhNagzgS6NuJAXHl/Ac7UHEomad9h0rVGHAKDCHW2o1aroTrnBN9/+RHrUqrxvmk8Iwb2QIwd0Fe30Q/bRWjI3rWJQ1XhdIvrQlSQayN1r4Zzids4nOeMd1RP+kf5NN9+CeSmA4lEVO1rY2ETo+Hv/o/l63ZzsFI0QDZ1jFZEx1EZfy+PzRjFuBYtbKIzzT3IxndfZ1mOk2VqsDV13GQw4OYfysgn3786mw5MGgyZ63nxr9+SHX0vT9wzlIERF1blNIWpMInElf9hzvYaBj/2IbP7O+PW3BBVu59Fcxaz6VAWVUoQevHb64woTeVGg89Neqr9x/HAAxOY0DuwiWm2Ag7Nn8+3S38kWXQozf0Uk9GAk4cvw5/6iDt7tLdbDwWlOBex880/MTdvMBN/M5nJvQOanR5UsFjY1r7PPxQL2x8+YZaNFjbzWSFWVs7nw+0afMNvYMyEBAb0CiXE0w1neyWYtrV6iQzVaaopKTjC/m8XsfGIEMbeo0iYMpWHR4e12GE1RJ+zkw0r17Jxz2kKHLsQO2Imj9zVByWMrK3az1a3HgqKoC/b9jZ/mX+IwEkvc+fYeKKshhOztoy8zXN4foGJUc8+xcQ+QZYBStso5+Sar1i+ehuHyupDuVkR5VBj35URM2YyfWIvIe6sx8/TXha2UnISN/DJW8tJdQohZlQCCTf1p2sHXzyFslafD9gv/ivaIl15MSkHVrD8h584lOZD7NCJzH52LFGWc5pGsbClLXqQOatjGPzEnUweFIGnKCPW0tIIKlGWTGgKj7Hp3TdZaHc3f356JD39nJtu0zLX8Mnc9Ww/UYhRiXdsPaxgMmix6/0Aj8wcxs2dlTbHjKbgcJ1bj/awsOUPZcp9tzIx3r+RMlnNsbl/48tD3nSUFjaJxGZsbd/bH5NJdN56y8L2qqoqm1O1RoOm1oDBpkDLKtyC4hn3l0/54MMP+dDW9NGnfP7Wszx1aww14l5XDaOQkOWlFIi86NW3JxEBLYs1BTv/IMLi+9BJ5F9hWXnLQafNRmotrlCseVitsXhor66+PH8t6fznGksMU4PyrqyXahx/et72MH/84nP+21h+Nkj/+ehj3pvzBjNj7YSgsX79OkDlGUG3qa/y4Qfvc08vZxq4vWsGE3mZaZw6ZSQ4/nb+9MojTB4SRaSfJ64OiiWqTvTW+bazw8ndg+BONzLuqdd4fFpvetYkk52cQpb1arbiEBSMKx6ER4/ijqf/xHO3x1vcW1zVymw2YTQaLR4jLkZ00oZaUV6UDQfNCQ5b8CIm4T7ue/QBpsV746CvplKUx0od+ESPZ/bvH2NWQnwjYq0dKT5L3rF9pDkFM/Ch58V7Gknfrn74ugmxpmRw/ftU2aFydMPJP4zutzzOnx6eybQBOnJyj3Asre5StqGyWCwtj3T+2o0l5QRxnuJaRfnTFiLGcv/vfscTtw+hm6eJmqoKUbcNmJzD6T/jeV6YPcwSTL9NNPqild/pXLeeVqXGwampdZSKlVDkn7Jm1sGpxel7iURSx7WzsC17h2+2FVPbI4G7xAjLsbbez38LKB2HWyAh/t741JtnrgbaMySv/5pXVuVdPbcexmoMp5fz+1fXoRv6DE/P6nfRQuwm0eWStvYD/r40i5gHP+J3Qzxwb26boamSwrNFlFVrMYrOoam3cjFKz5zFjne+Yav9UGY8ciuTm7SwXTnX2sLWNgxkbpnL0kX7yY59gNf+cGOju/Eao3T7HD6el0RJ7HRmPzue2FY9q46K/CI0JifcA/2w+v5tFa23sL3FS18pFra/WkRTvYXNsmu7LIeMQjPeHTrg6+5wZRsoBGYh1CqKCymqrHMKrWyWcXH3wz/ApxlLcjtZ2PIPsmf5x7y735tJf36be21awyko28u6r75gfmooEx59hbt7WI83QUML25AnZzF5YHiDcF1NYaam6Bib3nmDb2yxsFkwoqssoai4jEpLGysGEg4ueAUE4efR0OrWWgtbIUcWrWLX0TPkOdVdRxGVZrOeirMZ5Os98RNl01fcQyUGlA07GZWdiepzWeRXq3HyCSDEzwU7ZdmF5VMzOm13bpk9igFRfkLa1R2TFjaJ5Fpa2MxGjPZe+EbEEdepK9HR0balmFi6h/tZxdqVjuibQfHMbpMV7wqwd0IV0pP+QVB5aAlff7OO7SfzqGzSnCWEV9o+Ni1awPzNuVS59KBXlAsOLQ1R7TwIiIgkKjaWmMbytNEUK1IXghXP9M1O1Vy/mFUOOLo0WGzd7qjxCwqkQ0gtuUkb+erb7Rw6U05VM5mlr8omecdSVmw5wUn7MLw7RhDW6o7HEc+gUIJD2ibW2owoB/aOLrg0NMrYqXH07Ui36E4EtoNYU1A5uOEV3IkuUdGW8hrTrSsdQ5sTa+2IVwC+nbrhV5ZL4ncLWL0/hbzK5l5oOXlJO1i3fAMbE014uHekU4T1Mxswm0X+Obs2cE/SHCqR90rQd+s/bcIeR48AQjtFifocI1IUUZ3DCLxIrLUFxRHwERK372DHLiVu7S527lT+v5+kcxVCcGeSevQndv24k53Wz+vTzh/3ciSziOKSc5xNSWT3jz82OGcnO7afJLu0RgyHJBJJQ66hhe1dFm3JpjjsRsYMCEGtOASzEZNBh3enXnSN6kSQbVvSWs9VDk1VjxjXcnbzAhZ+u57dhb4ExcbRv3sHgl1dsG94QyEga2sKyEk9ytHjZyl0jmXIhFncPTWWAHuVjVaz1qCoxmS+++0clhsHMvXRyUz5JVnY3nqe+WdCibwhnvhOntgZmvcPVodyhh0mUwfih0cT4ubYsgDRZJOy6zsWfLuTxGI/4vrdQFSkLz6uzqJjVaZ9rOeJaqbX1lBZlsHpn3ZzrNyP0CG3MWPSMIZGXK1C3DRtsbC9vOA4qqgx9IvtSIizHoMtLYfSvIhMcI8aRJ8Ir+YtwVdEe61h04t6fZhNXy9i1d5MVN1606tbFCF+Hrg6qRpsPBKDGF0t1VVFnEs5wL7kCkx+NzJ+2mQmjY68LNj+pdRZ2B7ive99CLipH/Hd/HARbWBzWaqyN6MrzyVl+zYOeM3iRZssbLbSWgtbGenb9nA8PY9SZUe79eiVY8ag60jfhD5Ed/C0vkNpYZNIFK6ZYEte+i5LVm9jT7EasxAjF3q2ltFpKug+7Y/Munsqg/ytB9ubn0mw1VFJ0rpl7DiSTEp2IYVFZZTW1GDUCZFRN88AasVa5I2Pnz+BIR3pFn8TCZMHEn7VLCy/ZMFWyI5/Psc3RwrILBd5qCy8sql8Kd+1R68bwx/n3c/N4d5NBzhvgLn6LGk7V7FsdzYFhTnkK37YtFp0FieyyvsTtxfiTbGkuHr64R/kj1/XoSSMHsTAzm1wGtcOtFawlW55jZe+SSGroFwIWiNGU/26qhawCraO9/ybFydFEeHZppdqA+0j2JQSoFL8GObsZ/XiTZzIzSc7L5+yKg1aUR8Nyk5q6yOoHJ1wdvUUdVKIh+Bo+o8YycghXfCzXqU5FMF2esFs3ttcTHq+KJ/i34rPxea+VZeVKhzcvFB3votXnxtDnH87Crb8RL5/+w0W2N3Lqy+MoadP04LN+lqvLuezUQo2iUThGrn1MFGZm0Z+mQ6jZwghwUEEBgbanPz9/OgSN4DYbh0JvFrGCV0x+aePsi25im5DJoqGUWTWJY9z5W496nEiIKoP/fr3ICrQEzdXVxw9PfHz9icgqC5vgiMi6dxjAIOGT2Tq1AmMvCECr6ulniworWUhJ9fs5IQxjNj+sba5x2grldmknThAYp4j0YPGtTqW6MXoKEo5SYHJHVffYEuInEvLUNMpiAD/GNH52mhhE6gcPfHt2p8hg3oSITpQF3sP3Dw98PEX709cT7luSHAYnaPj6DVwBLfcNpM7R/QgwqdtNqD2wFx2htQThzha4kbMwDH08GumjJqFUClM4WSBGScPP4JFmQwKaizvmkji/IheQ+jb0RN3W5yUtQkjRSd2cjRDB+G9GBoX0Kbp2bpfZ4/aM5weAwfRt3MAHq5q3MX79PAOEOIsoO7ZxTOFRnYlOl6899HTmTltJP27+AqB37JYsyAUT/XZRDIq3XH2rAvjFNRY3jVIlvsG+OPv64tXaE8G9Q3H17kRtx5txFBbTmH6GQo94xioXNtJTW3OAY4ePUuRkzg2/IJbj6su1hQa3MMo3XpIJNfKwvYLoOo0SZuW8sb6fMY9/R7To66mhe16RLGwpbDq9++x0nQjtz44kUnxV2vxvsjN3H1sWTGP+UnujH/iLaZ3a6uFTWILpqztbFyxkKXpgUx44m9M7fJLLKMNqSXlu/dZslOD3U138syM6DZOiUoaUp44l6WLE0nxns6TLwwjzHr850Va2CQShasi2HzHv8yTE3vQ2ZYdj9ctZovPMGUKxF7tgH0jSqU6dz8b332LpU0Ktuk8++Y4Ov9iGxYTRr0Bo9lO5IHijf0qPojFbYS4l0mFvYPIb9kYX13q89ss8lsp37+C/DYb9VgCbNipcZAFqF1QwlwZLVP7atRixHqtctUgBtBb336ZeSelYJP879LuBhPFt05pyh62fr+CVd9tY/fhs1RaP/tlocLO3gFHxeFkw1wyFpJ5dBcbV37Hmi0HOF7e2CIye/HdGqorj7B5/WpWrlrB5qRSymutH/9iUPwkOYo8UF9dsaag+GRSK/eSYu1noT6/f0XiWCXqq4N4HinW2g+VEL9q0QY4XAuxZiojP/UnNq34jpXrd3KwUDS/ynJU68cSyf8a7SfYzGZL3M6q6mqKj29m8+rFLPh6Mz/uz6XKesqvAnMRZxK3s3L+Ilas386RghqqqjQNnIaaLQGutdVFFJ5LZMviJSxbspQNJwop07aLMVMikUj+Bygl79Re1ny9iOWrfiAxt4ryyhp0LeymlUh+rbTblCgGLVXZB9l1qgKjwYDJbESv9yWkcxRxvUNs9DP0C8BUTNbxU5xMLaDWUY2dvRp7lRdRg/oR4eWAI1pK0lJIPZFBodpeDAmNIi/MuHcbQt9IP7zkwhqJRCJpGXM5BWmplk0PGgfRztqL9tTkQecBN9Ap0NXqVFci+d+h/QRbcyh3+JXYsVt6FCU3f5YdVBKJRPIr5lfUbUgk7cLPI9gkEolEIpFIJG3manlpkEgkEolEIpG0E1KwSSQSiUQikVznSMEmkUgkEolEcp0jBZtEIpFIJBLJdY4UbBKJRCKRSCTXOVKwSSQSiUQikVznSMEmkUgkEolEcp0jBZtEIpFIJBLJdY4UbBKJRCKRSCTXOVKwSSQSiUQikVznSMEmkUgkEolEcp0jBZtEIpFIJBLJdY4UbBKJRCKRSCTXOVKwSSQSiUQikVznSMEmkUgkEolEcp0jBZtEIpFIJBLJdY4UbBKJRCKRSCTXOVKwSSQSiUQikVznSMEmkUgkEolEcp0jBZtEIpFIJBLJdQ38P0idHVWLc+6IAAAAAElFTkSuQmCC;" vertex="1" parent="zKL_dNV_AtEYKqo2xS6K-7">
          <mxGeometry x="290" y="777.3543821448012" width="203.59281437125748" height="87.35057158410451" as="geometry" />
        </mxCell>
        <mxCell id="zKL_dNV_AtEYKqo2xS6K-85" value="&lt;b&gt;결과 예시&lt;/b&gt;" style="text;html=1;align=center;verticalAlign=middle;resizable=0;points=[];autosize=1;strokeColor=none;fillColor=none;" vertex="1" parent="zKL_dNV_AtEYKqo2xS6K-7">
          <mxGeometry x="365" y="740.3375068045726" width="70" height="30" as="geometry" />
        </mxCell>
        <mxCell id="zKL_dNV_AtEYKqo2xS6K-90" value="" style="html=1;shadow=0;dashed=0;align=center;verticalAlign=middle;shape=mxgraph.arrows2.uTurnArrow;dy=11;arrowHead=43;dx2=25;rotation=105;" vertex="1" parent="zKL_dNV_AtEYKqo2xS6K-7">
          <mxGeometry x="1150" y="9.254218835057157" width="50" height="92.54218835057158" as="geometry" />
        </mxCell>
        <mxCell id="zKL_dNV_AtEYKqo2xS6K-75" value="&lt;b&gt;Predictor&lt;/b&gt;" style="swimlane;fontStyle=0;childLayout=stackLayout;horizontal=1;startSize=30;horizontalStack=0;resizeParent=1;resizeParentMax=0;resizeLast=0;collapsible=1;marginBottom=0;whiteSpace=wrap;html=1;" vertex="1" parent="zKL_dNV_AtEYKqo2xS6K-7">
          <mxGeometry x="730" y="772.7272727272726" width="140" height="57.76265650517147" as="geometry" />
        </mxCell>
        <mxCell id="zKL_dNV_AtEYKqo2xS6K-76" value="양육비 예측" style="text;strokeColor=none;fillColor=none;align=left;verticalAlign=middle;spacingLeft=4;spacingRight=4;overflow=hidden;points=[[0,0.5],[1,0.5]];portConstraint=eastwest;rotatable=0;whiteSpace=wrap;html=1;" vertex="1" parent="zKL_dNV_AtEYKqo2xS6K-75">
          <mxGeometry y="30" width="140" height="27.76265650517147" as="geometry" />
        </mxCell>
        <mxCell id="zKL_dNV_AtEYKqo2xS6K-82" style="edgeStyle=orthogonalEdgeStyle;rounded=0;orthogonalLoop=1;jettySize=auto;html=1;exitX=0;exitY=0.5;exitDx=0;exitDy=0;" edge="1" parent="zKL_dNV_AtEYKqo2xS6K-7">
          <mxGeometry relative="1" as="geometry">
            <mxPoint x="520" y="800.0272182906913" as="targetPoint" />
            <mxPoint x="730" y="800.0272182906913" as="sourcePoint" />
          </mxGeometry>
        </mxCell>
        <mxCell id="zKL_dNV_AtEYKqo2xS6K-2" value="" style="rounded=0;whiteSpace=wrap;html=1;fillColor=none;" vertex="1" parent="zKL_dNV_AtEYKqo2xS6K-7">
          <mxGeometry x="280" y="622.0685900925422" width="880" height="397.93140990745775" as="geometry" />
        </mxCell>
        <mxCell id="zKL_dNV_AtEYKqo2xS6K-8" value="Actor" style="shape=umlActor;verticalLabelPosition=bottom;verticalAlign=top;html=1;outlineConnect=0;" vertex="1" parent="1">
          <mxGeometry x="885" y="950" width="30" height="60" as="geometry" />
        </mxCell>
        <mxCell id="zKL_dNV_AtEYKqo2xS6K-11" style="edgeStyle=orthogonalEdgeStyle;rounded=0;orthogonalLoop=1;jettySize=auto;html=1;entryX=0;entryY=0.5;entryDx=0;entryDy=0;entryPerimeter=0;exitX=1;exitY=0.5;exitDx=0;exitDy=0;" edge="1" parent="1" source="zKL_dNV_AtEYKqo2xS6K-16" target="zKL_dNV_AtEYKqo2xS6K-1">
          <mxGeometry relative="1" as="geometry">
            <mxPoint x="569.9999999999995" y="195.03448275862092" as="sourcePoint" />
          </mxGeometry>
        </mxCell>
        <mxCell id="zKL_dNV_AtEYKqo2xS6K-15" value="&lt;b&gt;Retriever&lt;/b&gt;" style="swimlane;fontStyle=0;childLayout=stackLayout;horizontal=1;startSize=30;horizontalStack=0;resizeParent=1;resizeParentMax=0;resizeLast=0;collapsible=1;marginBottom=0;whiteSpace=wrap;html=1;" vertex="1" parent="1">
          <mxGeometry x="440" y="258.75" width="220" height="90" as="geometry" />
        </mxCell>
        <mxCell id="zKL_dNV_AtEYKqo2xS6K-16" value="DB에서 데이터 읽어옴" style="text;strokeColor=none;fillColor=none;align=center;verticalAlign=middle;spacingLeft=4;spacingRight=4;overflow=hidden;points=[[0,0.5],[1,0.5]];portConstraint=eastwest;rotatable=0;whiteSpace=wrap;html=1;" vertex="1" parent="zKL_dNV_AtEYKqo2xS6K-15">
          <mxGeometry y="30" width="220" height="30" as="geometry" />
        </mxCell>
        <mxCell id="zKL_dNV_AtEYKqo2xS6K-17" value="train/test split (학습/검증 데이터 분리)" style="text;strokeColor=none;fillColor=none;align=left;verticalAlign=middle;spacingLeft=4;spacingRight=4;overflow=hidden;points=[[0,0.5],[1,0.5]];portConstraint=eastwest;rotatable=0;whiteSpace=wrap;html=1;" vertex="1" parent="zKL_dNV_AtEYKqo2xS6K-15">
          <mxGeometry y="60" width="220" height="30" as="geometry" />
        </mxCell>
        <mxCell id="zKL_dNV_AtEYKqo2xS6K-89" style="edgeStyle=orthogonalEdgeStyle;rounded=0;orthogonalLoop=1;jettySize=auto;html=1;" edge="1" parent="1" source="zKL_dNV_AtEYKqo2xS6K-19" target="zKL_dNV_AtEYKqo2xS6K-25">
          <mxGeometry relative="1" as="geometry" />
        </mxCell>
        <mxCell id="zKL_dNV_AtEYKqo2xS6K-19" value="&lt;b&gt;DataPreprocessPipeline&lt;/b&gt;" style="swimlane;fontStyle=0;childLayout=stackLayout;horizontal=1;startSize=30;horizontalStack=0;resizeParent=1;resizeParentMax=0;resizeLast=0;collapsible=1;marginBottom=0;whiteSpace=wrap;html=1;" vertex="1" parent="1">
          <mxGeometry x="131" y="258.75" width="180" height="90" as="geometry">
            <mxRectangle x="80" y="258.75" width="180" height="30" as="alternateBounds" />
          </mxGeometry>
        </mxCell>
        <mxCell id="zKL_dNV_AtEYKqo2xS6K-20" value="데이터 전처리&lt;font style=&quot;font-size: 8px;&quot;&gt;(실험 필요)&lt;/font&gt;" style="text;strokeColor=none;fillColor=none;align=center;verticalAlign=middle;spacingLeft=4;spacingRight=4;overflow=hidden;points=[[0,0.5],[1,0.5]];portConstraint=eastwest;rotatable=0;whiteSpace=wrap;html=1;" vertex="1" parent="zKL_dNV_AtEYKqo2xS6K-19">
          <mxGeometry y="30" width="180" height="30" as="geometry" />
        </mxCell>
        <mxCell id="zKL_dNV_AtEYKqo2xS6K-24" value="데이터 검증 &lt;font style=&quot;font-size: 8px;&quot;&gt;(미구현)&lt;/font&gt;" style="text;strokeColor=none;fillColor=none;align=center;verticalAlign=middle;spacingLeft=4;spacingRight=4;overflow=hidden;points=[[0,0.5],[1,0.5]];portConstraint=eastwest;rotatable=0;whiteSpace=wrap;html=1;" vertex="1" parent="zKL_dNV_AtEYKqo2xS6K-19">
          <mxGeometry y="60" width="180" height="30" as="geometry" />
        </mxCell>
        <mxCell id="zKL_dNV_AtEYKqo2xS6K-23" value="Data" style="rounded=1;whiteSpace=wrap;html=1;" vertex="1" parent="1">
          <mxGeometry x="350" y="270" width="62.02" height="30" as="geometry" />
        </mxCell>
        <mxCell id="zKL_dNV_AtEYKqo2xS6K-25" value="&lt;b&gt;Trainer&lt;/b&gt;" style="swimlane;fontStyle=0;childLayout=stackLayout;horizontal=1;startSize=30;horizontalStack=0;resizeParent=1;resizeParentMax=0;resizeLast=0;collapsible=1;marginBottom=0;whiteSpace=wrap;html=1;" vertex="1" parent="1">
          <mxGeometry x="100" y="455" width="180" height="90" as="geometry">
            <mxRectangle x="80" y="410" width="80" height="30" as="alternateBounds" />
          </mxGeometry>
        </mxCell>
        <mxCell id="zKL_dNV_AtEYKqo2xS6K-26" value="모델 학습" style="text;strokeColor=none;fillColor=none;align=left;verticalAlign=middle;spacingLeft=4;spacingRight=4;overflow=hidden;points=[[0,0.5],[1,0.5]];portConstraint=eastwest;rotatable=0;whiteSpace=wrap;html=1;" vertex="1" parent="zKL_dNV_AtEYKqo2xS6K-25">
          <mxGeometry y="30" width="180" height="30" as="geometry" />
        </mxCell>
        <mxCell id="zKL_dNV_AtEYKqo2xS6K-27" value="모델 학습 결과 평가" style="text;strokeColor=none;fillColor=none;align=left;verticalAlign=middle;spacingLeft=4;spacingRight=4;overflow=hidden;points=[[0,0.5],[1,0.5]];portConstraint=eastwest;rotatable=0;whiteSpace=wrap;html=1;" vertex="1" parent="zKL_dNV_AtEYKqo2xS6K-25">
          <mxGeometry y="60" width="180" height="30" as="geometry" />
        </mxCell>
        <mxCell id="zKL_dNV_AtEYKqo2xS6K-30" style="edgeStyle=orthogonalEdgeStyle;rounded=0;orthogonalLoop=1;jettySize=auto;html=1;exitX=1;exitY=0.5;exitDx=0;exitDy=0;" edge="1" parent="1" source="zKL_dNV_AtEYKqo2xS6K-28" target="zKL_dNV_AtEYKqo2xS6K-26">
          <mxGeometry relative="1" as="geometry" />
        </mxCell>
        <mxCell id="zKL_dNV_AtEYKqo2xS6K-28" value="BaseModel" style="rounded=1;whiteSpace=wrap;html=1;arcSize=9;" vertex="1" parent="1">
          <mxGeometry x="-70" y="455" width="116" height="90" as="geometry" />
        </mxCell>
        <mxCell id="zKL_dNV_AtEYKqo2xS6K-43" style="edgeStyle=orthogonalEdgeStyle;rounded=0;orthogonalLoop=1;jettySize=auto;html=1;exitX=1;exitY=0.5;exitDx=0;exitDy=0;entryX=0;entryY=0.5;entryDx=0;entryDy=0;" edge="1" parent="1" source="zKL_dNV_AtEYKqo2xS6K-31" target="zKL_dNV_AtEYKqo2xS6K-34">
          <mxGeometry relative="1" as="geometry" />
        </mxCell>
        <mxCell id="zKL_dNV_AtEYKqo2xS6K-31" value="Artifact" style="rounded=1;whiteSpace=wrap;html=1;arcSize=9;" vertex="1" parent="1">
          <mxGeometry x="360" y="390" width="116" height="90" as="geometry" />
        </mxCell>
        <mxCell id="zKL_dNV_AtEYKqo2xS6K-44" style="edgeStyle=orthogonalEdgeStyle;rounded=0;orthogonalLoop=1;jettySize=auto;html=1;exitX=1;exitY=0.5;exitDx=0;exitDy=0;" edge="1" parent="1" source="zKL_dNV_AtEYKqo2xS6K-32" target="zKL_dNV_AtEYKqo2xS6K-34">
          <mxGeometry relative="1" as="geometry" />
        </mxCell>
        <mxCell id="zKL_dNV_AtEYKqo2xS6K-32" value="Evaluation" style="rounded=1;whiteSpace=wrap;html=1;arcSize=9;" vertex="1" parent="1">
          <mxGeometry x="360" y="545" width="116" height="90" as="geometry" />
        </mxCell>
        <mxCell id="zKL_dNV_AtEYKqo2xS6K-52" style="edgeStyle=orthogonalEdgeStyle;rounded=0;orthogonalLoop=1;jettySize=auto;html=1;entryX=0.5;entryY=0;entryDx=0;entryDy=0;entryPerimeter=0;" edge="1" parent="1" source="zKL_dNV_AtEYKqo2xS6K-33" target="zKL_dNV_AtEYKqo2xS6K-53">
          <mxGeometry relative="1" as="geometry">
            <mxPoint x="779.9999999999995" y="590" as="targetPoint" />
          </mxGeometry>
        </mxCell>
        <mxCell id="zKL_dNV_AtEYKqo2xS6K-33" value="&lt;b&gt;DataRegister&lt;/b&gt;" style="swimlane;fontStyle=0;childLayout=stackLayout;horizontal=1;startSize=30;horizontalStack=0;resizeParent=1;resizeParentMax=0;resizeLast=0;collapsible=1;marginBottom=0;whiteSpace=wrap;html=1;" vertex="1" parent="1">
          <mxGeometry x="580" y="470" width="150" height="60" as="geometry">
            <mxRectangle x="80" y="410" width="80" height="30" as="alternateBounds" />
          </mxGeometry>
        </mxCell>
        <mxCell id="zKL_dNV_AtEYKqo2xS6K-34" value="모델 등록&lt;font style=&quot;font-size: 8px;&quot;&gt;(미구현)&lt;/font&gt;" style="text;strokeColor=none;fillColor=none;align=center;verticalAlign=middle;spacingLeft=4;spacingRight=4;overflow=hidden;points=[[0,0.5],[1,0.5]];portConstraint=eastwest;rotatable=0;whiteSpace=wrap;html=1;" vertex="1" parent="zKL_dNV_AtEYKqo2xS6K-33">
          <mxGeometry y="30" width="150" height="30" as="geometry" />
        </mxCell>
        <mxCell id="zKL_dNV_AtEYKqo2xS6K-40" style="edgeStyle=orthogonalEdgeStyle;rounded=0;orthogonalLoop=1;jettySize=auto;html=1;exitX=1;exitY=0.5;exitDx=0;exitDy=0;entryX=0;entryY=0.5;entryDx=0;entryDy=0;" edge="1" parent="1" source="zKL_dNV_AtEYKqo2xS6K-26" target="zKL_dNV_AtEYKqo2xS6K-31">
          <mxGeometry relative="1" as="geometry" />
        </mxCell>
        <mxCell id="zKL_dNV_AtEYKqo2xS6K-41" style="edgeStyle=orthogonalEdgeStyle;rounded=0;orthogonalLoop=1;jettySize=auto;html=1;" edge="1" parent="1" source="zKL_dNV_AtEYKqo2xS6K-27" target="zKL_dNV_AtEYKqo2xS6K-32">
          <mxGeometry relative="1" as="geometry" />
        </mxCell>
        <mxCell id="zKL_dNV_AtEYKqo2xS6K-42" style="edgeStyle=orthogonalEdgeStyle;rounded=0;orthogonalLoop=1;jettySize=auto;html=1;exitX=0;exitY=0.5;exitDx=0;exitDy=0;entryX=1;entryY=0.5;entryDx=0;entryDy=0;" edge="1" parent="1" source="zKL_dNV_AtEYKqo2xS6K-16" target="zKL_dNV_AtEYKqo2xS6K-20">
          <mxGeometry relative="1" as="geometry" />
        </mxCell>
        <mxCell id="zKL_dNV_AtEYKqo2xS6K-51" style="edgeStyle=orthogonalEdgeStyle;rounded=0;orthogonalLoop=1;jettySize=auto;html=1;entryX=0.481;entryY=1.024;entryDx=0;entryDy=0;entryPerimeter=0;exitX=0.5;exitY=0;exitDx=0;exitDy=0;" edge="1" parent="1" source="zKL_dNV_AtEYKqo2xS6K-57" target="zKL_dNV_AtEYKqo2xS6K-27">
          <mxGeometry relative="1" as="geometry">
            <mxPoint x="180" y="550" as="targetPoint" />
            <mxPoint x="180.03448275862092" y="599.828674481515" as="sourcePoint" />
          </mxGeometry>
        </mxCell>
        <mxCell id="zKL_dNV_AtEYKqo2xS6K-53" value="Model Registry" style="shape=cylinder3;whiteSpace=wrap;html=1;boundedLbl=1;backgroundOutline=1;size=15;" vertex="1" parent="1">
          <mxGeometry x="840" y="740" width="120" height="100" as="geometry" />
        </mxCell>
        <mxCell id="zKL_dNV_AtEYKqo2xS6K-73" value="추론 요청" style="text;html=1;align=center;verticalAlign=middle;whiteSpace=wrap;rounded=0;" vertex="1" parent="1">
          <mxGeometry x="790" y="910" width="60" height="30" as="geometry" />
        </mxCell>
        <mxCell id="zKL_dNV_AtEYKqo2xS6K-74" value="" style="shape=flexArrow;endArrow=classic;html=1;rounded=0;" edge="1" parent="1">
          <mxGeometry width="50" height="50" relative="1" as="geometry">
            <mxPoint x="855" y="979.66" as="sourcePoint" />
            <mxPoint x="785" y="979.66" as="targetPoint" />
          </mxGeometry>
        </mxCell>
        <mxCell id="zKL_dNV_AtEYKqo2xS6K-91" value="&lt;b&gt;Scheduler&lt;/b&gt;" style="swimlane;fontStyle=0;childLayout=stackLayout;horizontal=1;startSize=30;horizontalStack=0;resizeParent=1;resizeParentMax=0;resizeLast=0;collapsible=1;marginBottom=0;whiteSpace=wrap;html=1;" vertex="1" parent="1">
          <mxGeometry x="827" y="50" width="230" height="120" as="geometry" />
        </mxCell>
        <mxCell id="zKL_dNV_AtEYKqo2xS6K-92" value="주기적으로 DB 확인" style="text;strokeColor=none;fillColor=none;align=left;verticalAlign=middle;spacingLeft=4;spacingRight=4;overflow=hidden;points=[[0,0.5],[1,0.5]];portConstraint=eastwest;rotatable=0;whiteSpace=wrap;html=1;" vertex="1" parent="zKL_dNV_AtEYKqo2xS6K-91">
          <mxGeometry y="30" width="230" height="30" as="geometry" />
        </mxCell>
        <mxCell id="zKL_dNV_AtEYKqo2xS6K-93" value="학습 조건 충족시 모델 학습 트리거링" style="text;strokeColor=none;fillColor=none;align=left;verticalAlign=middle;spacingLeft=4;spacingRight=4;overflow=hidden;points=[[0,0.5],[1,0.5]];portConstraint=eastwest;rotatable=0;whiteSpace=wrap;html=1;" vertex="1" parent="zKL_dNV_AtEYKqo2xS6K-91">
          <mxGeometry y="60" width="230" height="60" as="geometry" />
        </mxCell>
        <mxCell id="zKL_dNV_AtEYKqo2xS6K-69" style="edgeStyle=orthogonalEdgeStyle;rounded=0;orthogonalLoop=1;jettySize=auto;html=1;entryX=1.043;entryY=0.167;entryDx=0;entryDy=0;exitX=0;exitY=0.5;exitDx=0;exitDy=0;exitPerimeter=0;entryPerimeter=0;" edge="1" parent="1" source="zKL_dNV_AtEYKqo2xS6K-53" target="zKL_dNV_AtEYKqo2xS6K-76">
          <mxGeometry relative="1" as="geometry">
            <mxPoint x="430.0100000000002" y="1049.2" as="targetPoint" />
            <mxPoint x="906.7200000000003" y="730.0000000000002" as="sourcePoint" />
            <Array as="points">
              <mxPoint x="670" y="790" />
              <mxPoint x="670" y="930" />
              <mxPoint x="496" y="930" />
            </Array>
          </mxGeometry>
        </mxCell>
        <mxCell id="zKL_dNV_AtEYKqo2xS6K-79" value="모델 관련 Artifact 로드" style="edgeLabel;html=1;align=center;verticalAlign=middle;resizable=0;points=[];" vertex="1" connectable="0" parent="zKL_dNV_AtEYKqo2xS6K-69">
          <mxGeometry x="-0.0037" y="1" relative="1" as="geometry">
            <mxPoint as="offset" />
          </mxGeometry>
        </mxCell>
      </root>
    </mxGraphModel>
  </diagram>
</mxfile>
